<?xml version="1.0" encoding="utf-8" standalone="no"?>
<!DOCTYPE svg PUBLIC "-//W3C//DTD SVG 1.1//EN"
  "http://www.w3.org/Graphics/SVG/1.1/DTD/svg11.dtd">
<svg xmlns:xlink="http://www.w3.org/1999/xlink" width="460.8pt" height="345.6pt" viewBox="0 0 460.8 345.6" xmlns="http://www.w3.org/2000/svg" version="1.1">
 <metadata>
  <rdf:RDF xmlns:dc="http://purl.org/dc/elements/1.1/" xmlns:cc="http://creativecommons.org/ns#" xmlns:rdf="http://www.w3.org/1999/02/22-rdf-syntax-ns#">
   <cc:Work>
    <dc:type rdf:resource="http://purl.org/dc/dcmitype/StillImage"/>
    <dc:date>2022-06-28T00:30:22.108049</dc:date>
    <dc:format>image/svg+xml</dc:format>
    <dc:creator>
     <cc:Agent>
      <dc:title>Matplotlib v3.5.2, https://matplotlib.org/</dc:title>
     </cc:Agent>
    </dc:creator>
   </cc:Work>
  </rdf:RDF>
 </metadata>
 <defs>
  <style type="text/css">*{stroke-linejoin: round; stroke-linecap: butt}</style>
 </defs>
 <g id="figure_1">
  <g id="patch_1">
   <path d="M 0 345.6 
L 460.8 345.6 
L 460.8 0 
L 0 0 
L 0 345.6 
z
" style="fill: none"/>
  </g>
  <g id="axes_1">
   <g id="patch_2">
    <path d="M 64.97 291.591563 
L 445.68 291.591563 
L 445.68 15.12 
L 64.97 15.12 
L 64.97 291.591563 
z
" style="fill: none"/>
   </g>
   <g id="matplotlib.axis_1">
    <g id="xtick_1">
     <g id="line2d_1">
      <defs>
       <path id="m2a45535071" d="M 0 0 
L 0 3.5 
" style="stroke: #000000; stroke-width: 0.8"/>
      </defs>
      <g>
       <use xlink:href="#m2a45535071" x="90.074423" y="291.591563" style="stroke: #000000; stroke-width: 0.8"/>
      </g>
     </g>
     <g id="text_1">
      <!-- −3 -->
      <g transform="translate(82.969423 308.363125)scale(0.14 -0.14)">
       <defs>
        <path id="LibertinusSerif-Regular-2212" d="M 2963 1446 
C 3046 1446 3136 1594 3136 1658 
C 3136 1709 3110 1766 3046 1766 
L 544 1766 
C 467 1766 384 1645 384 1549 
C 384 1498 422 1446 480 1446 
L 2963 1446 
z
" transform="scale(0.015625)"/>
        <path id="LibertinusSerif-Regular-33" d="M 1376 3680 
C 1651 3680 1907 3514 1907 3104 
C 1907 2784 1536 2291 902 2202 
L 934 1997 
C 1043 2010 1158 2010 1242 2010 
C 1606 2010 2080 1907 2080 1184 
C 2080 333 1510 160 1286 160 
C 960 160 902 307 826 422 
C 762 512 678 589 550 589 
C 416 589 282 467 282 365 
C 282 109 819 -64 1203 -64 
C 1965 -64 2643 429 2643 1274 
C 2643 1971 2118 2221 1741 2285 
L 1734 2298 
C 2259 2547 2406 2810 2406 3149 
C 2406 3341 2362 3494 2208 3654 
C 2067 3795 1843 3904 1510 3904 
C 570 3904 301 3290 301 3078 
C 301 2989 365 2861 518 2861 
C 742 2861 768 3072 768 3194 
C 768 3603 1210 3680 1376 3680 
z
" transform="scale(0.015625)"/>
       </defs>
       <use xlink:href="#LibertinusSerif-Regular-2212"/>
       <use xlink:href="#LibertinusSerif-Regular-33" x="54.999985"/>
      </g>
     </g>
    </g>
    <g id="xtick_2">
     <g id="line2d_2">
      <g>
       <use xlink:href="#m2a45535071" x="145.157948" y="291.591563" style="stroke: #000000; stroke-width: 0.8"/>
      </g>
     </g>
     <g id="text_2">
      <!-- −2 -->
      <g transform="translate(138.052948 308.363125)scale(0.14 -0.14)">
       <defs>
        <path id="LibertinusSerif-Regular-32" d="M 390 2995 
C 390 2861 512 2746 646 2746 
C 755 2746 947 2861 947 3002 
C 947 3053 934 3091 922 3136 
C 909 3181 870 3238 870 3290 
C 870 3450 1037 3680 1504 3680 
C 1734 3680 2061 3520 2061 2906 
C 2061 2496 1914 2163 1536 1779 
L 1062 1312 
C 435 672 333 365 333 -13 
C 333 -13 659 0 864 0 
L 1984 0 
C 2189 0 2483 -13 2483 -13 
C 2566 326 2630 806 2637 998 
C 2598 1030 2515 1043 2451 1030 
C 2342 576 2234 416 2003 416 
L 864 416 
C 864 723 1306 1158 1338 1190 
L 1984 1811 
C 2349 2163 2624 2445 2624 2931 
C 2624 3622 2061 3904 1542 3904 
C 832 3904 390 3379 390 2995 
z
" transform="scale(0.015625)"/>
       </defs>
       <use xlink:href="#LibertinusSerif-Regular-2212"/>
       <use xlink:href="#LibertinusSerif-Regular-32" x="54.999985"/>
      </g>
     </g>
    </g>
    <g id="xtick_3">
     <g id="line2d_3">
      <g>
       <use xlink:href="#m2a45535071" x="200.241474" y="291.591563" style="stroke: #000000; stroke-width: 0.8"/>
      </g>
     </g>
     <g id="text_3">
      <!-- −1 -->
      <g transform="translate(193.136474 308.363125)scale(0.14 -0.14)">
       <defs>
        <path id="LibertinusSerif-Regular-31" d="M 1843 781 
L 1843 3002 
C 1843 3386 1850 3776 1862 3859 
C 1862 3891 1850 3891 1824 3891 
C 1472 3674 1133 3514 570 3251 
C 582 3181 608 3117 666 3078 
C 960 3200 1101 3238 1222 3238 
C 1331 3238 1350 3085 1350 2867 
L 1350 781 
C 1350 250 1178 218 730 198 
C 691 160 691 26 730 -13 
C 1043 -6 1274 0 1619 0 
C 1926 0 2080 -6 2400 -13 
C 2438 26 2438 160 2400 198 
C 1952 218 1843 250 1843 781 
z
" transform="scale(0.015625)"/>
       </defs>
       <use xlink:href="#LibertinusSerif-Regular-2212"/>
       <use xlink:href="#LibertinusSerif-Regular-31" x="54.999985"/>
      </g>
     </g>
    </g>
    <g id="xtick_4">
     <g id="line2d_4">
      <g>
       <use xlink:href="#m2a45535071" x="255.325" y="291.591563" style="stroke: #000000; stroke-width: 0.8"/>
      </g>
     </g>
     <g id="text_4">
      <!-- 0 -->
      <g transform="translate(252.07 308.363125)scale(0.14 -0.14)">
       <defs>
        <path id="LibertinusSerif-Regular-30" d="M 1459 -64 
C 1952 -64 2701 435 2701 1939 
C 2701 2573 2547 3117 2266 3488 
C 2099 3712 1830 3904 1485 3904 
C 851 3904 250 3149 250 1882 
C 250 1197 461 557 813 205 
C 992 26 1210 -64 1459 -64 
z
M 1485 3680 
C 1594 3680 1696 3642 1773 3571 
C 1971 3405 2144 2918 2144 2061 
C 2144 1472 2125 1069 2035 742 
C 1894 218 1581 160 1466 160 
C 870 160 806 1254 806 1811 
C 806 3386 1197 3680 1485 3680 
z
" transform="scale(0.015625)"/>
       </defs>
       <use xlink:href="#LibertinusSerif-Regular-30"/>
      </g>
     </g>
    </g>
    <g id="xtick_5">
     <g id="line2d_5">
      <g>
       <use xlink:href="#m2a45535071" x="310.408526" y="291.591563" style="stroke: #000000; stroke-width: 0.8"/>
      </g>
     </g>
     <g id="text_5">
      <!-- 1 -->
      <g transform="translate(307.153526 308.363125)scale(0.14 -0.14)">
       <use xlink:href="#LibertinusSerif-Regular-31"/>
      </g>
     </g>
    </g>
    <g id="xtick_6">
     <g id="line2d_6">
      <g>
       <use xlink:href="#m2a45535071" x="365.492052" y="291.591563" style="stroke: #000000; stroke-width: 0.8"/>
      </g>
     </g>
     <g id="text_6">
      <!-- 2 -->
      <g transform="translate(362.237052 308.363125)scale(0.14 -0.14)">
       <use xlink:href="#LibertinusSerif-Regular-32"/>
      </g>
     </g>
    </g>
    <g id="xtick_7">
     <g id="line2d_7">
      <g>
       <use xlink:href="#m2a45535071" x="420.575577" y="291.591563" style="stroke: #000000; stroke-width: 0.8"/>
      </g>
     </g>
     <g id="text_7">
      <!-- 3 -->
      <g transform="translate(417.320577 308.363125)scale(0.14 -0.14)">
       <use xlink:href="#LibertinusSerif-Regular-33"/>
      </g>
     </g>
    </g>
    <g id="text_8">
     <!-- Wavenumber $k$ (in units of $a^{-1}$) -->
     <g transform="translate(163.485 327.203125)scale(0.14 -0.14)">
      <defs>
       <path id="LibertinusSerif-Regular-57" d="M 5184 3616 
L 4186 838 
L 4166 845 
L 3283 3546 
C 3174 3891 3398 3910 3616 3930 
C 3654 3968 3654 4102 3616 4141 
C 3354 4134 3072 4128 2816 4128 
C 2605 4128 2381 4134 2176 4141 
C 2138 4102 2138 3968 2176 3930 
C 2515 3910 2656 3712 2714 3546 
L 2861 3123 
C 2886 3046 2906 2982 2906 2925 
C 2906 2861 2899 2810 2848 2701 
L 2022 826 
L 1990 832 
L 1056 3661 
C 979 3885 1152 3917 1376 3930 
C 1414 3968 1414 4102 1376 4141 
C 1165 4134 883 4128 634 4128 
C 410 4128 224 4134 38 4141 
C 0 4102 0 3968 38 3930 
C 326 3910 371 3904 493 3558 
L 1696 96 
C 1728 -6 1766 -77 1837 -77 
C 1920 -77 1958 -13 2003 96 
L 2957 2240 
C 3014 2368 3034 2400 3066 2400 
C 3091 2400 3117 2330 3155 2221 
L 3891 96 
C 3930 -13 3962 -77 4038 -77 
C 4109 -77 4154 -6 4186 90 
L 5472 3539 
C 5555 3763 5670 3910 6022 3930 
C 6061 3968 6061 4102 6022 4141 
C 5837 4134 5632 4128 5466 4128 
C 5299 4128 5018 4134 4762 4141 
C 4723 4102 4723 3968 4762 3930 
C 5024 3910 5280 3891 5184 3616 
z
" transform="scale(0.015625)"/>
       <path id="LibertinusSerif-Regular-61" d="M 1875 307 
C 1914 109 1984 -64 2304 -64 
C 2547 -64 2778 45 2912 173 
C 2899 250 2874 307 2803 346 
C 2758 307 2650 243 2566 243 
C 2381 243 2374 493 2374 787 
L 2374 1728 
C 2374 2637 1875 2810 1408 2810 
C 883 2810 352 2464 352 2099 
C 352 1946 429 1869 576 1869 
C 762 1869 877 2003 877 2086 
C 877 2131 870 2176 858 2202 
C 851 2221 845 2259 845 2330 
C 845 2528 1114 2598 1357 2598 
C 1574 2598 1875 2490 1875 1766 
C 1875 1722 1856 1696 1837 1690 
L 1286 1555 
C 672 1402 230 1062 230 627 
C 230 102 589 -64 1037 -64 
C 1261 -64 1453 -13 1734 205 
L 1862 307 
L 1875 307 
z
M 1875 1491 
L 1875 646 
C 1875 563 1837 518 1786 480 
C 1619 346 1402 198 1222 198 
C 902 198 762 454 762 653 
C 762 941 896 1235 1370 1357 
L 1875 1491 
z
" transform="scale(0.015625)"/>
       <path id="LibertinusSerif-Regular-76" d="M 2080 2547 
C 2426 2522 2464 2445 2330 2118 
L 1811 864 
C 1709 614 1677 614 1574 883 
L 1114 2118 
C 998 2426 973 2502 1312 2547 
C 1350 2586 1350 2720 1312 2758 
C 1101 2752 877 2746 666 2746 
C 454 2746 262 2752 70 2758 
C 32 2720 32 2586 70 2547 
C 410 2509 454 2406 582 2080 
L 1402 58 
C 1440 -38 1478 -77 1562 -77 
C 1626 -77 1670 -38 1715 70 
L 2566 2074 
C 2688 2355 2758 2515 3117 2547 
C 3155 2586 3155 2720 3117 2758 
C 2989 2752 2835 2746 2669 2746 
C 2458 2746 2240 2752 2080 2758 
C 2042 2720 2042 2586 2080 2547 
z
" transform="scale(0.015625)"/>
       <path id="LibertinusSerif-Regular-65" d="M 2470 595 
C 2234 352 2048 250 1677 250 
C 1446 250 1178 384 979 710 
C 851 922 774 1216 774 1587 
L 2477 1574 
C 2554 1574 2598 1613 2598 1683 
C 2598 2221 2406 2797 1517 2797 
C 960 2797 237 2266 237 1293 
C 237 934 326 589 538 346 
C 755 90 1056 -64 1517 -64 
C 2003 -64 2349 160 2605 493 
C 2586 557 2547 589 2470 595 
z
M 794 1805 
C 915 2528 1363 2586 1517 2586 
C 1760 2586 2048 2451 2048 1914 
C 2048 1856 2022 1824 1952 1824 
L 794 1805 
z
" transform="scale(0.015625)"/>
       <path id="LibertinusSerif-Regular-6e" d="M 1178 2291 
C 1139 2246 1101 2234 1101 2291 
C 1094 2464 1082 2714 1050 2778 
C 1037 2810 1024 2829 973 2829 
C 794 2758 627 2701 186 2643 
C 173 2605 186 2502 198 2464 
C 544 2432 614 2400 614 2029 
L 614 781 
C 614 256 550 230 166 198 
C 128 160 128 26 166 -13 
C 358 -6 614 0 870 0 
C 1126 0 1318 -6 1510 -13 
C 1549 26 1549 160 1510 198 
C 1184 230 1120 256 1120 781 
L 1120 1830 
C 1120 1965 1178 2042 1229 2099 
C 1472 2336 1760 2477 2010 2477 
C 2138 2477 2272 2394 2349 2246 
C 2413 2118 2426 1946 2426 1754 
L 2426 781 
C 2426 256 2362 230 2029 198 
C 1997 160 1997 26 2029 -13 
C 2221 -6 2426 0 2682 0 
C 2938 0 3168 -6 3360 -13 
C 3392 26 3392 160 3360 198 
C 3002 230 2931 256 2931 781 
L 2931 1734 
C 2931 2086 2906 2394 2758 2592 
C 2650 2733 2451 2810 2227 2810 
C 1914 2810 1555 2726 1178 2291 
z
" transform="scale(0.015625)"/>
       <path id="LibertinusSerif-Regular-75" d="M 1389 -64 
C 1638 -64 1939 64 2253 320 
C 2285 346 2342 358 2349 314 
C 2368 154 2419 -64 2419 -64 
C 2470 -83 2502 -77 2541 -64 
C 2682 51 2906 147 3296 192 
C 3334 230 3334 326 3296 365 
C 2886 397 2829 518 2829 832 
L 2829 2061 
C 2829 2253 2854 2720 2854 2720 
C 2854 2739 2835 2758 2803 2758 
C 2771 2752 2675 2746 2579 2746 
C 2374 2746 2144 2752 1926 2758 
C 1888 2720 1888 2586 1926 2547 
C 2240 2528 2323 2451 2323 2029 
L 2323 794 
C 2323 672 2310 621 2221 544 
C 1984 339 1741 237 1581 237 
C 1389 237 1069 326 1069 896 
L 1069 2061 
C 1069 2253 1094 2720 1094 2720 
C 1094 2739 1075 2758 1043 2758 
C 1011 2752 915 2746 819 2746 
C 614 2746 384 2752 166 2758 
C 128 2720 128 2586 166 2547 
C 474 2522 563 2451 563 2035 
L 563 806 
C 563 365 755 -64 1389 -64 
z
" transform="scale(0.015625)"/>
       <path id="LibertinusSerif-Regular-6d" d="M 1088 2291 
C 1082 2483 1069 2714 1037 2778 
C 1024 2810 1011 2829 960 2829 
C 781 2758 614 2701 173 2643 
C 160 2605 173 2502 186 2464 
C 531 2432 602 2400 602 2029 
L 602 781 
C 602 256 518 224 166 198 
C 128 160 128 26 166 -13 
C 358 -6 602 0 858 0 
C 1114 0 1312 -6 1504 -13 
C 1542 26 1542 160 1504 198 
C 1178 230 1107 256 1107 781 
L 1107 1830 
C 1107 1965 1165 2042 1216 2099 
C 1472 2349 1709 2477 1907 2477 
C 2150 2477 2330 2323 2330 1894 
L 2330 781 
C 2330 256 2278 224 1933 198 
C 1901 160 1901 26 1933 -13 
C 2093 -6 2330 0 2586 0 
C 2842 0 3053 -6 3213 -13 
C 3245 26 3245 160 3213 198 
C 2893 224 2835 256 2835 781 
L 2835 1798 
C 2835 1888 2835 1978 2829 2054 
C 3136 2394 3424 2477 3674 2477 
C 3917 2477 4058 2336 4058 1907 
L 4058 781 
C 4058 256 3994 224 3661 198 
C 3629 160 3629 26 3661 -13 
C 3821 -6 4058 0 4314 0 
C 4570 0 4794 -6 4973 -13 
C 5005 26 5005 160 4973 198 
C 4621 224 4563 256 4563 781 
L 4563 1792 
C 4563 2362 4467 2810 3904 2810 
C 3578 2810 3181 2688 2848 2336 
C 2829 2317 2790 2285 2778 2342 
C 2720 2605 2470 2810 2138 2810 
C 1766 2810 1434 2592 1165 2291 
C 1133 2259 1094 2214 1088 2291 
z
" transform="scale(0.015625)"/>
       <path id="LibertinusSerif-Regular-62" d="M 1069 2522 
C 1030 2483 1005 2496 1005 2554 
L 1005 3731 
C 1005 4147 1030 4403 1030 4403 
C 1030 4448 1005 4467 947 4467 
C 787 4403 307 4314 51 4294 
C 38 4243 51 4141 90 4102 
C 109 4102 128 4102 147 4102 
C 429 4083 499 4083 499 3578 
L 499 454 
C 499 205 493 90 474 0 
C 506 -51 538 -77 614 -77 
C 653 -38 717 19 768 77 
C 832 154 870 154 941 96 
C 1088 -26 1280 -64 1504 -64 
C 2157 -64 2918 531 2918 1549 
C 2918 2330 2342 2810 1786 2810 
C 1510 2810 1267 2701 1069 2522 
z
M 1114 2323 
C 1280 2470 1472 2528 1658 2528 
C 2048 2528 2368 2054 2368 1434 
C 2368 704 2074 154 1466 154 
C 1267 154 1133 294 1005 454 
L 1005 2054 
C 1005 2189 1030 2253 1114 2323 
z
" transform="scale(0.015625)"/>
       <path id="LibertinusSerif-Regular-72" d="M 1126 2291 
C 1114 2547 1107 2714 1075 2778 
C 1062 2810 1050 2829 998 2829 
C 819 2758 653 2701 211 2643 
C 198 2605 211 2502 224 2464 
C 570 2432 640 2400 640 2029 
L 640 781 
C 640 250 563 224 166 198 
C 128 160 128 26 166 -13 
C 390 -6 640 0 896 0 
C 1152 0 1446 -6 1670 -13 
C 1709 26 1709 160 1670 198 
C 1222 230 1146 250 1146 781 
L 1146 1670 
C 1146 1837 1222 1984 1299 2099 
C 1370 2202 1517 2413 1594 2413 
C 1651 2413 1709 2400 1760 2330 
C 1805 2266 1882 2182 1990 2182 
C 2144 2182 2291 2342 2291 2502 
C 2291 2624 2176 2810 1907 2810 
C 1606 2810 1344 2528 1197 2278 
C 1158 2208 1126 2259 1126 2291 
z
" transform="scale(0.015625)"/>
       <path id="LibertinusSerif-Regular-20" transform="scale(0.015625)"/>
       <path id="Cmmi10-6b" d="M 341 116 
Q 341 153 347 172 
L 1275 3872 
Q 1300 3981 1306 4044 
Q 1306 4147 891 4147 
Q 825 4147 825 4231 
Q 828 4247 839 4287 
Q 850 4328 867 4350 
Q 884 4372 916 4372 
L 1778 4441 
L 1797 4441 
Q 1797 4434 1819 4423 
Q 1841 4413 1844 4409 
Q 1856 4378 1856 4359 
L 1184 1684 
Q 1416 1781 1767 2145 
Q 2119 2509 2317 2668 
Q 2516 2828 2816 2828 
Q 2994 2828 3119 2706 
Q 3244 2584 3244 2406 
Q 3244 2294 3197 2198 
Q 3150 2103 3065 2043 
Q 2981 1984 2869 1984 
Q 2766 1984 2695 2048 
Q 2625 2113 2625 2216 
Q 2625 2369 2733 2473 
Q 2841 2578 2994 2578 
Q 2931 2663 2803 2663 
Q 2613 2663 2436 2553 
Q 2259 2444 2054 2239 
Q 1850 2034 1681 1864 
Q 1513 1694 1369 1606 
Q 1747 1563 2025 1408 
Q 2303 1253 2303 934 
Q 2303 869 2278 769 
Q 2222 528 2222 384 
Q 2222 97 2419 97 
Q 2650 97 2770 350 
Q 2891 603 2969 941 
Q 2981 978 3022 978 
L 3097 978 
Q 3122 978 3139 962 
Q 3156 947 3156 922 
Q 3156 916 3150 903 
Q 2909 -72 2406 -72 
Q 2225 -72 2086 12 
Q 1947 97 1872 242 
Q 1797 388 1797 569 
Q 1797 672 1825 781 
Q 1844 856 1844 922 
Q 1844 1169 1625 1297 
Q 1406 1425 1125 1453 
L 800 147 
Q 775 50 703 -11 
Q 631 -72 538 -72 
Q 456 -72 398 -17 
Q 341 38 341 116 
z
" transform="scale(0.015625)"/>
       <path id="LibertinusSerif-Regular-28" d="M 282 1613 
C 282 1325 307 -154 1638 -1306 
C 1702 -1293 1754 -1248 1773 -1197 
C 1562 -954 813 -70 813 1613 
C 813 3296 1568 4179 1773 4410 
C 1754 4474 1709 4518 1638 4525 
C 877 3872 282 2803 282 1613 
z
" transform="scale(0.015625)"/>
       <path id="LibertinusSerif-Regular-69" d="M 1158 781 
L 1158 2054 
C 1158 2374 1184 2784 1184 2784 
C 1184 2810 1152 2829 1101 2829 
C 922 2758 666 2701 224 2643 
C 211 2605 224 2502 237 2464 
C 589 2432 653 2394 653 2029 
L 653 781 
C 653 250 582 230 192 198 
C 154 160 154 26 192 -13 
C 403 -6 653 0 909 0 
C 1165 0 1408 -6 1619 -13 
C 1658 26 1658 160 1619 198 
C 1229 224 1158 250 1158 781 
z
M 576 3834 
C 576 3667 730 3501 883 3501 
C 1062 3501 1216 3674 1216 3808 
C 1216 3962 1082 4141 909 4141 
C 755 4141 576 3987 576 3834 
z
" transform="scale(0.015625)"/>
       <path id="LibertinusSerif-Regular-74" d="M 275 2746 
C 186 2746 160 2669 160 2618 
L 160 2534 
C 160 2502 166 2496 192 2496 
L 570 2496 
L 570 570 
C 570 115 768 -64 1062 -64 
C 1357 -64 1677 77 1926 358 
C 1914 422 1875 461 1811 467 
C 1645 339 1453 288 1286 288 
C 1114 288 1075 480 1075 877 
L 1075 2496 
L 1741 2496 
C 1805 2496 1894 2522 1894 2579 
L 1894 2707 
C 1894 2733 1875 2746 1843 2746 
L 1075 2746 
L 1075 2995 
C 1075 3411 1101 3667 1101 3667 
C 1101 3706 1082 3725 1050 3725 
C 1024 3725 966 3699 909 3667 
C 838 3629 774 3597 691 3578 
C 614 3552 550 3533 550 3488 
C 550 3411 570 3456 570 2746 
L 275 2746 
z
" transform="scale(0.015625)"/>
       <path id="LibertinusSerif-Regular-73" d="M 307 883 
C 333 570 352 269 352 0 
C 416 13 480 19 512 19 
C 557 19 595 19 640 6 
C 813 -38 986 -64 1222 -64 
C 1581 -64 2240 109 2240 742 
C 2240 1178 1926 1434 1491 1594 
C 1107 1741 851 1837 851 2189 
C 851 2451 1082 2598 1299 2598 
C 1440 2598 1811 2547 1894 2003 
C 1933 1965 2061 1971 2099 2010 
C 2118 2240 2131 2477 2138 2688 
C 1939 2720 1632 2810 1299 2810 
C 826 2810 397 2502 397 2093 
C 397 1626 608 1427 1101 1222 
C 1632 1005 1754 870 1754 595 
C 1754 282 1446 147 1210 147 
C 960 147 819 230 755 301 
C 614 448 544 730 506 890 
C 467 928 346 922 307 883 
z
" transform="scale(0.015625)"/>
       <path id="LibertinusSerif-Regular-6f" d="M 262 1312 
C 262 659 698 -64 1606 -64 
C 2016 -64 2330 83 2547 294 
C 2835 576 2963 979 2963 1370 
C 2963 2035 2598 2810 1619 2810 
C 1197 2810 851 2637 614 2362 
C 384 2086 262 1715 262 1312 
z
M 1523 2586 
C 2074 2586 2413 2086 2413 1165 
C 2413 358 1997 160 1696 160 
C 1030 160 813 966 813 1459 
C 813 2016 947 2586 1523 2586 
z
" transform="scale(0.015625)"/>
       <path id="LibertinusSerif-Regular-66" d="M 1120 781 
L 1120 2496 
L 1715 2496 
C 1773 2496 1862 2522 1862 2579 
L 1862 2707 
C 1862 2733 1843 2746 1811 2746 
L 1120 2746 
L 1120 3110 
C 1120 4096 1414 4250 1626 4250 
C 1818 4250 1920 4173 2010 3949 
C 2061 3834 2131 3744 2266 3744 
C 2374 3744 2528 3878 2528 4006 
C 2528 4115 2458 4230 2323 4333 
C 2157 4448 1990 4467 1747 4467 
C 1210 4467 614 4000 614 3002 
L 614 2746 
L 288 2746 
C 173 2746 141 2669 141 2618 
L 141 2534 
C 141 2502 147 2496 173 2496 
L 614 2496 
L 614 781 
C 614 250 512 224 166 198 
C 128 160 128 26 166 -13 
C 390 -6 614 0 870 0 
C 1126 0 1434 -6 1658 -13 
C 1696 26 1696 160 1658 198 
C 1158 224 1120 250 1120 781 
z
" transform="scale(0.015625)"/>
       <path id="Cmmi10-61" d="M 1113 -72 
Q 709 -72 476 233 
Q 244 538 244 953 
Q 244 1363 456 1803 
Q 669 2244 1030 2536 
Q 1391 2828 1806 2828 
Q 1997 2828 2147 2725 
Q 2297 2622 2381 2444 
Q 2453 2700 2663 2700 
Q 2744 2700 2798 2651 
Q 2853 2603 2853 2522 
Q 2853 2503 2851 2493 
Q 2850 2484 2847 2472 
L 2400 684 
Q 2356 494 2356 372 
Q 2356 97 2541 97 
Q 2741 97 2845 351 
Q 2950 606 3022 941 
Q 3034 978 3072 978 
L 3150 978 
Q 3175 978 3190 956 
Q 3206 934 3206 916 
Q 3094 469 2961 198 
Q 2828 -72 2528 -72 
Q 2313 -72 2147 54 
Q 1981 181 1941 391 
Q 1528 -72 1113 -72 
z
M 1119 97 
Q 1350 97 1567 270 
Q 1784 444 1941 678 
Q 1947 684 1947 697 
L 2291 2088 
L 2297 2106 
Q 2259 2334 2132 2498 
Q 2006 2663 1791 2663 
Q 1575 2663 1389 2486 
Q 1203 2309 1075 2069 
Q 950 1813 836 1366 
Q 722 919 722 672 
Q 722 450 817 273 
Q 913 97 1119 97 
z
" transform="scale(0.015625)"/>
       <path id="Cmsy10-a1" d="M 653 1472 
Q 600 1472 565 1512 
Q 531 1553 531 1600 
Q 531 1647 565 1687 
Q 600 1728 653 1728 
L 4325 1728 
Q 4375 1728 4408 1687 
Q 4441 1647 4441 1600 
Q 4441 1553 4408 1512 
Q 4375 1472 4325 1472 
L 653 1472 
z
" transform="scale(0.015625)"/>
       <path id="Cmr10-31" d="M 594 0 
L 594 225 
Q 1394 225 1394 428 
L 1394 3788 
Q 1063 3628 556 3628 
L 556 3853 
Q 1341 3853 1741 4263 
L 1831 4263 
Q 1853 4263 1873 4245 
Q 1894 4228 1894 4206 
L 1894 428 
Q 1894 225 2694 225 
L 2694 0 
L 594 0 
z
" transform="scale(0.015625)"/>
       <path id="LibertinusSerif-Regular-29" d="M 1626 1613 
C 1626 1901 1600 3379 269 4531 
C 205 4518 154 4474 134 4422 
C 346 4179 1094 3296 1094 1613 
C 1094 -70 339 -954 134 -1184 
C 154 -1248 198 -1293 269 -1299 
C 1030 -646 1626 422 1626 1613 
z
" transform="scale(0.015625)"/>
      </defs>
      <use xlink:href="#LibertinusSerif-Regular-57" transform="translate(0 0.109375)"/>
      <use xlink:href="#LibertinusSerif-Regular-61" transform="translate(95.099991 0.109375)"/>
      <use xlink:href="#LibertinusSerif-Regular-76" transform="translate(140.799988 0.109375)"/>
      <use xlink:href="#LibertinusSerif-Regular-65" transform="translate(190.499985 0.109375)"/>
      <use xlink:href="#LibertinusSerif-Regular-6e" transform="translate(235.199982 0.109375)"/>
      <use xlink:href="#LibertinusSerif-Regular-75" transform="translate(289.399979 0.109375)"/>
      <use xlink:href="#LibertinusSerif-Regular-6d" transform="translate(342.499969 0.109375)"/>
      <use xlink:href="#LibertinusSerif-Regular-62" transform="translate(421.499954 0.109375)"/>
      <use xlink:href="#LibertinusSerif-Regular-65" transform="translate(470.799942 0.109375)"/>
      <use xlink:href="#LibertinusSerif-Regular-72" transform="translate(515.499939 0.109375)"/>
      <use xlink:href="#LibertinusSerif-Regular-20" transform="translate(552.699936 0.109375)"/>
      <use xlink:href="#Cmmi10-6b" transform="translate(577.699921 0.109375)"/>
      <use xlink:href="#LibertinusSerif-Regular-20" transform="translate(629.701874 0.109375)"/>
      <use xlink:href="#LibertinusSerif-Regular-28" transform="translate(654.701859 0.109375)"/>
      <use xlink:href="#LibertinusSerif-Regular-69" transform="translate(684.501846 0.109375)"/>
      <use xlink:href="#LibertinusSerif-Regular-6e" transform="translate(711.601837 0.109375)"/>
      <use xlink:href="#LibertinusSerif-Regular-20" transform="translate(765.801834 0.109375)"/>
      <use xlink:href="#LibertinusSerif-Regular-75" transform="translate(790.801819 0.109375)"/>
      <use xlink:href="#LibertinusSerif-Regular-6e" transform="translate(843.90181 0.109375)"/>
      <use xlink:href="#LibertinusSerif-Regular-69" transform="translate(898.101807 0.109375)"/>
      <use xlink:href="#LibertinusSerif-Regular-74" transform="translate(925.201797 0.109375)"/>
      <use xlink:href="#LibertinusSerif-Regular-73" transform="translate(956.801788 0.109375)"/>
      <use xlink:href="#LibertinusSerif-Regular-20" transform="translate(995.801773 0.109375)"/>
      <use xlink:href="#LibertinusSerif-Regular-6f" transform="translate(1020.801758 0.109375)"/>
      <use xlink:href="#LibertinusSerif-Regular-66" transform="translate(1071.201752 0.109375)"/>
      <use xlink:href="#LibertinusSerif-Regular-20" transform="translate(1102.201736 0.109375)"/>
      <use xlink:href="#Cmmi10-61" transform="translate(1127.201721 0.109375)"/>
      <use xlink:href="#Cmsy10-a1" transform="translate(1186.288206 38.373438)scale(0.7)"/>
      <use xlink:href="#Cmr10-31" transform="translate(1240.668088 38.373438)scale(0.7)"/>
      <use xlink:href="#LibertinusSerif-Regular-29" transform="translate(1282.045432 0.109375)"/>
     </g>
    </g>
   </g>
   <g id="matplotlib.axis_2">
    <g id="ytick_1">
     <g id="line2d_8">
      <defs>
       <path id="mcce713428d" d="M 0 0 
L -3.5 0 
" style="stroke: #000000; stroke-width: 0.8"/>
      </defs>
      <g>
       <use xlink:href="#mcce713428d" x="64.97" y="279.024673" style="stroke: #000000; stroke-width: 0.8"/>
      </g>
     </g>
     <g id="text_9">
      <!-- 0.00 -->
      <g transform="translate(35.36 283.910455)scale(0.14 -0.14)">
       <defs>
        <path id="LibertinusSerif-Regular-2e" d="M 365 275 
C 365 90 518 -64 704 -64 
C 890 -64 1043 90 1043 275 
C 1043 461 890 614 704 614 
C 518 614 365 461 365 275 
z
" transform="scale(0.015625)"/>
       </defs>
       <use xlink:href="#LibertinusSerif-Regular-30"/>
       <use xlink:href="#LibertinusSerif-Regular-2e" x="46.499985"/>
       <use xlink:href="#LibertinusSerif-Regular-30" x="68.499969"/>
       <use xlink:href="#LibertinusSerif-Regular-30" x="114.999954"/>
      </g>
     </g>
    </g>
    <g id="ytick_2">
     <g id="line2d_9">
      <g>
       <use xlink:href="#mcce713428d" x="64.97" y="247.60745" style="stroke: #000000; stroke-width: 0.8"/>
      </g>
     </g>
     <g id="text_10">
      <!-- 0.25 -->
      <g transform="translate(35.36 252.493232)scale(0.14 -0.14)">
       <defs>
        <path id="LibertinusSerif-Regular-35" d="M 2042 1210 
C 2042 602 1722 154 1338 154 
C 1094 154 1011 314 915 442 
C 832 550 723 646 589 646 
C 467 646 346 538 346 410 
C 346 147 890 -70 1254 -70 
C 2048 -70 2611 518 2611 1325 
C 2611 1946 2182 2502 1466 2502 
C 1190 2502 954 2445 838 2400 
L 966 3469 
C 1203 3443 1408 3411 1715 3411 
C 1907 3411 2125 3424 2387 3450 
L 2490 3885 
L 2445 3910 
C 2080 3872 1734 3840 1395 3840 
C 1158 3840 928 3853 704 3872 
L 486 2029 
C 826 2157 1069 2182 1299 2182 
C 1715 2182 2042 1907 2042 1210 
z
" transform="scale(0.015625)"/>
       </defs>
       <use xlink:href="#LibertinusSerif-Regular-30"/>
       <use xlink:href="#LibertinusSerif-Regular-2e" x="46.499985"/>
       <use xlink:href="#LibertinusSerif-Regular-32" x="68.499969"/>
       <use xlink:href="#LibertinusSerif-Regular-35" x="114.999954"/>
      </g>
     </g>
    </g>
    <g id="ytick_3">
     <g id="line2d_10">
      <g>
       <use xlink:href="#mcce713428d" x="64.97" y="216.190227" style="stroke: #000000; stroke-width: 0.8"/>
      </g>
     </g>
     <g id="text_11">
      <!-- 0.50 -->
      <g transform="translate(35.36 221.076009)scale(0.14 -0.14)">
       <use xlink:href="#LibertinusSerif-Regular-30"/>
       <use xlink:href="#LibertinusSerif-Regular-2e" x="46.499985"/>
       <use xlink:href="#LibertinusSerif-Regular-35" x="68.499969"/>
       <use xlink:href="#LibertinusSerif-Regular-30" x="114.999954"/>
      </g>
     </g>
    </g>
    <g id="ytick_4">
     <g id="line2d_11">
      <g>
       <use xlink:href="#mcce713428d" x="64.97" y="184.773004" style="stroke: #000000; stroke-width: 0.8"/>
      </g>
     </g>
     <g id="text_12">
      <!-- 0.75 -->
      <g transform="translate(35.36 189.658786)scale(0.14 -0.14)">
       <defs>
        <path id="LibertinusSerif-Regular-37" d="M 1088 3424 
L 2234 3424 
C 1734 2182 1229 934 794 -38 
L 845 -83 
L 1280 -64 
C 1645 1024 1997 2086 2714 3834 
L 2611 3910 
C 2502 3878 2362 3840 2118 3840 
L 800 3840 
C 582 3840 595 3904 480 3930 
C 461 3930 454 3930 454 3910 
C 448 3603 378 3219 326 2886 
C 397 2867 461 2861 531 2867 
C 672 3379 883 3424 1088 3424 
z
" transform="scale(0.015625)"/>
       </defs>
       <use xlink:href="#LibertinusSerif-Regular-30"/>
       <use xlink:href="#LibertinusSerif-Regular-2e" x="46.499985"/>
       <use xlink:href="#LibertinusSerif-Regular-37" x="68.499969"/>
       <use xlink:href="#LibertinusSerif-Regular-35" x="114.999954"/>
      </g>
     </g>
    </g>
    <g id="ytick_5">
     <g id="line2d_12">
      <g>
       <use xlink:href="#mcce713428d" x="64.97" y="153.355781" style="stroke: #000000; stroke-width: 0.8"/>
      </g>
     </g>
     <g id="text_13">
      <!-- 1.00 -->
      <g transform="translate(35.36 158.241562)scale(0.14 -0.14)">
       <use xlink:href="#LibertinusSerif-Regular-31"/>
       <use xlink:href="#LibertinusSerif-Regular-2e" x="46.499985"/>
       <use xlink:href="#LibertinusSerif-Regular-30" x="68.499969"/>
       <use xlink:href="#LibertinusSerif-Regular-30" x="114.999954"/>
      </g>
     </g>
    </g>
    <g id="ytick_6">
     <g id="line2d_13">
      <g>
       <use xlink:href="#mcce713428d" x="64.97" y="121.938558" style="stroke: #000000; stroke-width: 0.8"/>
      </g>
     </g>
     <g id="text_14">
      <!-- 1.25 -->
      <g transform="translate(35.36 126.824339)scale(0.14 -0.14)">
       <use xlink:href="#LibertinusSerif-Regular-31"/>
       <use xlink:href="#LibertinusSerif-Regular-2e" x="46.499985"/>
       <use xlink:href="#LibertinusSerif-Regular-32" x="68.499969"/>
       <use xlink:href="#LibertinusSerif-Regular-35" x="114.999954"/>
      </g>
     </g>
    </g>
    <g id="ytick_7">
     <g id="line2d_14">
      <g>
       <use xlink:href="#mcce713428d" x="64.97" y="90.521335" style="stroke: #000000; stroke-width: 0.8"/>
      </g>
     </g>
     <g id="text_15">
      <!-- 1.50 -->
      <g transform="translate(35.36 95.407116)scale(0.14 -0.14)">
       <use xlink:href="#LibertinusSerif-Regular-31"/>
       <use xlink:href="#LibertinusSerif-Regular-2e" x="46.499985"/>
       <use xlink:href="#LibertinusSerif-Regular-35" x="68.499969"/>
       <use xlink:href="#LibertinusSerif-Regular-30" x="114.999954"/>
      </g>
     </g>
    </g>
    <g id="ytick_8">
     <g id="line2d_15">
      <g>
       <use xlink:href="#mcce713428d" x="64.97" y="59.104112" style="stroke: #000000; stroke-width: 0.8"/>
      </g>
     </g>
     <g id="text_16">
      <!-- 1.75 -->
      <g transform="translate(35.36 63.989893)scale(0.14 -0.14)">
       <use xlink:href="#LibertinusSerif-Regular-31"/>
       <use xlink:href="#LibertinusSerif-Regular-2e" x="46.499985"/>
       <use xlink:href="#LibertinusSerif-Regular-37" x="68.499969"/>
       <use xlink:href="#LibertinusSerif-Regular-35" x="114.999954"/>
      </g>
     </g>
    </g>
    <g id="ytick_9">
     <g id="line2d_16">
      <g>
       <use xlink:href="#mcce713428d" x="64.97" y="27.686889" style="stroke: #000000; stroke-width: 0.8"/>
      </g>
     </g>
     <g id="text_17">
      <!-- 2.00 -->
      <g transform="translate(35.36 32.57267)scale(0.14 -0.14)">
       <use xlink:href="#LibertinusSerif-Regular-32"/>
       <use xlink:href="#LibertinusSerif-Regular-2e" x="46.499985"/>
       <use xlink:href="#LibertinusSerif-Regular-30" x="68.499969"/>
       <use xlink:href="#LibertinusSerif-Regular-30" x="114.999954"/>
      </g>
     </g>
    </g>
    <g id="text_18">
     <!-- Frequency $\omega$, in units of $(\kappa/m)^{1/2}$ -->
     <g transform="translate(27.86 250.865781)rotate(-90)scale(0.14 -0.14)">
      <defs>
       <path id="LibertinusSerif-Regular-46" d="M 1811 2067 
C 2355 2067 2374 1920 2394 1632 
C 2432 1594 2566 1594 2605 1632 
C 2598 1792 2592 1978 2592 2195 
C 2592 2413 2598 2579 2605 2746 
C 2566 2784 2432 2784 2394 2746 
C 2374 2394 2355 2310 1811 2310 
L 1216 2310 
L 1216 3462 
C 1216 3808 1293 3872 1574 3872 
L 1862 3872 
C 2541 3872 2701 3616 2842 3174 
C 2918 3174 2989 3187 3040 3206 
C 3008 3469 2912 4083 2899 4134 
C 2899 4147 2893 4154 2874 4154 
C 2765 4134 2733 4128 2573 4128 
L 941 4128 
C 736 4128 371 4134 115 4141 
C 77 4102 77 3968 115 3930 
C 563 3910 672 3878 672 3347 
L 672 781 
C 672 250 563 218 115 198 
C 77 160 77 26 115 -13 
C 339 -6 659 0 947 0 
C 1235 0 1549 -6 1773 -13 
C 1811 26 1811 160 1773 198 
C 1325 218 1216 250 1216 781 
L 1216 2067 
L 1811 2067 
z
" transform="scale(0.015625)"/>
       <path id="LibertinusSerif-Regular-71" d="M 2214 -710 
C 2214 -1242 2144 -1267 1754 -1286 
C 1715 -1325 1715 -1459 1754 -1498 
C 1978 -1491 2214 -1485 2470 -1485 
C 2726 -1485 2970 -1491 3181 -1498 
C 3219 -1459 3219 -1325 3181 -1286 
C 2790 -1267 2720 -1242 2720 -710 
L 2720 2669 
C 2720 2758 2694 2829 2624 2829 
C 2579 2829 2541 2778 2490 2707 
C 2406 2592 2381 2573 2304 2624 
C 2099 2752 1850 2810 1581 2810 
C 800 2810 224 2170 224 1325 
C 224 730 627 -64 1549 -64 
C 1722 -64 1933 -26 2042 38 
C 2189 122 2214 134 2214 0 
L 2214 -710 
z
M 2061 2355 
C 2189 2214 2214 2118 2214 1965 
L 2214 493 
C 2214 378 2208 346 2125 301 
C 1978 224 1805 218 1702 218 
C 1331 218 774 486 774 1453 
C 774 2118 1043 2592 1555 2592 
C 1747 2592 1920 2515 2061 2355 
z
" transform="scale(0.015625)"/>
       <path id="LibertinusSerif-Regular-63" d="M 2547 582 
C 2522 640 2470 666 2413 672 
C 2195 390 1920 250 1645 250 
C 1178 250 787 723 787 1472 
C 787 2176 1094 2598 1517 2598 
C 1894 2598 1946 2374 1971 2150 
C 1990 1978 2080 1920 2214 1920 
C 2349 1920 2528 2003 2528 2202 
C 2528 2554 2163 2810 1549 2810 
C 915 2810 237 2240 237 1331 
C 237 506 698 -64 1504 -64 
C 1888 -64 2227 58 2547 582 
z
" transform="scale(0.015625)"/>
       <path id="LibertinusSerif-Regular-79" d="M 1306 -1024 
C 1408 -845 1491 -666 1568 -474 
C 2080 762 2368 1421 2701 2138 
C 2829 2406 2918 2509 3219 2547 
C 3258 2586 3258 2720 3219 2758 
C 3091 2752 2944 2746 2765 2746 
C 2573 2746 2374 2752 2182 2758 
C 2144 2720 2144 2586 2182 2547 
C 2387 2528 2592 2490 2490 2259 
L 1856 794 
C 1811 691 1754 672 1702 800 
L 1133 2131 
C 1018 2400 986 2522 1344 2547 
C 1382 2586 1382 2720 1344 2758 
C 1107 2752 851 2746 621 2746 
C 403 2746 230 2752 102 2758 
C 64 2720 64 2586 102 2547 
C 358 2515 442 2458 608 2067 
L 1331 384 
C 1389 256 1485 -38 1421 -218 
C 1344 -429 1267 -608 1171 -806 
C 1101 -934 1011 -992 851 -992 
C 762 -992 736 -973 666 -973 
C 480 -973 384 -1165 384 -1248 
C 384 -1382 512 -1485 685 -1485 
C 819 -1485 1075 -1434 1306 -1024 
z
" transform="scale(0.015625)"/>
       <path id="Cmmi10-21" d="M 775 -72 
Q 413 -72 252 193 
Q 91 459 91 844 
Q 91 1097 136 1339 
Q 181 1581 273 1829 
Q 366 2078 484 2295 
Q 603 2513 750 2719 
Q 778 2759 825 2759 
Q 866 2759 891 2734 
Q 916 2709 916 2675 
Q 916 2641 897 2613 
Q 313 1809 313 1131 
Q 313 838 448 627 
Q 584 416 863 416 
Q 1103 416 1308 556 
Q 1513 697 1663 916 
Q 1663 1028 1702 1265 
Q 1741 1503 1823 1689 
Q 1906 1875 2022 1875 
Q 2169 1875 2169 1703 
Q 2169 1603 2126 1451 
Q 2084 1300 2032 1169 
Q 1981 1038 1906 872 
Q 1981 416 2363 416 
Q 2584 416 2807 544 
Q 3031 672 3203 880 
Q 3375 1088 3473 1328 
Q 3572 1569 3572 1784 
Q 3572 1978 3511 2086 
Q 3450 2194 3350 2312 
Q 3250 2431 3250 2503 
Q 3250 2628 3356 2731 
Q 3463 2834 3584 2834 
Q 3741 2834 3806 2692 
Q 3872 2550 3872 2369 
Q 3872 2075 3755 1628 
Q 3638 1181 3488 884 
Q 3281 481 2970 204 
Q 2659 -72 2272 -72 
Q 2025 -72 1873 76 
Q 1722 225 1678 481 
Q 1500 228 1272 78 
Q 1044 -72 775 -72 
z
" transform="scale(0.015625)"/>
       <path id="LibertinusSerif-Regular-2c" d="M 666 608 
C 467 608 326 474 326 294 
C 326 96 493 32 608 13 
C 730 0 838 -38 838 -186 
C 838 -320 608 -614 275 -698 
C 275 -762 288 -806 333 -851 
C 717 -781 1088 -474 1088 -26 
C 1088 358 922 608 666 608 
z
" transform="scale(0.015625)"/>
       <path id="Cmr10-28" d="M 1984 -1588 
Q 1628 -1306 1370 -942 
Q 1113 -578 948 -165 
Q 784 247 703 697 
Q 622 1147 622 1600 
Q 622 2059 703 2509 
Q 784 2959 951 3375 
Q 1119 3791 1378 4153 
Q 1638 4516 1984 4788 
Q 1984 4800 2016 4800 
L 2075 4800 
Q 2094 4800 2109 4783 
Q 2125 4766 2125 4744 
Q 2125 4716 2113 4703 
Q 1800 4397 1592 4047 
Q 1384 3697 1257 3301 
Q 1131 2906 1075 2482 
Q 1019 2059 1019 1600 
Q 1019 -434 2106 -1491 
Q 2125 -1509 2125 -1544 
Q 2125 -1559 2108 -1579 
Q 2091 -1600 2075 -1600 
L 2016 -1600 
Q 1984 -1600 1984 -1588 
z
" transform="scale(0.015625)"/>
       <path id="Cmmi10-2219" d="M 341 109 
Q 341 147 347 166 
L 959 2625 
Q 984 2716 1059 2772 
Q 1134 2828 1228 2828 
Q 1309 2828 1365 2779 
Q 1422 2731 1422 2650 
Q 1422 2631 1420 2620 
Q 1419 2609 1416 2597 
L 1184 1672 
Q 1441 1756 1866 2111 
Q 2291 2466 2508 2612 
Q 2725 2759 3041 2759 
Q 3144 2759 3214 2695 
Q 3284 2631 3284 2522 
Q 3284 2372 3176 2267 
Q 3069 2163 2919 2163 
Q 2816 2163 2745 2230 
Q 2675 2297 2675 2400 
Q 2675 2472 2700 2522 
Q 2547 2459 2386 2346 
Q 2225 2234 2094 2120 
Q 1963 2006 1778 1853 
Q 1594 1700 1447 1619 
Q 1709 1619 1984 1562 
Q 2259 1506 2461 1356 
Q 2663 1206 2663 947 
Q 2663 844 2638 769 
Q 2578 513 2578 384 
Q 2578 97 2778 97 
Q 3006 97 3128 350 
Q 3250 603 3328 941 
Q 3341 978 3378 978 
L 3456 978 
Q 3481 978 3497 961 
Q 3513 944 3513 922 
Q 3513 916 3506 903 
Q 3272 -72 2766 -72 
Q 2584 -72 2445 12 
Q 2306 97 2231 242 
Q 2156 388 2156 569 
Q 2156 684 2181 781 
Q 2203 869 2203 928 
Q 2203 1134 2020 1253 
Q 1838 1372 1589 1415 
Q 1341 1459 1125 1459 
L 800 141 
Q 778 53 701 -9 
Q 625 -72 531 -72 
Q 453 -72 397 -22 
Q 341 28 341 109 
z
" transform="scale(0.015625)"/>
       <path id="Cmmi10-3d" d="M 359 -1472 
Q 359 -1453 366 -1447 
L 2591 4722 
Q 2603 4759 2634 4779 
Q 2666 4800 2706 4800 
Q 2763 4800 2798 4765 
Q 2834 4731 2834 4672 
L 2834 4647 
L 609 -1522 
Q 572 -1600 488 -1600 
Q 434 -1600 396 -1562 
Q 359 -1525 359 -1472 
z
" transform="scale(0.015625)"/>
       <path id="Cmmi10-6d" d="M 494 109 
Q 494 147 500 166 
L 978 2075 
Q 1025 2253 1025 2388 
Q 1025 2663 838 2663 
Q 638 2663 541 2423 
Q 444 2184 353 1819 
Q 353 1800 334 1789 
Q 316 1778 300 1778 
L 225 1778 
Q 203 1778 187 1801 
Q 172 1825 172 1844 
Q 241 2122 305 2315 
Q 369 2509 505 2668 
Q 641 2828 844 2828 
Q 1084 2828 1268 2676 
Q 1453 2525 1453 2291 
Q 1644 2541 1900 2684 
Q 2156 2828 2444 2828 
Q 2747 2828 2967 2673 
Q 3188 2519 3188 2234 
Q 3384 2513 3648 2670 
Q 3913 2828 4225 2828 
Q 4556 2828 4757 2648 
Q 4959 2469 4959 2138 
Q 4959 1875 4842 1503 
Q 4725 1131 4550 672 
Q 4459 450 4459 288 
Q 4459 97 4609 97 
Q 4859 97 5025 365 
Q 5191 634 5259 941 
Q 5278 978 5313 978 
L 5388 978 
Q 5413 978 5430 961 
Q 5447 944 5447 922 
Q 5447 916 5441 903 
Q 5353 541 5136 234 
Q 4919 -72 4594 -72 
Q 4369 -72 4209 83 
Q 4050 238 4050 459 
Q 4050 572 4103 709 
Q 4284 1191 4404 1569 
Q 4525 1947 4525 2234 
Q 4525 2413 4453 2538 
Q 4381 2663 4213 2663 
Q 3863 2663 3606 2448 
Q 3350 2234 3163 1881 
Q 3150 1819 3144 1784 
L 2731 141 
Q 2709 53 2632 -9 
Q 2556 -72 2463 -72 
Q 2388 -72 2330 -22 
Q 2272 28 2272 109 
Q 2272 147 2278 166 
L 2688 1797 
Q 2753 2059 2753 2234 
Q 2753 2413 2679 2538 
Q 2606 2663 2431 2663 
Q 2197 2663 2000 2559 
Q 1803 2456 1656 2286 
Q 1509 2116 1388 1881 
L 953 141 
Q 931 53 854 -9 
Q 778 -72 684 -72 
Q 606 -72 550 -22 
Q 494 28 494 109 
z
" transform="scale(0.015625)"/>
       <path id="Cmr10-29" d="M 416 -1600 
Q 359 -1600 359 -1544 
Q 359 -1516 372 -1503 
Q 1466 -434 1466 1600 
Q 1466 3634 384 4691 
Q 359 4706 359 4744 
Q 359 4766 376 4783 
Q 394 4800 416 4800 
L 475 4800 
Q 494 4800 506 4788 
Q 966 4425 1272 3906 
Q 1578 3388 1720 2800 
Q 1863 2213 1863 1600 
Q 1863 1147 1786 708 
Q 1709 269 1542 -157 
Q 1375 -584 1119 -945 
Q 863 -1306 506 -1588 
Q 494 -1600 475 -1600 
L 416 -1600 
z
" transform="scale(0.015625)"/>
       <path id="Cmr10-32" d="M 319 0 
L 319 172 
Q 319 188 331 206 
L 1325 1306 
Q 1550 1550 1690 1715 
Q 1831 1881 1968 2097 
Q 2106 2313 2186 2536 
Q 2266 2759 2266 3009 
Q 2266 3272 2169 3511 
Q 2072 3750 1880 3894 
Q 1688 4038 1416 4038 
Q 1138 4038 916 3870 
Q 694 3703 603 3438 
Q 628 3444 672 3444 
Q 816 3444 917 3347 
Q 1019 3250 1019 3097 
Q 1019 2950 917 2848 
Q 816 2747 672 2747 
Q 522 2747 420 2851 
Q 319 2956 319 3097 
Q 319 3338 409 3548 
Q 500 3759 670 3923 
Q 841 4088 1055 4175 
Q 1269 4263 1509 4263 
Q 1875 4263 2190 4108 
Q 2506 3953 2690 3670 
Q 2875 3388 2875 3009 
Q 2875 2731 2753 2481 
Q 2631 2231 2440 2026 
Q 2250 1822 1953 1562 
Q 1656 1303 1563 1216 
L 838 519 
L 1453 519 
Q 1906 519 2211 526 
Q 2516 534 2534 550 
Q 2609 631 2688 1141 
L 2875 1141 
L 2694 0 
L 319 0 
z
" transform="scale(0.015625)"/>
      </defs>
      <use xlink:href="#LibertinusSerif-Regular-46" transform="translate(0 0.235938)"/>
      <use xlink:href="#LibertinusSerif-Regular-72" transform="translate(48.499985 0.235938)"/>
      <use xlink:href="#LibertinusSerif-Regular-65" transform="translate(85.699982 0.235938)"/>
      <use xlink:href="#LibertinusSerif-Regular-71" transform="translate(130.399979 0.235938)"/>
      <use xlink:href="#LibertinusSerif-Regular-75" transform="translate(180.699966 0.235938)"/>
      <use xlink:href="#LibertinusSerif-Regular-65" transform="translate(233.799957 0.235938)"/>
      <use xlink:href="#LibertinusSerif-Regular-6e" transform="translate(278.499954 0.235938)"/>
      <use xlink:href="#LibertinusSerif-Regular-63" transform="translate(332.699951 0.235938)"/>
      <use xlink:href="#LibertinusSerif-Regular-79" transform="translate(375.499939 0.235938)"/>
      <use xlink:href="#LibertinusSerif-Regular-20" transform="translate(426.999924 0.235938)"/>
      <use xlink:href="#Cmmi10-21" transform="translate(451.999908 0.235938)"/>
      <use xlink:href="#LibertinusSerif-Regular-2c" transform="translate(514.20694 0.235938)"/>
      <use xlink:href="#LibertinusSerif-Regular-20" transform="translate(536.206924 0.235938)"/>
      <use xlink:href="#LibertinusSerif-Regular-69" transform="translate(561.206909 0.235938)"/>
      <use xlink:href="#LibertinusSerif-Regular-6e" transform="translate(588.3069 0.235938)"/>
      <use xlink:href="#LibertinusSerif-Regular-20" transform="translate(642.506897 0.235938)"/>
      <use xlink:href="#LibertinusSerif-Regular-75" transform="translate(667.506882 0.235938)"/>
      <use xlink:href="#LibertinusSerif-Regular-6e" transform="translate(720.606873 0.235938)"/>
      <use xlink:href="#LibertinusSerif-Regular-69" transform="translate(774.80687 0.235938)"/>
      <use xlink:href="#LibertinusSerif-Regular-74" transform="translate(801.90686 0.235938)"/>
      <use xlink:href="#LibertinusSerif-Regular-73" transform="translate(833.506851 0.235938)"/>
      <use xlink:href="#LibertinusSerif-Regular-20" transform="translate(872.506836 0.235938)"/>
      <use xlink:href="#LibertinusSerif-Regular-6f" transform="translate(897.506821 0.235938)"/>
      <use xlink:href="#LibertinusSerif-Regular-66" transform="translate(947.906815 0.235938)"/>
      <use xlink:href="#LibertinusSerif-Regular-20" transform="translate(978.906799 0.235938)"/>
      <use xlink:href="#Cmr10-28" transform="translate(1003.906784 0.235938)"/>
      <use xlink:href="#Cmmi10-2219" transform="translate(1042.725143 0.235938)"/>
      <use xlink:href="#Cmmi10-3d" transform="translate(1100.342331 0.235938)"/>
      <use xlink:href="#Cmmi10-6d" transform="translate(1150.342331 0.235938)"/>
      <use xlink:href="#Cmr10-29" transform="translate(1238.1353 0.235938)"/>
      <use xlink:href="#Cmr10-31" transform="translate(1281.4178 38.5)scale(0.7)"/>
      <use xlink:href="#Cmmi10-3d" transform="translate(1316.4178 38.5)scale(0.7)"/>
      <use xlink:href="#Cmr10-32" transform="translate(1351.4178 38.5)scale(0.7)"/>
     </g>
    </g>
   </g>
   <g id="line2d_17">
    <path d="M 82.275 27.686889 
L 85.0438 27.766264 
L 87.8126 28.00434 
L 90.5814 28.400965 
L 93.3502 28.955889 
L 96.119 29.668763 
L 98.8878 30.539135 
L 103.041 32.138772 
L 107.1942 34.089249 
L 111.3474 36.387791 
L 115.5006 39.031135 
L 119.6538 42.015522 
L 123.807 45.336712 
L 127.9602 48.989985 
L 132.1134 52.97015 
L 136.2666 57.271552 
L 140.4198 61.888076 
L 144.573 66.813163 
L 148.7262 72.039815 
L 152.8794 77.560604 
L 158.417 85.365582 
L 163.9546 93.659761 
L 169.4922 102.422187 
L 175.0298 111.630726 
L 180.5674 121.262117 
L 186.105 131.29203 
L 193.027 144.351154 
L 199.949 157.941772 
L 206.871 172.01025 
L 215.1774 189.444901 
L 223.4838 207.388563 
L 233.1746 228.830009 
L 245.6342 256.944348 
L 255.325 279.024673 
L 274.7066 235.034765 
L 285.7818 210.421539 
L 295.4726 189.444901 
L 303.779 172.01025 
L 310.701 157.941772 
L 317.623 144.351154 
L 324.545 131.29203 
L 330.0826 121.262117 
L 335.6202 111.630726 
L 341.1578 102.422187 
L 346.6954 93.659761 
L 352.233 85.365582 
L 357.7706 77.560604 
L 361.9238 72.039815 
L 366.077 66.813163 
L 370.2302 61.888076 
L 374.3834 57.271552 
L 378.5366 52.97015 
L 382.6898 48.989985 
L 386.843 45.336712 
L 390.9962 42.015522 
L 395.1494 39.031135 
L 399.3026 36.387791 
L 403.4558 34.089249 
L 407.609 32.138772 
L 411.7622 30.539135 
L 414.531 29.668763 
L 417.2998 28.955889 
L 420.0686 28.400965 
L 422.8374 28.00434 
L 425.6062 27.766264 
L 428.375 27.686889 
L 428.375 27.686889 
" clip-path="url(#pcdfb966f9a)" style="fill: none; stroke: #1f77b4; stroke-width: 1.5; stroke-linecap: square"/>
   </g>
   <g id="patch_3">
    <path d="M 64.97 291.591563 
L 64.97 15.12 
" style="fill: none; stroke: #000000; stroke-width: 0.8; stroke-linejoin: miter; stroke-linecap: square"/>
   </g>
   <g id="patch_4">
    <path d="M 445.68 291.591563 
L 445.68 15.12 
" style="fill: none; stroke: #000000; stroke-width: 0.8; stroke-linejoin: miter; stroke-linecap: square"/>
   </g>
   <g id="patch_5">
    <path d="M 64.97 291.591563 
L 445.68 291.591563 
" style="fill: none; stroke: #000000; stroke-width: 0.8; stroke-linejoin: miter; stroke-linecap: square"/>
   </g>
   <g id="patch_6">
    <path d="M 64.97 15.12 
L 445.68 15.12 
" style="fill: none; stroke: #000000; stroke-width: 0.8; stroke-linejoin: miter; stroke-linecap: square"/>
   </g>
  </g>
 </g>
 <defs>
  <clipPath id="pcdfb966f9a">
   <rect x="64.97" y="15.12" width="380.71" height="276.471563"/>
  </clipPath>
 </defs>
</svg>
