<?xml version="1.0" encoding="utf-8" standalone="no"?>
<!DOCTYPE svg PUBLIC "-//W3C//DTD SVG 1.1//EN"
  "http://www.w3.org/Graphics/SVG/1.1/DTD/svg11.dtd">
<svg xmlns:xlink="http://www.w3.org/1999/xlink" width="460.8pt" height="345.6pt" viewBox="0 0 460.8 345.6" xmlns="http://www.w3.org/2000/svg" version="1.1">
 <metadata>
  <rdf:RDF xmlns:dc="http://purl.org/dc/elements/1.1/" xmlns:cc="http://creativecommons.org/ns#" xmlns:rdf="http://www.w3.org/1999/02/22-rdf-syntax-ns#">
   <cc:Work>
    <dc:type rdf:resource="http://purl.org/dc/dcmitype/StillImage"/>
    <dc:date>2022-06-26T19:41:36.005724</dc:date>
    <dc:format>image/svg+xml</dc:format>
    <dc:creator>
     <cc:Agent>
      <dc:title>Matplotlib v3.5.2, https://matplotlib.org/</dc:title>
     </cc:Agent>
    </dc:creator>
   </cc:Work>
  </rdf:RDF>
 </metadata>
 <defs>
  <style type="text/css">*{stroke-linejoin: round; stroke-linecap: butt}</style>
 </defs>
 <g id="figure_1">
  <g id="patch_1">
   <path d="M 0 345.6 
L 460.8 345.6 
L 460.8 0 
L 0 0 
L 0 345.6 
z
" style="fill: none"/>
  </g>
  <g id="axes_1">
   <g id="patch_2">
    <path d="M 58.46 291.591563 
L 445.68 291.591563 
L 445.68 15.12 
L 58.46 15.12 
L 58.46 291.591563 
z
" style="fill: none"/>
   </g>
   <g id="matplotlib.axis_1">
    <g id="xtick_1">
     <g id="line2d_1">
      <defs>
       <path id="md5a367928d" d="M 0 0 
L 0 3.5 
" style="stroke: #000000; stroke-width: 0.8"/>
      </defs>
      <g>
       <use xlink:href="#md5a367928d" x="83.993699" y="291.591563" style="stroke: #000000; stroke-width: 0.8"/>
      </g>
     </g>
     <g id="text_1">
      <!-- −6 -->
      <g transform="translate(76.888699 308.363125)scale(0.14 -0.14)">
       <defs>
        <path id="LibertinusSerif-Regular-2212" d="M 2963 1446 
C 3046 1446 3136 1594 3136 1658 
C 3136 1709 3110 1766 3046 1766 
L 544 1766 
C 467 1766 384 1645 384 1549 
C 384 1498 422 1446 480 1446 
L 2963 1446 
z
" transform="scale(0.015625)"/>
        <path id="LibertinusSerif-Regular-36" d="M 922 2195 
C 1094 2778 1504 3424 2355 3744 
C 2355 3821 2330 3878 2278 3910 
C 1632 3718 1235 3450 877 3034 
C 480 2573 282 1990 282 1485 
C 282 186 1018 -70 1510 -70 
C 2349 -70 2694 742 2694 1293 
C 2694 1843 2400 2336 1530 2336 
C 1363 2336 1114 2285 922 2195 
z
M 864 1965 
C 1075 2106 1286 2112 1395 2112 
C 2022 2112 2163 1498 2163 1178 
C 2163 474 1894 154 1581 154 
C 1178 154 813 371 813 1466 
C 813 1613 826 1779 864 1965 
z
" transform="scale(0.015625)"/>
       </defs>
       <use xlink:href="#LibertinusSerif-Regular-2212"/>
       <use xlink:href="#LibertinusSerif-Regular-36" x="54.999985"/>
      </g>
     </g>
    </g>
    <g id="xtick_2">
     <g id="line2d_2">
      <g>
       <use xlink:href="#md5a367928d" x="140.019133" y="291.591563" style="stroke: #000000; stroke-width: 0.8"/>
      </g>
     </g>
     <g id="text_2">
      <!-- −4 -->
      <g transform="translate(132.914133 308.363125)scale(0.14 -0.14)">
       <defs>
        <path id="LibertinusSerif-Regular-34" d="M 2752 1402 
L 2221 1402 
L 2221 3270 
C 2221 3590 2221 3840 2234 3891 
L 2221 3904 
L 2016 3904 
C 1971 3904 1939 3866 1914 3834 
C 1510 3341 768 2285 179 1370 
C 198 1274 237 1101 429 1101 
L 1734 1101 
L 1734 512 
C 1734 218 1491 218 1216 198 
C 1178 160 1178 26 1216 -13 
C 1421 -6 1677 0 1971 0 
C 2221 0 2464 -6 2669 -13 
C 2707 26 2707 160 2669 198 
C 2355 224 2221 211 2221 512 
L 2221 1101 
L 2662 1101 
C 2752 1101 2848 1222 2848 1299 
C 2848 1363 2822 1402 2752 1402 
z
M 1734 3245 
L 1734 1402 
L 512 1402 
C 838 1926 1293 2643 1734 3245 
z
" transform="scale(0.015625)"/>
       </defs>
       <use xlink:href="#LibertinusSerif-Regular-2212"/>
       <use xlink:href="#LibertinusSerif-Regular-34" x="54.999985"/>
      </g>
     </g>
    </g>
    <g id="xtick_3">
     <g id="line2d_3">
      <g>
       <use xlink:href="#md5a367928d" x="196.044566" y="291.591563" style="stroke: #000000; stroke-width: 0.8"/>
      </g>
     </g>
     <g id="text_3">
      <!-- −2 -->
      <g transform="translate(188.939566 308.363125)scale(0.14 -0.14)">
       <defs>
        <path id="LibertinusSerif-Regular-32" d="M 390 2995 
C 390 2861 512 2746 646 2746 
C 755 2746 947 2861 947 3002 
C 947 3053 934 3091 922 3136 
C 909 3181 870 3238 870 3290 
C 870 3450 1037 3680 1504 3680 
C 1734 3680 2061 3520 2061 2906 
C 2061 2496 1914 2163 1536 1779 
L 1062 1312 
C 435 672 333 365 333 -13 
C 333 -13 659 0 864 0 
L 1984 0 
C 2189 0 2483 -13 2483 -13 
C 2566 326 2630 806 2637 998 
C 2598 1030 2515 1043 2451 1030 
C 2342 576 2234 416 2003 416 
L 864 416 
C 864 723 1306 1158 1338 1190 
L 1984 1811 
C 2349 2163 2624 2445 2624 2931 
C 2624 3622 2061 3904 1542 3904 
C 832 3904 390 3379 390 2995 
z
" transform="scale(0.015625)"/>
       </defs>
       <use xlink:href="#LibertinusSerif-Regular-2212"/>
       <use xlink:href="#LibertinusSerif-Regular-32" x="54.999985"/>
      </g>
     </g>
    </g>
    <g id="xtick_4">
     <g id="line2d_4">
      <g>
       <use xlink:href="#md5a367928d" x="252.07" y="291.591563" style="stroke: #000000; stroke-width: 0.8"/>
      </g>
     </g>
     <g id="text_4">
      <!-- 0 -->
      <g transform="translate(248.815 308.363125)scale(0.14 -0.14)">
       <defs>
        <path id="LibertinusSerif-Regular-30" d="M 1459 -64 
C 1952 -64 2701 435 2701 1939 
C 2701 2573 2547 3117 2266 3488 
C 2099 3712 1830 3904 1485 3904 
C 851 3904 250 3149 250 1882 
C 250 1197 461 557 813 205 
C 992 26 1210 -64 1459 -64 
z
M 1485 3680 
C 1594 3680 1696 3642 1773 3571 
C 1971 3405 2144 2918 2144 2061 
C 2144 1472 2125 1069 2035 742 
C 1894 218 1581 160 1466 160 
C 870 160 806 1254 806 1811 
C 806 3386 1197 3680 1485 3680 
z
" transform="scale(0.015625)"/>
       </defs>
       <use xlink:href="#LibertinusSerif-Regular-30"/>
      </g>
     </g>
    </g>
    <g id="xtick_5">
     <g id="line2d_5">
      <g>
       <use xlink:href="#md5a367928d" x="308.095434" y="291.591563" style="stroke: #000000; stroke-width: 0.8"/>
      </g>
     </g>
     <g id="text_5">
      <!-- 2 -->
      <g transform="translate(304.840434 308.363125)scale(0.14 -0.14)">
       <use xlink:href="#LibertinusSerif-Regular-32"/>
      </g>
     </g>
    </g>
    <g id="xtick_6">
     <g id="line2d_6">
      <g>
       <use xlink:href="#md5a367928d" x="364.120867" y="291.591563" style="stroke: #000000; stroke-width: 0.8"/>
      </g>
     </g>
     <g id="text_6">
      <!-- 4 -->
      <g transform="translate(360.865867 308.363125)scale(0.14 -0.14)">
       <use xlink:href="#LibertinusSerif-Regular-34"/>
      </g>
     </g>
    </g>
    <g id="xtick_7">
     <g id="line2d_7">
      <g>
       <use xlink:href="#md5a367928d" x="420.146301" y="291.591563" style="stroke: #000000; stroke-width: 0.8"/>
      </g>
     </g>
     <g id="text_7">
      <!-- 6 -->
      <g transform="translate(416.891301 308.363125)scale(0.14 -0.14)">
       <use xlink:href="#LibertinusSerif-Regular-36"/>
      </g>
     </g>
    </g>
    <g id="text_8">
     <!-- $k$ (in units of $a^{-1}$) -->
     <g transform="translate(200.62 327.203125)scale(0.14 -0.14)">
      <defs>
       <path id="Cmmi10-6b" d="M 341 116 
Q 341 153 347 172 
L 1275 3872 
Q 1300 3981 1306 4044 
Q 1306 4147 891 4147 
Q 825 4147 825 4231 
Q 828 4247 839 4287 
Q 850 4328 867 4350 
Q 884 4372 916 4372 
L 1778 4441 
L 1797 4441 
Q 1797 4434 1819 4423 
Q 1841 4413 1844 4409 
Q 1856 4378 1856 4359 
L 1184 1684 
Q 1416 1781 1767 2145 
Q 2119 2509 2317 2668 
Q 2516 2828 2816 2828 
Q 2994 2828 3119 2706 
Q 3244 2584 3244 2406 
Q 3244 2294 3197 2198 
Q 3150 2103 3065 2043 
Q 2981 1984 2869 1984 
Q 2766 1984 2695 2048 
Q 2625 2113 2625 2216 
Q 2625 2369 2733 2473 
Q 2841 2578 2994 2578 
Q 2931 2663 2803 2663 
Q 2613 2663 2436 2553 
Q 2259 2444 2054 2239 
Q 1850 2034 1681 1864 
Q 1513 1694 1369 1606 
Q 1747 1563 2025 1408 
Q 2303 1253 2303 934 
Q 2303 869 2278 769 
Q 2222 528 2222 384 
Q 2222 97 2419 97 
Q 2650 97 2770 350 
Q 2891 603 2969 941 
Q 2981 978 3022 978 
L 3097 978 
Q 3122 978 3139 962 
Q 3156 947 3156 922 
Q 3156 916 3150 903 
Q 2909 -72 2406 -72 
Q 2225 -72 2086 12 
Q 1947 97 1872 242 
Q 1797 388 1797 569 
Q 1797 672 1825 781 
Q 1844 856 1844 922 
Q 1844 1169 1625 1297 
Q 1406 1425 1125 1453 
L 800 147 
Q 775 50 703 -11 
Q 631 -72 538 -72 
Q 456 -72 398 -17 
Q 341 38 341 116 
z
" transform="scale(0.015625)"/>
       <path id="LibertinusSerif-Regular-20" transform="scale(0.015625)"/>
       <path id="LibertinusSerif-Regular-28" d="M 282 1613 
C 282 1325 307 -154 1638 -1306 
C 1702 -1293 1754 -1248 1773 -1197 
C 1562 -954 813 -70 813 1613 
C 813 3296 1568 4179 1773 4410 
C 1754 4474 1709 4518 1638 4525 
C 877 3872 282 2803 282 1613 
z
" transform="scale(0.015625)"/>
       <path id="LibertinusSerif-Regular-69" d="M 1158 781 
L 1158 2054 
C 1158 2374 1184 2784 1184 2784 
C 1184 2810 1152 2829 1101 2829 
C 922 2758 666 2701 224 2643 
C 211 2605 224 2502 237 2464 
C 589 2432 653 2394 653 2029 
L 653 781 
C 653 250 582 230 192 198 
C 154 160 154 26 192 -13 
C 403 -6 653 0 909 0 
C 1165 0 1408 -6 1619 -13 
C 1658 26 1658 160 1619 198 
C 1229 224 1158 250 1158 781 
z
M 576 3834 
C 576 3667 730 3501 883 3501 
C 1062 3501 1216 3674 1216 3808 
C 1216 3962 1082 4141 909 4141 
C 755 4141 576 3987 576 3834 
z
" transform="scale(0.015625)"/>
       <path id="LibertinusSerif-Regular-6e" d="M 1178 2291 
C 1139 2246 1101 2234 1101 2291 
C 1094 2464 1082 2714 1050 2778 
C 1037 2810 1024 2829 973 2829 
C 794 2758 627 2701 186 2643 
C 173 2605 186 2502 198 2464 
C 544 2432 614 2400 614 2029 
L 614 781 
C 614 256 550 230 166 198 
C 128 160 128 26 166 -13 
C 358 -6 614 0 870 0 
C 1126 0 1318 -6 1510 -13 
C 1549 26 1549 160 1510 198 
C 1184 230 1120 256 1120 781 
L 1120 1830 
C 1120 1965 1178 2042 1229 2099 
C 1472 2336 1760 2477 2010 2477 
C 2138 2477 2272 2394 2349 2246 
C 2413 2118 2426 1946 2426 1754 
L 2426 781 
C 2426 256 2362 230 2029 198 
C 1997 160 1997 26 2029 -13 
C 2221 -6 2426 0 2682 0 
C 2938 0 3168 -6 3360 -13 
C 3392 26 3392 160 3360 198 
C 3002 230 2931 256 2931 781 
L 2931 1734 
C 2931 2086 2906 2394 2758 2592 
C 2650 2733 2451 2810 2227 2810 
C 1914 2810 1555 2726 1178 2291 
z
" transform="scale(0.015625)"/>
       <path id="LibertinusSerif-Regular-75" d="M 1389 -64 
C 1638 -64 1939 64 2253 320 
C 2285 346 2342 358 2349 314 
C 2368 154 2419 -64 2419 -64 
C 2470 -83 2502 -77 2541 -64 
C 2682 51 2906 147 3296 192 
C 3334 230 3334 326 3296 365 
C 2886 397 2829 518 2829 832 
L 2829 2061 
C 2829 2253 2854 2720 2854 2720 
C 2854 2739 2835 2758 2803 2758 
C 2771 2752 2675 2746 2579 2746 
C 2374 2746 2144 2752 1926 2758 
C 1888 2720 1888 2586 1926 2547 
C 2240 2528 2323 2451 2323 2029 
L 2323 794 
C 2323 672 2310 621 2221 544 
C 1984 339 1741 237 1581 237 
C 1389 237 1069 326 1069 896 
L 1069 2061 
C 1069 2253 1094 2720 1094 2720 
C 1094 2739 1075 2758 1043 2758 
C 1011 2752 915 2746 819 2746 
C 614 2746 384 2752 166 2758 
C 128 2720 128 2586 166 2547 
C 474 2522 563 2451 563 2035 
L 563 806 
C 563 365 755 -64 1389 -64 
z
" transform="scale(0.015625)"/>
       <path id="LibertinusSerif-Regular-74" d="M 275 2746 
C 186 2746 160 2669 160 2618 
L 160 2534 
C 160 2502 166 2496 192 2496 
L 570 2496 
L 570 570 
C 570 115 768 -64 1062 -64 
C 1357 -64 1677 77 1926 358 
C 1914 422 1875 461 1811 467 
C 1645 339 1453 288 1286 288 
C 1114 288 1075 480 1075 877 
L 1075 2496 
L 1741 2496 
C 1805 2496 1894 2522 1894 2579 
L 1894 2707 
C 1894 2733 1875 2746 1843 2746 
L 1075 2746 
L 1075 2995 
C 1075 3411 1101 3667 1101 3667 
C 1101 3706 1082 3725 1050 3725 
C 1024 3725 966 3699 909 3667 
C 838 3629 774 3597 691 3578 
C 614 3552 550 3533 550 3488 
C 550 3411 570 3456 570 2746 
L 275 2746 
z
" transform="scale(0.015625)"/>
       <path id="LibertinusSerif-Regular-73" d="M 307 883 
C 333 570 352 269 352 0 
C 416 13 480 19 512 19 
C 557 19 595 19 640 6 
C 813 -38 986 -64 1222 -64 
C 1581 -64 2240 109 2240 742 
C 2240 1178 1926 1434 1491 1594 
C 1107 1741 851 1837 851 2189 
C 851 2451 1082 2598 1299 2598 
C 1440 2598 1811 2547 1894 2003 
C 1933 1965 2061 1971 2099 2010 
C 2118 2240 2131 2477 2138 2688 
C 1939 2720 1632 2810 1299 2810 
C 826 2810 397 2502 397 2093 
C 397 1626 608 1427 1101 1222 
C 1632 1005 1754 870 1754 595 
C 1754 282 1446 147 1210 147 
C 960 147 819 230 755 301 
C 614 448 544 730 506 890 
C 467 928 346 922 307 883 
z
" transform="scale(0.015625)"/>
       <path id="LibertinusSerif-Regular-6f" d="M 262 1312 
C 262 659 698 -64 1606 -64 
C 2016 -64 2330 83 2547 294 
C 2835 576 2963 979 2963 1370 
C 2963 2035 2598 2810 1619 2810 
C 1197 2810 851 2637 614 2362 
C 384 2086 262 1715 262 1312 
z
M 1523 2586 
C 2074 2586 2413 2086 2413 1165 
C 2413 358 1997 160 1696 160 
C 1030 160 813 966 813 1459 
C 813 2016 947 2586 1523 2586 
z
" transform="scale(0.015625)"/>
       <path id="LibertinusSerif-Regular-66" d="M 1120 781 
L 1120 2496 
L 1715 2496 
C 1773 2496 1862 2522 1862 2579 
L 1862 2707 
C 1862 2733 1843 2746 1811 2746 
L 1120 2746 
L 1120 3110 
C 1120 4096 1414 4250 1626 4250 
C 1818 4250 1920 4173 2010 3949 
C 2061 3834 2131 3744 2266 3744 
C 2374 3744 2528 3878 2528 4006 
C 2528 4115 2458 4230 2323 4333 
C 2157 4448 1990 4467 1747 4467 
C 1210 4467 614 4000 614 3002 
L 614 2746 
L 288 2746 
C 173 2746 141 2669 141 2618 
L 141 2534 
C 141 2502 147 2496 173 2496 
L 614 2496 
L 614 781 
C 614 250 512 224 166 198 
C 128 160 128 26 166 -13 
C 390 -6 614 0 870 0 
C 1126 0 1434 -6 1658 -13 
C 1696 26 1696 160 1658 198 
C 1158 224 1120 250 1120 781 
z
" transform="scale(0.015625)"/>
       <path id="Cmmi10-61" d="M 1113 -72 
Q 709 -72 476 233 
Q 244 538 244 953 
Q 244 1363 456 1803 
Q 669 2244 1030 2536 
Q 1391 2828 1806 2828 
Q 1997 2828 2147 2725 
Q 2297 2622 2381 2444 
Q 2453 2700 2663 2700 
Q 2744 2700 2798 2651 
Q 2853 2603 2853 2522 
Q 2853 2503 2851 2493 
Q 2850 2484 2847 2472 
L 2400 684 
Q 2356 494 2356 372 
Q 2356 97 2541 97 
Q 2741 97 2845 351 
Q 2950 606 3022 941 
Q 3034 978 3072 978 
L 3150 978 
Q 3175 978 3190 956 
Q 3206 934 3206 916 
Q 3094 469 2961 198 
Q 2828 -72 2528 -72 
Q 2313 -72 2147 54 
Q 1981 181 1941 391 
Q 1528 -72 1113 -72 
z
M 1119 97 
Q 1350 97 1567 270 
Q 1784 444 1941 678 
Q 1947 684 1947 697 
L 2291 2088 
L 2297 2106 
Q 2259 2334 2132 2498 
Q 2006 2663 1791 2663 
Q 1575 2663 1389 2486 
Q 1203 2309 1075 2069 
Q 950 1813 836 1366 
Q 722 919 722 672 
Q 722 450 817 273 
Q 913 97 1119 97 
z
" transform="scale(0.015625)"/>
       <path id="Cmsy10-a1" d="M 653 1472 
Q 600 1472 565 1512 
Q 531 1553 531 1600 
Q 531 1647 565 1687 
Q 600 1728 653 1728 
L 4325 1728 
Q 4375 1728 4408 1687 
Q 4441 1647 4441 1600 
Q 4441 1553 4408 1512 
Q 4375 1472 4325 1472 
L 653 1472 
z
" transform="scale(0.015625)"/>
       <path id="Cmr10-31" d="M 594 0 
L 594 225 
Q 1394 225 1394 428 
L 1394 3788 
Q 1063 3628 556 3628 
L 556 3853 
Q 1341 3853 1741 4263 
L 1831 4263 
Q 1853 4263 1873 4245 
Q 1894 4228 1894 4206 
L 1894 428 
Q 1894 225 2694 225 
L 2694 0 
L 594 0 
z
" transform="scale(0.015625)"/>
       <path id="LibertinusSerif-Regular-29" d="M 1626 1613 
C 1626 1901 1600 3379 269 4531 
C 205 4518 154 4474 134 4422 
C 346 4179 1094 3296 1094 1613 
C 1094 -70 339 -954 134 -1184 
C 154 -1248 198 -1293 269 -1299 
C 1030 -646 1626 422 1626 1613 
z
" transform="scale(0.015625)"/>
      </defs>
      <use xlink:href="#Cmmi10-6b" transform="translate(0 0.109375)"/>
      <use xlink:href="#LibertinusSerif-Regular-20" transform="translate(52.001953 0.109375)"/>
      <use xlink:href="#LibertinusSerif-Regular-28" transform="translate(77.001938 0.109375)"/>
      <use xlink:href="#LibertinusSerif-Regular-69" transform="translate(106.801926 0.109375)"/>
      <use xlink:href="#LibertinusSerif-Regular-6e" transform="translate(133.901917 0.109375)"/>
      <use xlink:href="#LibertinusSerif-Regular-20" transform="translate(188.101913 0.109375)"/>
      <use xlink:href="#LibertinusSerif-Regular-75" transform="translate(213.101898 0.109375)"/>
      <use xlink:href="#LibertinusSerif-Regular-6e" transform="translate(266.201889 0.109375)"/>
      <use xlink:href="#LibertinusSerif-Regular-69" transform="translate(320.401886 0.109375)"/>
      <use xlink:href="#LibertinusSerif-Regular-74" transform="translate(347.501877 0.109375)"/>
      <use xlink:href="#LibertinusSerif-Regular-73" transform="translate(379.101868 0.109375)"/>
      <use xlink:href="#LibertinusSerif-Regular-20" transform="translate(418.101852 0.109375)"/>
      <use xlink:href="#LibertinusSerif-Regular-6f" transform="translate(443.101837 0.109375)"/>
      <use xlink:href="#LibertinusSerif-Regular-66" transform="translate(493.501831 0.109375)"/>
      <use xlink:href="#LibertinusSerif-Regular-20" transform="translate(524.501816 0.109375)"/>
      <use xlink:href="#Cmmi10-61" transform="translate(549.501801 0.109375)"/>
      <use xlink:href="#Cmsy10-a1" transform="translate(608.588285 38.373438)scale(0.7)"/>
      <use xlink:href="#Cmr10-31" transform="translate(662.968168 38.373438)scale(0.7)"/>
      <use xlink:href="#LibertinusSerif-Regular-29" transform="translate(704.345511 0.109375)"/>
     </g>
    </g>
   </g>
   <g id="matplotlib.axis_2">
    <g id="ytick_1">
     <g id="line2d_8">
      <defs>
       <path id="m3b6608c596" d="M 0 0 
L -3.5 0 
" style="stroke: #000000; stroke-width: 0.8"/>
      </defs>
      <g>
       <use xlink:href="#m3b6608c596" x="58.46" y="279.024673" style="stroke: #000000; stroke-width: 0.8"/>
      </g>
     </g>
     <g id="text_9">
      <!-- 0.0 -->
      <g transform="translate(35.36 283.910455)scale(0.14 -0.14)">
       <defs>
        <path id="LibertinusSerif-Regular-2e" d="M 365 275 
C 365 90 518 -64 704 -64 
C 890 -64 1043 90 1043 275 
C 1043 461 890 614 704 614 
C 518 614 365 461 365 275 
z
" transform="scale(0.015625)"/>
       </defs>
       <use xlink:href="#LibertinusSerif-Regular-30"/>
       <use xlink:href="#LibertinusSerif-Regular-2e" x="46.499985"/>
       <use xlink:href="#LibertinusSerif-Regular-30" x="68.499969"/>
      </g>
     </g>
    </g>
    <g id="ytick_2">
     <g id="line2d_9">
      <g>
       <use xlink:href="#m3b6608c596" x="58.46" y="243.480143" style="stroke: #000000; stroke-width: 0.8"/>
      </g>
     </g>
     <g id="text_10">
      <!-- 0.2 -->
      <g transform="translate(35.36 248.365924)scale(0.14 -0.14)">
       <use xlink:href="#LibertinusSerif-Regular-30"/>
       <use xlink:href="#LibertinusSerif-Regular-2e" x="46.499985"/>
       <use xlink:href="#LibertinusSerif-Regular-32" x="68.499969"/>
      </g>
     </g>
    </g>
    <g id="ytick_3">
     <g id="line2d_10">
      <g>
       <use xlink:href="#m3b6608c596" x="58.46" y="207.935613" style="stroke: #000000; stroke-width: 0.8"/>
      </g>
     </g>
     <g id="text_11">
      <!-- 0.4 -->
      <g transform="translate(35.36 212.821394)scale(0.14 -0.14)">
       <use xlink:href="#LibertinusSerif-Regular-30"/>
       <use xlink:href="#LibertinusSerif-Regular-2e" x="46.499985"/>
       <use xlink:href="#LibertinusSerif-Regular-34" x="68.499969"/>
      </g>
     </g>
    </g>
    <g id="ytick_4">
     <g id="line2d_11">
      <g>
       <use xlink:href="#m3b6608c596" x="58.46" y="172.391082" style="stroke: #000000; stroke-width: 0.8"/>
      </g>
     </g>
     <g id="text_12">
      <!-- 0.6 -->
      <g transform="translate(35.36 177.276864)scale(0.14 -0.14)">
       <use xlink:href="#LibertinusSerif-Regular-30"/>
       <use xlink:href="#LibertinusSerif-Regular-2e" x="46.499985"/>
       <use xlink:href="#LibertinusSerif-Regular-36" x="68.499969"/>
      </g>
     </g>
    </g>
    <g id="ytick_5">
     <g id="line2d_12">
      <g>
       <use xlink:href="#m3b6608c596" x="58.46" y="136.846552" style="stroke: #000000; stroke-width: 0.8"/>
      </g>
     </g>
     <g id="text_13">
      <!-- 0.8 -->
      <g transform="translate(35.36 141.732333)scale(0.14 -0.14)">
       <defs>
        <path id="LibertinusSerif-Regular-38" d="M 2515 3104 
C 2515 3565 2157 3904 1530 3904 
C 877 3904 454 3514 454 3021 
C 454 2662 627 2400 1018 2157 
L 1184 2054 
C 998 1958 826 1843 666 1702 
C 403 1472 294 1184 294 934 
C 294 282 755 -64 1434 -64 
C 2272 -64 2682 550 2682 1037 
C 2682 1408 2522 1734 2182 1939 
L 1728 2214 
C 2029 2362 2515 2694 2515 3104 
z
M 1446 160 
C 1158 160 723 358 723 934 
C 723 1126 806 1574 1357 1939 
L 1658 1760 
C 2054 1517 2214 1216 2214 909 
C 2214 269 1734 160 1446 160 
z
M 1498 3680 
C 1914 3680 2067 3405 2067 3110 
C 2067 2765 1728 2477 1555 2349 
L 1357 2470 
C 954 2733 909 2944 909 3142 
C 909 3437 1114 3680 1498 3680 
z
" transform="scale(0.015625)"/>
       </defs>
       <use xlink:href="#LibertinusSerif-Regular-30"/>
       <use xlink:href="#LibertinusSerif-Regular-2e" x="46.499985"/>
       <use xlink:href="#LibertinusSerif-Regular-38" x="68.499969"/>
      </g>
     </g>
    </g>
    <g id="ytick_6">
     <g id="line2d_13">
      <g>
       <use xlink:href="#m3b6608c596" x="58.46" y="101.302022" style="stroke: #000000; stroke-width: 0.8"/>
      </g>
     </g>
     <g id="text_14">
      <!-- 1.0 -->
      <g transform="translate(35.36 106.187803)scale(0.14 -0.14)">
       <defs>
        <path id="LibertinusSerif-Regular-31" d="M 1843 781 
L 1843 3002 
C 1843 3386 1850 3776 1862 3859 
C 1862 3891 1850 3891 1824 3891 
C 1472 3674 1133 3514 570 3251 
C 582 3181 608 3117 666 3078 
C 960 3200 1101 3238 1222 3238 
C 1331 3238 1350 3085 1350 2867 
L 1350 781 
C 1350 250 1178 218 730 198 
C 691 160 691 26 730 -13 
C 1043 -6 1274 0 1619 0 
C 1926 0 2080 -6 2400 -13 
C 2438 26 2438 160 2400 198 
C 1952 218 1843 250 1843 781 
z
" transform="scale(0.015625)"/>
       </defs>
       <use xlink:href="#LibertinusSerif-Regular-31"/>
       <use xlink:href="#LibertinusSerif-Regular-2e" x="46.499985"/>
       <use xlink:href="#LibertinusSerif-Regular-30" x="68.499969"/>
      </g>
     </g>
    </g>
    <g id="ytick_7">
     <g id="line2d_14">
      <g>
       <use xlink:href="#m3b6608c596" x="58.46" y="65.757491" style="stroke: #000000; stroke-width: 0.8"/>
      </g>
     </g>
     <g id="text_15">
      <!-- 1.2 -->
      <g transform="translate(35.36 70.643273)scale(0.14 -0.14)">
       <use xlink:href="#LibertinusSerif-Regular-31"/>
       <use xlink:href="#LibertinusSerif-Regular-2e" x="46.499985"/>
       <use xlink:href="#LibertinusSerif-Regular-32" x="68.499969"/>
      </g>
     </g>
    </g>
    <g id="ytick_8">
     <g id="line2d_15">
      <g>
       <use xlink:href="#m3b6608c596" x="58.46" y="30.212961" style="stroke: #000000; stroke-width: 0.8"/>
      </g>
     </g>
     <g id="text_16">
      <!-- 1.4 -->
      <g transform="translate(35.36 35.098742)scale(0.14 -0.14)">
       <use xlink:href="#LibertinusSerif-Regular-31"/>
       <use xlink:href="#LibertinusSerif-Regular-2e" x="46.499985"/>
       <use xlink:href="#LibertinusSerif-Regular-34" x="68.499969"/>
      </g>
     </g>
    </g>
    <g id="text_17">
     <!-- $\omega$, in units of $(\kappa_1+\kappa_2)^{1/2}/(2\mu)^{1/2}$ -->
     <g transform="translate(27.86 252.055781)rotate(-90)scale(0.14 -0.14)">
      <defs>
       <path id="Cmmi10-21" d="M 775 -72 
Q 413 -72 252 193 
Q 91 459 91 844 
Q 91 1097 136 1339 
Q 181 1581 273 1829 
Q 366 2078 484 2295 
Q 603 2513 750 2719 
Q 778 2759 825 2759 
Q 866 2759 891 2734 
Q 916 2709 916 2675 
Q 916 2641 897 2613 
Q 313 1809 313 1131 
Q 313 838 448 627 
Q 584 416 863 416 
Q 1103 416 1308 556 
Q 1513 697 1663 916 
Q 1663 1028 1702 1265 
Q 1741 1503 1823 1689 
Q 1906 1875 2022 1875 
Q 2169 1875 2169 1703 
Q 2169 1603 2126 1451 
Q 2084 1300 2032 1169 
Q 1981 1038 1906 872 
Q 1981 416 2363 416 
Q 2584 416 2807 544 
Q 3031 672 3203 880 
Q 3375 1088 3473 1328 
Q 3572 1569 3572 1784 
Q 3572 1978 3511 2086 
Q 3450 2194 3350 2312 
Q 3250 2431 3250 2503 
Q 3250 2628 3356 2731 
Q 3463 2834 3584 2834 
Q 3741 2834 3806 2692 
Q 3872 2550 3872 2369 
Q 3872 2075 3755 1628 
Q 3638 1181 3488 884 
Q 3281 481 2970 204 
Q 2659 -72 2272 -72 
Q 2025 -72 1873 76 
Q 1722 225 1678 481 
Q 1500 228 1272 78 
Q 1044 -72 775 -72 
z
" transform="scale(0.015625)"/>
       <path id="LibertinusSerif-Regular-2c" d="M 666 608 
C 467 608 326 474 326 294 
C 326 96 493 32 608 13 
C 730 0 838 -38 838 -186 
C 838 -320 608 -614 275 -698 
C 275 -762 288 -806 333 -851 
C 717 -781 1088 -474 1088 -26 
C 1088 358 922 608 666 608 
z
" transform="scale(0.015625)"/>
       <path id="Cmr10-28" d="M 1984 -1588 
Q 1628 -1306 1370 -942 
Q 1113 -578 948 -165 
Q 784 247 703 697 
Q 622 1147 622 1600 
Q 622 2059 703 2509 
Q 784 2959 951 3375 
Q 1119 3791 1378 4153 
Q 1638 4516 1984 4788 
Q 1984 4800 2016 4800 
L 2075 4800 
Q 2094 4800 2109 4783 
Q 2125 4766 2125 4744 
Q 2125 4716 2113 4703 
Q 1800 4397 1592 4047 
Q 1384 3697 1257 3301 
Q 1131 2906 1075 2482 
Q 1019 2059 1019 1600 
Q 1019 -434 2106 -1491 
Q 2125 -1509 2125 -1544 
Q 2125 -1559 2108 -1579 
Q 2091 -1600 2075 -1600 
L 2016 -1600 
Q 1984 -1600 1984 -1588 
z
" transform="scale(0.015625)"/>
       <path id="Cmmi10-2219" d="M 341 109 
Q 341 147 347 166 
L 959 2625 
Q 984 2716 1059 2772 
Q 1134 2828 1228 2828 
Q 1309 2828 1365 2779 
Q 1422 2731 1422 2650 
Q 1422 2631 1420 2620 
Q 1419 2609 1416 2597 
L 1184 1672 
Q 1441 1756 1866 2111 
Q 2291 2466 2508 2612 
Q 2725 2759 3041 2759 
Q 3144 2759 3214 2695 
Q 3284 2631 3284 2522 
Q 3284 2372 3176 2267 
Q 3069 2163 2919 2163 
Q 2816 2163 2745 2230 
Q 2675 2297 2675 2400 
Q 2675 2472 2700 2522 
Q 2547 2459 2386 2346 
Q 2225 2234 2094 2120 
Q 1963 2006 1778 1853 
Q 1594 1700 1447 1619 
Q 1709 1619 1984 1562 
Q 2259 1506 2461 1356 
Q 2663 1206 2663 947 
Q 2663 844 2638 769 
Q 2578 513 2578 384 
Q 2578 97 2778 97 
Q 3006 97 3128 350 
Q 3250 603 3328 941 
Q 3341 978 3378 978 
L 3456 978 
Q 3481 978 3497 961 
Q 3513 944 3513 922 
Q 3513 916 3506 903 
Q 3272 -72 2766 -72 
Q 2584 -72 2445 12 
Q 2306 97 2231 242 
Q 2156 388 2156 569 
Q 2156 684 2181 781 
Q 2203 869 2203 928 
Q 2203 1134 2020 1253 
Q 1838 1372 1589 1415 
Q 1341 1459 1125 1459 
L 800 141 
Q 778 53 701 -9 
Q 625 -72 531 -72 
Q 453 -72 397 -22 
Q 341 28 341 109 
z
" transform="scale(0.015625)"/>
       <path id="Cmr10-2b" d="M 481 1472 
Q 428 1472 393 1512 
Q 359 1553 359 1600 
Q 359 1647 393 1687 
Q 428 1728 481 1728 
L 2363 1728 
L 2363 3616 
Q 2363 3666 2400 3698 
Q 2438 3731 2491 3731 
Q 2538 3731 2578 3698 
Q 2619 3666 2619 3616 
L 2619 1728 
L 4500 1728 
Q 4547 1728 4581 1687 
Q 4616 1647 4616 1600 
Q 4616 1553 4581 1512 
Q 4547 1472 4500 1472 
L 2619 1472 
L 2619 -416 
Q 2619 -466 2578 -498 
Q 2538 -531 2491 -531 
Q 2438 -531 2400 -498 
Q 2363 -466 2363 -416 
L 2363 1472 
L 481 1472 
z
" transform="scale(0.015625)"/>
       <path id="Cmr10-32" d="M 319 0 
L 319 172 
Q 319 188 331 206 
L 1325 1306 
Q 1550 1550 1690 1715 
Q 1831 1881 1968 2097 
Q 2106 2313 2186 2536 
Q 2266 2759 2266 3009 
Q 2266 3272 2169 3511 
Q 2072 3750 1880 3894 
Q 1688 4038 1416 4038 
Q 1138 4038 916 3870 
Q 694 3703 603 3438 
Q 628 3444 672 3444 
Q 816 3444 917 3347 
Q 1019 3250 1019 3097 
Q 1019 2950 917 2848 
Q 816 2747 672 2747 
Q 522 2747 420 2851 
Q 319 2956 319 3097 
Q 319 3338 409 3548 
Q 500 3759 670 3923 
Q 841 4088 1055 4175 
Q 1269 4263 1509 4263 
Q 1875 4263 2190 4108 
Q 2506 3953 2690 3670 
Q 2875 3388 2875 3009 
Q 2875 2731 2753 2481 
Q 2631 2231 2440 2026 
Q 2250 1822 1953 1562 
Q 1656 1303 1563 1216 
L 838 519 
L 1453 519 
Q 1906 519 2211 526 
Q 2516 534 2534 550 
Q 2609 631 2688 1141 
L 2875 1141 
L 2694 0 
L 319 0 
z
" transform="scale(0.015625)"/>
       <path id="Cmr10-29" d="M 416 -1600 
Q 359 -1600 359 -1544 
Q 359 -1516 372 -1503 
Q 1466 -434 1466 1600 
Q 1466 3634 384 4691 
Q 359 4706 359 4744 
Q 359 4766 376 4783 
Q 394 4800 416 4800 
L 475 4800 
Q 494 4800 506 4788 
Q 966 4425 1272 3906 
Q 1578 3388 1720 2800 
Q 1863 2213 1863 1600 
Q 1863 1147 1786 708 
Q 1709 269 1542 -157 
Q 1375 -584 1119 -945 
Q 863 -1306 506 -1588 
Q 494 -1600 475 -1600 
L 416 -1600 
z
" transform="scale(0.015625)"/>
       <path id="Cmmi10-3d" d="M 359 -1472 
Q 359 -1453 366 -1447 
L 2591 4722 
Q 2603 4759 2634 4779 
Q 2666 4800 2706 4800 
Q 2763 4800 2798 4765 
Q 2834 4731 2834 4672 
L 2834 4647 
L 609 -1522 
Q 572 -1600 488 -1600 
Q 434 -1600 396 -1562 
Q 359 -1525 359 -1472 
z
" transform="scale(0.015625)"/>
       <path id="Cmmi10-b9" d="M 178 -1203 
Q 178 -1166 184 -1153 
L 1125 2625 
Q 1153 2716 1226 2772 
Q 1300 2828 1394 2828 
Q 1475 2828 1531 2779 
Q 1588 2731 1588 2650 
Q 1588 2631 1586 2620 
Q 1584 2609 1581 2597 
L 1203 1100 
Q 1141 834 1141 641 
Q 1141 403 1253 250 
Q 1366 97 1594 97 
Q 2059 97 2413 678 
Q 2416 684 2417 687 
Q 2419 691 2419 697 
L 2881 2553 
Q 2903 2638 2981 2698 
Q 3059 2759 3150 2759 
Q 3225 2759 3283 2709 
Q 3341 2659 3341 2578 
Q 3341 2541 3334 2528 
L 2875 684 
Q 2828 503 2828 372 
Q 2828 97 3016 97 
Q 3216 97 3317 344 
Q 3419 591 3494 941 
Q 3506 978 3547 978 
L 3622 978 
Q 3647 978 3664 958 
Q 3681 938 3681 916 
Q 3569 469 3436 198 
Q 3303 -72 3003 -72 
Q 2791 -72 2627 50 
Q 2463 172 2413 378 
Q 2253 178 2039 53 
Q 1825 -72 1588 -72 
Q 1188 -72 959 116 
L 634 -1178 
Q 616 -1269 541 -1325 
Q 466 -1381 372 -1381 
Q 294 -1381 236 -1332 
Q 178 -1284 178 -1203 
z
" transform="scale(0.015625)"/>
      </defs>
      <use xlink:href="#Cmmi10-21" transform="translate(0 0.235938)"/>
      <use xlink:href="#LibertinusSerif-Regular-2c" transform="translate(62.207031 0.235938)"/>
      <use xlink:href="#LibertinusSerif-Regular-20" transform="translate(84.207016 0.235938)"/>
      <use xlink:href="#LibertinusSerif-Regular-69" transform="translate(109.207001 0.235938)"/>
      <use xlink:href="#LibertinusSerif-Regular-6e" transform="translate(136.306992 0.235938)"/>
      <use xlink:href="#LibertinusSerif-Regular-20" transform="translate(190.506989 0.235938)"/>
      <use xlink:href="#LibertinusSerif-Regular-75" transform="translate(215.506973 0.235938)"/>
      <use xlink:href="#LibertinusSerif-Regular-6e" transform="translate(268.606964 0.235938)"/>
      <use xlink:href="#LibertinusSerif-Regular-69" transform="translate(322.806961 0.235938)"/>
      <use xlink:href="#LibertinusSerif-Regular-74" transform="translate(349.906952 0.235938)"/>
      <use xlink:href="#LibertinusSerif-Regular-73" transform="translate(381.506943 0.235938)"/>
      <use xlink:href="#LibertinusSerif-Regular-20" transform="translate(420.506927 0.235938)"/>
      <use xlink:href="#LibertinusSerif-Regular-6f" transform="translate(445.506912 0.235938)"/>
      <use xlink:href="#LibertinusSerif-Regular-66" transform="translate(495.906906 0.235938)"/>
      <use xlink:href="#LibertinusSerif-Regular-20" transform="translate(526.906891 0.235938)"/>
      <use xlink:href="#Cmr10-28" transform="translate(551.906876 0.235938)"/>
      <use xlink:href="#Cmmi10-2219" transform="translate(590.725235 0.235938)"/>
      <use xlink:href="#Cmr10-31" transform="translate(648.342422 -16.770312)scale(0.7)"/>
      <use xlink:href="#Cmr10-2b" transform="translate(707.27836 0.235938)"/>
      <use xlink:href="#Cmmi10-2219" transform="translate(802.522501 0.235938)"/>
      <use xlink:href="#Cmr10-32" transform="translate(860.139688 -16.770312)scale(0.7)"/>
      <use xlink:href="#Cmr10-29" transform="translate(901.517032 0.235938)"/>
      <use xlink:href="#Cmr10-31" transform="translate(944.799532 38.5)scale(0.7)"/>
      <use xlink:href="#Cmmi10-3d" transform="translate(979.799532 38.5)scale(0.7)"/>
      <use xlink:href="#Cmr10-32" transform="translate(1014.799532 38.5)scale(0.7)"/>
      <use xlink:href="#Cmmi10-3d" transform="translate(1056.176876 0.235938)"/>
      <use xlink:href="#Cmr10-28" transform="translate(1106.176876 0.235938)"/>
      <use xlink:href="#Cmr10-32" transform="translate(1144.995235 0.235938)"/>
      <use xlink:href="#Cmmi10-b9" transform="translate(1194.995235 0.235938)"/>
      <use xlink:href="#Cmr10-29" transform="translate(1255.200313 0.235938)"/>
      <use xlink:href="#Cmr10-31" transform="translate(1298.482813 38.5)scale(0.7)"/>
      <use xlink:href="#Cmmi10-3d" transform="translate(1333.482813 38.5)scale(0.7)"/>
      <use xlink:href="#Cmr10-32" transform="translate(1368.482813 38.5)scale(0.7)"/>
     </g>
    </g>
   </g>
   <g id="line2d_16">
    <path d="M 164.065455 182.841867 
L 167.585636 183.070791 
L 171.105818 183.754541 
L 174.626 184.884256 
L 178.146182 186.445817 
L 181.666364 188.420709 
L 185.186545 190.787046 
L 188.706727 193.520621 
L 192.226909 196.595892 
L 195.747091 199.986814 
L 199.267273 203.667502 
L 202.787455 207.61271 
L 206.307636 211.798146 
L 209.827818 216.200659 
L 213.348 220.79831 
L 216.868182 225.570374 
L 220.388364 230.49729 
L 223.908545 235.56057 
L 227.428727 240.7427 
L 230.948909 246.027018 
L 234.469091 251.397605 
L 237.989273 256.839162 
L 241.509455 262.336897 
L 245.029636 267.876424 
L 248.549818 273.443648 
L 252.07 279.024673 
L 255.590182 273.443648 
L 259.110364 267.876424 
L 262.630545 262.336897 
L 266.150727 256.839162 
L 269.670909 251.397605 
L 273.191091 246.027018 
L 276.711273 240.7427 
L 280.231455 235.56057 
L 283.751636 230.49729 
L 287.271818 225.570374 
L 290.792 220.79831 
L 294.312182 216.200659 
L 297.832364 211.798146 
L 301.352545 207.61271 
L 304.872727 203.667502 
L 308.392909 199.986814 
L 311.913091 196.595892 
L 315.433273 193.520621 
L 318.953455 190.787046 
L 322.473636 188.420709 
L 325.993818 186.445817 
L 329.514 184.884256 
L 333.034182 183.754541 
L 336.554364 183.070791 
L 340.074545 182.841867 
" clip-path="url(#p243358d47b)" style="fill: none; stroke: #000080; stroke-width: 1.5; stroke-linecap: square"/>
   </g>
   <g id="line2d_17">
    <path d="M 76.060909 27.686889 
L 77.85692 27.703029 
L 79.652931 27.751414 
L 81.448942 27.831938 
L 83.244954 27.944425 
L 85.040965 28.088624 
L 86.836976 28.264217 
L 88.632987 28.470807 
L 90.428998 28.707927 
L 92.225009 28.975032 
L 94.02102 29.271498 
L 95.817032 29.596622 
L 97.613043 29.949621 
L 99.409054 30.329624 
L 101.205065 30.735677 
L 103.001076 31.166735 
L 104.797087 31.62166 
L 106.593098 32.09922 
L 108.389109 32.598085 
L 110.185121 33.116823 
L 111.981132 33.653899 
L 113.777143 34.207668 
L 115.573154 34.77638 
L 117.369165 35.35817 
L 119.165176 35.951059 
L 120.961187 36.552954 
L 122.757199 37.161646 
L 124.55321 37.774809 
L 126.349221 38.390006 
L 128.145232 39.004687 
L 129.941243 39.616197 
L 131.737254 40.221781 
L 133.533265 40.818593 
L 135.329276 41.403711 
L 137.125288 41.974144 
L 138.921299 42.526857 
L 140.71731 43.058785 
L 142.513321 43.566862 
L 144.309332 44.048046 
L 146.105343 44.499345 
L 147.901354 44.917857 
L 149.697365 45.300801 
L 151.493377 45.645551 
L 153.289388 45.94968 
L 155.085399 46.210991 
L 156.88141 46.427554 
L 158.677421 46.597741 
L 160.473432 46.720253 
L 162.269443 46.794144 
L 164.065455 46.818839 
" clip-path="url(#p243358d47b)" style="fill: none; stroke-dasharray: 3.33,1.44; stroke-dashoffset: 0; stroke: #000080; stroke-opacity: 0.8; stroke-width: 0.9"/>
   </g>
   <g id="line2d_18">
    <path d="M 428.079091 27.686889 
L 426.28308 27.703029 
L 424.487069 27.751414 
L 422.691058 27.831938 
L 420.895046 27.944425 
L 419.099035 28.088624 
L 417.303024 28.264217 
L 415.507013 28.470807 
L 413.711002 28.707927 
L 411.914991 28.975032 
L 410.11898 29.271498 
L 408.322968 29.596622 
L 406.526957 29.949621 
L 404.730946 30.329624 
L 402.934935 30.735677 
L 401.138924 31.166735 
L 399.342913 31.62166 
L 397.546902 32.09922 
L 395.750891 32.598085 
L 393.954879 33.116823 
L 392.158868 33.653899 
L 390.362857 34.207668 
L 388.566846 34.77638 
L 386.770835 35.35817 
L 384.974824 35.951059 
L 383.178813 36.552954 
L 381.382801 37.161646 
L 379.58679 37.774809 
L 377.790779 38.390006 
L 375.994768 39.004687 
L 374.198757 39.616197 
L 372.402746 40.221781 
L 370.606735 40.818593 
L 368.810724 41.403711 
L 367.014712 41.974144 
L 365.218701 42.526857 
L 363.42269 43.058785 
L 361.626679 43.566862 
L 359.830668 44.048046 
L 358.034657 44.499345 
L 356.238646 44.917857 
L 354.442635 45.300801 
L 352.646623 45.645551 
L 350.850612 45.94968 
L 349.054601 46.210991 
L 347.25859 46.427554 
L 345.462579 46.597741 
L 343.666568 46.720253 
L 341.870557 46.794144 
L 340.074545 46.818839 
" clip-path="url(#p243358d47b)" style="fill: none; stroke-dasharray: 3.33,1.44; stroke-dashoffset: 0; stroke: #000080; stroke-opacity: 0.8; stroke-width: 0.9"/>
   </g>
   <g id="line2d_19">
    <path d="M 164.065455 46.818839 
L 167.585636 46.724148 
L 171.105818 46.442895 
L 174.626 45.983339 
L 178.146182 45.358593 
L 181.666364 44.585761 
L 185.186545 43.684913 
L 188.706727 42.678024 
L 192.226909 41.587992 
L 195.747091 40.437795 
L 199.267273 39.249824 
L 202.787455 38.045394 
L 206.307636 36.844419 
L 209.827818 35.665217 
L 213.348 34.524423 
L 216.868182 33.436971 
L 220.388364 32.416128 
L 223.908545 31.47356 
L 227.428727 30.619415 
L 230.948909 29.862404 
L 234.469091 29.209888 
L 237.989273 28.667958 
L 241.509455 28.2415 
L 245.029636 27.934255 
L 248.549818 27.748861 
L 252.07 27.686889 
L 255.590182 27.748861 
L 259.110364 27.934255 
L 262.630545 28.2415 
L 266.150727 28.667958 
L 269.670909 29.209888 
L 273.191091 29.862404 
L 276.711273 30.619415 
L 280.231455 31.47356 
L 283.751636 32.416128 
L 287.271818 33.436971 
L 290.792 34.524423 
L 294.312182 35.665217 
L 297.832364 36.844419 
L 301.352545 38.045394 
L 304.872727 39.249824 
L 308.392909 40.437795 
L 311.913091 41.587992 
L 315.433273 42.678024 
L 318.953455 43.684913 
L 322.473636 44.585761 
L 325.993818 45.358593 
L 329.514 45.983339 
L 333.034182 46.442895 
L 336.554364 46.724148 
L 340.074545 46.818839 
" clip-path="url(#p243358d47b)" style="fill: none; stroke: #000080; stroke-width: 1.5; stroke-linecap: square"/>
   </g>
   <g id="line2d_20">
    <path d="M 164.065455 175.614801 
L 167.585636 175.870821 
L 171.105818 176.634802 
L 174.626 177.894847 
L 178.146182 179.632206 
L 181.666364 181.822663 
L 185.186545 184.438133 
L 188.706727 187.448221 
L 192.226909 190.821594 
L 195.747091 194.527061 
L 199.267273 198.534359 
L 202.787455 202.81465 
L 206.307636 207.340791 
L 209.827818 212.087435 
L 213.348 217.031005 
L 216.868182 222.149599 
L 220.388364 227.422844 
L 223.908545 232.831728 
L 227.428727 238.358434 
L 230.948909 243.98617 
L 234.469091 249.699004 
L 237.989273 255.481724 
L 241.509455 261.319689 
L 245.029636 267.198709 
L 248.549818 273.10492 
L 252.07 279.024673 
L 255.590182 273.10492 
L 259.110364 267.198709 
L 262.630545 261.319689 
L 266.150727 255.481724 
L 269.670909 249.699004 
L 273.191091 243.98617 
L 276.711273 238.358434 
L 280.231455 232.831728 
L 283.751636 227.422844 
L 287.271818 222.149599 
L 290.792 217.031005 
L 294.312182 212.087435 
L 297.832364 207.340791 
L 301.352545 202.81465 
L 304.872727 198.534359 
L 308.392909 194.527061 
L 311.913091 190.821594 
L 315.433273 187.448221 
L 318.953455 184.438133 
L 322.473636 181.822663 
L 325.993818 179.632206 
L 329.514 177.894847 
L 333.034182 176.634802 
L 336.554364 175.870821 
L 340.074545 175.614801 
" clip-path="url(#p243358d47b)" style="fill: none; stroke: #0000ff; stroke-width: 1.5; stroke-linecap: square"/>
   </g>
   <g id="line2d_21">
    <path d="M 76.060909 27.686889 
L 77.85692 27.705047 
L 79.652931 27.759486 
L 81.448942 27.850099 
L 83.244954 27.97671 
L 85.040965 28.139068 
L 86.836976 28.336853 
L 88.632987 28.569667 
L 90.428998 28.837039 
L 92.225009 29.138418 
L 94.02102 29.473175 
L 95.817032 29.840597 
L 97.613043 30.239886 
L 99.409054 30.670156 
L 101.205065 31.130429 
L 103.001076 31.61963 
L 104.797087 32.136585 
L 106.593098 32.680016 
L 108.389109 33.248536 
L 110.185121 33.840644 
L 111.981132 34.45472 
L 113.777143 35.08902 
L 115.573154 35.741673 
L 117.369165 36.41067 
L 119.165176 37.093866 
L 120.961187 37.788971 
L 122.757199 38.493547 
L 124.55321 39.205007 
L 126.349221 39.920609 
L 128.145232 40.63746 
L 129.941243 41.352514 
L 131.737254 42.062577 
L 133.533265 42.764313 
L 135.329276 43.454255 
L 137.125288 44.128816 
L 138.921299 44.784312 
L 140.71731 45.416977 
L 142.513321 46.022999 
L 144.309332 46.598549 
L 146.105343 47.139822 
L 147.901354 47.64308 
L 149.697365 48.104702 
L 151.493377 48.521237 
L 153.289388 48.889461 
L 155.085399 49.20643 
L 156.88141 49.46954 
L 158.677421 49.676577 
L 160.473432 49.825766 
L 162.269443 49.915807 
L 164.065455 49.945909 
" clip-path="url(#p243358d47b)" style="fill: none; stroke-dasharray: 3.33,1.44; stroke-dashoffset: 0; stroke: #0000ff; stroke-opacity: 0.8; stroke-width: 0.9"/>
   </g>
   <g id="line2d_22">
    <path d="M 428.079091 27.686889 
L 426.28308 27.705047 
L 424.487069 27.759486 
L 422.691058 27.850099 
L 420.895046 27.97671 
L 419.099035 28.139068 
L 417.303024 28.336853 
L 415.507013 28.569667 
L 413.711002 28.837039 
L 411.914991 29.138418 
L 410.11898 29.473175 
L 408.322968 29.840597 
L 406.526957 30.239886 
L 404.730946 30.670156 
L 402.934935 31.130429 
L 401.138924 31.61963 
L 399.342913 32.136585 
L 397.546902 32.680016 
L 395.750891 33.248536 
L 393.954879 33.840644 
L 392.158868 34.45472 
L 390.362857 35.08902 
L 388.566846 35.741673 
L 386.770835 36.41067 
L 384.974824 37.093866 
L 383.178813 37.788971 
L 381.382801 38.493547 
L 379.58679 39.205007 
L 377.790779 39.920609 
L 375.994768 40.63746 
L 374.198757 41.352514 
L 372.402746 42.062577 
L 370.606735 42.764313 
L 368.810724 43.454255 
L 367.014712 44.128816 
L 365.218701 44.784312 
L 363.42269 45.416977 
L 361.626679 46.022999 
L 359.830668 46.598549 
L 358.034657 47.139822 
L 356.238646 47.64308 
L 354.442635 48.104702 
L 352.646623 48.521237 
L 350.850612 48.889461 
L 349.054601 49.20643 
L 347.25859 49.46954 
L 345.462579 49.676577 
L 343.666568 49.825766 
L 341.870557 49.915807 
L 340.074545 49.945909 
" clip-path="url(#p243358d47b)" style="fill: none; stroke-dasharray: 3.33,1.44; stroke-dashoffset: 0; stroke: #0000ff; stroke-opacity: 0.8; stroke-width: 0.9"/>
   </g>
   <g id="line2d_23">
    <path d="M 164.065455 49.945909 
L 167.585636 49.83051 
L 171.105818 49.488193 
L 174.626 48.930258 
L 178.146182 48.174464 
L 181.666364 47.243633 
L 185.186545 46.164054 
L 188.706727 44.963922 
L 192.226909 43.671963 
L 195.747091 42.31634 
L 199.267273 40.923873 
L 202.787455 39.519529 
L 206.307636 38.126141 
L 209.827818 36.764301 
L 213.348 35.45237 
L 216.868182 34.206562 
L 220.388364 33.04107 
L 223.908545 31.968215 
L 227.428727 30.998589 
L 230.948909 30.141197 
L 234.469091 29.403587 
L 237.989273 28.791959 
L 241.509455 28.311261 
L 245.029636 27.965261 
L 248.549818 27.756613 
L 252.07 27.686889 
L 255.590182 27.756613 
L 259.110364 27.965261 
L 262.630545 28.311261 
L 266.150727 28.791959 
L 269.670909 29.403587 
L 273.191091 30.141197 
L 276.711273 30.998589 
L 280.231455 31.968215 
L 283.751636 33.04107 
L 287.271818 34.206562 
L 290.792 35.45237 
L 294.312182 36.764301 
L 297.832364 38.126141 
L 301.352545 39.519529 
L 304.872727 40.923873 
L 308.392909 42.31634 
L 311.913091 43.671963 
L 315.433273 44.963922 
L 318.953455 46.164054 
L 322.473636 47.243633 
L 325.993818 48.174464 
L 329.514 48.930258 
L 333.034182 49.488193 
L 336.554364 49.83051 
L 340.074545 49.945909 
" clip-path="url(#p243358d47b)" style="fill: none; stroke: #0000ff; stroke-width: 1.5; stroke-linecap: square"/>
   </g>
   <g id="line2d_24">
    <path d="M 164.065455 168.375007 
L 167.585636 168.662071 
L 171.105818 169.517636 
L 174.626 170.925405 
L 178.146182 172.860045 
L 181.666364 175.289486 
L 185.186545 178.177413 
L 188.706727 181.485573 
L 192.226909 185.175633 
L 195.747091 189.210521 
L 199.267273 193.555254 
L 202.787455 198.177368 
L 206.307636 203.047046 
L 209.827818 208.137055 
L 213.348 213.422554 
L 216.868182 218.880859 
L 220.388364 224.491173 
L 223.908545 230.234329 
L 227.428727 236.092544 
L 230.948909 242.049191 
L 234.469091 248.088604 
L 237.989273 254.195891 
L 241.509455 260.35678 
L 245.029636 266.557472 
L 248.549818 272.784513 
L 252.07 279.024673 
L 255.590182 272.784513 
L 259.110364 266.557472 
L 262.630545 260.35678 
L 266.150727 254.195891 
L 269.670909 248.088604 
L 273.191091 242.049191 
L 276.711273 236.092544 
L 280.231455 230.234329 
L 283.751636 224.491173 
L 287.271818 218.880859 
L 290.792 213.422554 
L 294.312182 208.137055 
L 297.832364 203.047046 
L 301.352545 198.177368 
L 304.872727 193.555254 
L 308.392909 189.210521 
L 311.913091 185.175633 
L 315.433273 181.485573 
L 318.953455 178.177413 
L 322.473636 175.289486 
L 325.993818 172.860045 
L 329.514 170.925405 
L 333.034182 169.517636 
L 336.554364 168.662071 
L 340.074545 168.375007 
" clip-path="url(#p243358d47b)" style="fill: none; stroke: #0080ff; stroke-width: 1.5; stroke-linecap: square"/>
   </g>
   <g id="line2d_25">
    <path d="M 76.060909 27.686889 
L 77.85692 27.707065 
L 79.652931 27.767559 
L 81.448942 27.868266 
L 83.244954 28.009015 
L 85.040965 28.189563 
L 86.836976 28.409595 
L 88.632987 28.668724 
L 90.428998 28.966487 
L 92.225009 29.302346 
L 94.02102 29.675681 
L 95.817032 30.08579 
L 97.613043 30.531884 
L 99.409054 31.013086 
L 101.205065 31.528422 
L 103.001076 32.07682 
L 104.797087 32.657101 
L 106.593098 33.267979 
L 108.389109 33.908049 
L 110.185121 34.575781 
L 111.981132 35.269516 
L 113.777143 35.987457 
L 115.573154 36.727658 
L 117.369165 37.488019 
L 119.165176 38.266276 
L 120.961187 39.059992 
L 122.757199 39.866549 
L 124.55321 40.683141 
L 126.349221 41.506762 
L 128.145232 42.334207 
L 129.941243 43.16206 
L 131.737254 43.986698 
L 133.533265 44.804287 
L 135.329276 45.610791 
L 137.125288 46.401976 
L 138.921299 47.173433 
L 140.71731 47.920592 
L 142.513321 48.638758 
L 144.309332 49.323147 
L 146.105343 49.968938 
L 147.901354 50.571325 
L 149.697365 51.12559 
L 151.493377 51.627177 
L 153.289388 52.071775 
L 155.085399 52.455404 
L 156.88141 52.774508 
L 158.677421 53.026036 
L 160.473432 53.207522 
L 162.269443 53.317154 
L 164.065455 53.353822 
" clip-path="url(#p243358d47b)" style="fill: none; stroke-dasharray: 3.33,1.44; stroke-dashoffset: 0; stroke: #0080ff; stroke-opacity: 0.8; stroke-width: 0.9"/>
   </g>
   <g id="line2d_26">
    <path d="M 428.079091 27.686889 
L 426.28308 27.707065 
L 424.487069 27.767559 
L 422.691058 27.868266 
L 420.895046 28.009015 
L 419.099035 28.189563 
L 417.303024 28.409595 
L 415.507013 28.668724 
L 413.711002 28.966487 
L 411.914991 29.302346 
L 410.11898 29.675681 
L 408.322968 30.08579 
L 406.526957 30.531884 
L 404.730946 31.013086 
L 402.934935 31.528422 
L 401.138924 32.07682 
L 399.342913 32.657101 
L 397.546902 33.267979 
L 395.750891 33.908049 
L 393.954879 34.575781 
L 392.158868 35.269516 
L 390.362857 35.987457 
L 388.566846 36.727658 
L 386.770835 37.488019 
L 384.974824 38.266276 
L 383.178813 39.059992 
L 381.382801 39.866549 
L 379.58679 40.683141 
L 377.790779 41.506762 
L 375.994768 42.334207 
L 374.198757 43.16206 
L 372.402746 43.986698 
L 370.606735 44.804287 
L 368.810724 45.610791 
L 367.014712 46.401976 
L 365.218701 47.173433 
L 363.42269 47.920592 
L 361.626679 48.638758 
L 359.830668 49.323147 
L 358.034657 49.968938 
L 356.238646 50.571325 
L 354.442635 51.12559 
L 352.646623 51.627177 
L 350.850612 52.071775 
L 349.054601 52.455404 
L 347.25859 52.774508 
L 345.462579 53.026036 
L 343.666568 53.207522 
L 341.870557 53.317154 
L 340.074545 53.353822 
" clip-path="url(#p243358d47b)" style="fill: none; stroke-dasharray: 3.33,1.44; stroke-dashoffset: 0; stroke: #0080ff; stroke-opacity: 0.8; stroke-width: 0.9"/>
   </g>
   <g id="line2d_27">
    <path d="M 164.065455 53.353822 
L 167.585636 53.213297 
L 171.105818 52.797154 
L 174.626 52.121104 
L 178.146182 51.2095 
L 181.666364 50.09304 
L 185.186545 48.806273 
L 188.706727 47.385286 
L 192.226909 45.865845 
L 195.747091 44.282049 
L 199.267273 42.665497 
L 202.787455 41.044853 
L 206.307636 39.445705 
L 209.827818 37.890629 
L 213.348 36.399358 
L 216.868182 34.989013 
L 220.388364 33.674354 
L 223.908545 32.468019 
L 227.428727 31.380748 
L 230.948909 30.421585 
L 234.469091 29.598048 
L 237.989273 28.91627 
L 241.509455 28.381119 
L 245.029636 27.996287 
L 248.549818 27.764366 
L 252.07 27.686889 
L 255.590182 27.764366 
L 259.110364 27.996287 
L 262.630545 28.381119 
L 266.150727 28.91627 
L 269.670909 29.598048 
L 273.191091 30.421585 
L 276.711273 31.380748 
L 280.231455 32.468019 
L 283.751636 33.674354 
L 287.271818 34.989013 
L 290.792 36.399358 
L 294.312182 37.890629 
L 297.832364 39.445705 
L 301.352545 41.044853 
L 304.872727 42.665497 
L 308.392909 44.282049 
L 311.913091 45.865845 
L 315.433273 47.385286 
L 318.953455 48.806273 
L 322.473636 50.09304 
L 325.993818 51.2095 
L 329.514 52.121104 
L 333.034182 52.797154 
L 336.554364 53.213297 
L 340.074545 53.353822 
" clip-path="url(#p243358d47b)" style="fill: none; stroke: #0080ff; stroke-width: 1.5; stroke-linecap: square"/>
   </g>
   <g id="line2d_28">
    <path d="M 164.065455 161.00519 
L 167.585636 161.329354 
L 171.105818 162.29381 
L 174.626 163.87552 
L 178.146182 166.039351 
L 181.666364 168.741983 
L 185.186545 171.935893 
L 188.706727 175.572722 
L 192.226909 179.605709 
L 195.747091 183.991182 
L 199.267273 188.689276 
L 202.787455 193.664106 
L 206.307636 198.883605 
L 209.827818 204.319172 
L 213.348 209.945254 
L 216.868182 215.738915 
L 220.388364 221.679422 
L 223.908545 227.747884 
L 227.428727 233.926927 
L 230.948909 240.20042 
L 234.469091 246.553234 
L 237.989273 252.971045 
L 241.509455 259.440155 
L 245.029636 265.947345 
L 248.549818 272.479736 
L 252.07 279.024673 
L 255.590182 272.479736 
L 259.110364 265.947345 
L 262.630545 259.440155 
L 266.150727 252.971045 
L 269.670909 246.553234 
L 273.191091 240.20042 
L 276.711273 233.926927 
L 280.231455 227.747884 
L 283.751636 221.679422 
L 287.271818 215.738915 
L 290.792 209.945254 
L 294.312182 204.319172 
L 297.832364 198.883605 
L 301.352545 193.664106 
L 304.872727 188.689276 
L 308.392909 183.991182 
L 311.913091 179.605709 
L 315.433273 175.572722 
L 318.953455 171.935893 
L 322.473636 168.741983 
L 325.993818 166.039351 
L 329.514 163.87552 
L 333.034182 162.29381 
L 336.554364 161.329354 
L 340.074545 161.00519 
" clip-path="url(#p243358d47b)" style="fill: none; stroke: #16ffe1; stroke-width: 1.5; stroke-linecap: square"/>
   </g>
   <g id="line2d_29">
    <path d="M 76.060909 27.686889 
L 77.85692 27.709083 
L 79.652931 27.775633 
L 81.448942 27.88644 
L 83.244954 28.041342 
L 85.040965 28.240109 
L 86.836976 28.482444 
L 88.632987 28.767978 
L 90.428998 29.096274 
L 92.225009 29.466819 
L 94.02102 29.879023 
L 95.817032 30.332215 
L 97.613043 30.825641 
L 99.409054 31.358457 
L 101.205065 31.929726 
L 103.001076 32.53841 
L 104.797087 33.183367 
L 106.593098 33.863339 
L 108.389109 34.576951 
L 110.185121 35.322694 
L 111.981132 36.098924 
L 113.777143 36.903845 
L 115.573154 37.735502 
L 117.369165 38.591766 
L 119.165176 39.470323 
L 120.961187 40.36866 
L 122.757199 41.28405 
L 124.55321 42.213538 
L 126.349221 43.153925 
L 128.145232 44.101755 
L 129.941243 45.053299 
L 131.737254 46.004546 
L 133.533265 46.951191 
L 135.329276 47.888631 
L 137.125288 48.81196 
L 138.921299 49.715982 
L 140.71731 50.595222 
L 142.513321 51.443952 
L 144.309332 52.256232 
L 146.105343 53.025962 
L 147.901354 53.746956 
L 149.697365 54.413031 
L 151.493377 55.01811 
L 153.289388 55.556349 
L 155.085399 56.022274 
L 156.88141 56.41092 
L 158.677421 56.717978 
L 160.473432 56.939931 
L 162.269443 57.074173 
L 164.065455 57.119101 
" clip-path="url(#p243358d47b)" style="fill: none; stroke-dasharray: 3.33,1.44; stroke-dashoffset: 0; stroke: #16ffe1; stroke-opacity: 0.8; stroke-width: 0.9"/>
   </g>
   <g id="line2d_30">
    <path d="M 428.079091 27.686889 
L 426.28308 27.709083 
L 424.487069 27.775633 
L 422.691058 27.88644 
L 420.895046 28.041342 
L 419.099035 28.240109 
L 417.303024 28.482444 
L 415.507013 28.767978 
L 413.711002 29.096274 
L 411.914991 29.466819 
L 410.11898 29.879023 
L 408.322968 30.332215 
L 406.526957 30.825641 
L 404.730946 31.358457 
L 402.934935 31.929726 
L 401.138924 32.53841 
L 399.342913 33.183367 
L 397.546902 33.863339 
L 395.750891 34.576951 
L 393.954879 35.322694 
L 392.158868 36.098924 
L 390.362857 36.903845 
L 388.566846 37.735502 
L 386.770835 38.591766 
L 384.974824 39.470323 
L 383.178813 40.36866 
L 381.382801 41.28405 
L 379.58679 42.213538 
L 377.790779 43.153925 
L 375.994768 44.101755 
L 374.198757 45.053299 
L 372.402746 46.004546 
L 370.606735 46.951191 
L 368.810724 47.888631 
L 367.014712 48.81196 
L 365.218701 49.715982 
L 363.42269 50.595222 
L 361.626679 51.443952 
L 359.830668 52.256232 
L 358.034657 53.025962 
L 356.238646 53.746956 
L 354.442635 54.413031 
L 352.646623 55.01811 
L 350.850612 55.556349 
L 349.054601 56.022274 
L 347.25859 56.41092 
L 345.462579 56.717978 
L 343.666568 56.939931 
L 341.870557 57.074173 
L 340.074545 57.119101 
" clip-path="url(#p243358d47b)" style="fill: none; stroke-dasharray: 3.33,1.44; stroke-dashoffset: 0; stroke: #16ffe1; stroke-opacity: 0.8; stroke-width: 0.9"/>
   </g>
   <g id="line2d_31">
    <path d="M 164.065455 57.119101 
L 167.585636 56.946999 
L 171.105818 56.438539 
L 174.626 55.616182 
L 178.146182 54.514098 
L 181.666364 53.174258 
L 185.186545 51.642451 
L 188.706727 49.964909 
L 192.226909 48.185874 
L 195.747091 46.346103 
L 199.267273 44.482145 
L 202.787455 42.626164 
L 206.307636 40.806095 
L 209.827818 39.045987 
L 213.348 37.366411 
L 216.868182 35.784885 
L 220.388364 34.316267 
L 223.908545 32.973108 
L 227.428727 31.765952 
L 230.948909 30.703593 
L 234.469091 29.79328 
L 237.989273 29.040894 
L 241.509455 28.451075 
L 245.029636 28.027332 
L 248.549818 27.77212 
L 252.07 27.686889 
L 255.590182 27.77212 
L 259.110364 28.027332 
L 262.630545 28.451075 
L 266.150727 29.040894 
L 269.670909 29.79328 
L 273.191091 30.703593 
L 276.711273 31.765952 
L 280.231455 32.973108 
L 283.751636 34.316267 
L 287.271818 35.784885 
L 290.792 37.366411 
L 294.312182 39.045987 
L 297.832364 40.806095 
L 301.352545 42.626164 
L 304.872727 44.482145 
L 308.392909 46.346103 
L 311.913091 48.185874 
L 315.433273 49.964909 
L 318.953455 51.642451 
L 322.473636 53.174258 
L 325.993818 54.514098 
L 329.514 55.616182 
L 333.034182 56.438539 
L 336.554364 56.946999 
L 340.074545 57.119101 
" clip-path="url(#p243358d47b)" style="fill: none; stroke: #16ffe1; stroke-width: 1.5; stroke-linecap: square"/>
   </g>
   <g id="line2d_32">
    <path d="M 164.065455 153.355781 
L 167.585636 153.726838 
L 171.105818 154.827905 
L 174.626 156.624802 
L 178.146182 159.066823 
L 181.666364 162.093743 
L 185.186545 165.642313 
L 188.706727 169.65109 
L 192.226909 174.063339 
L 195.747091 178.828343 
L 199.267273 183.901621 
L 202.787455 189.244533 
L 206.307636 194.823584 
L 209.827818 200.609664 
L 213.348 206.577307 
L 216.868182 212.704033 
L 220.388364 218.969785 
L 223.908545 225.35646 
L 227.428727 231.847523 
L 230.948909 238.42769 
L 234.469091 245.082667 
L 237.989273 251.798939 
L 241.509455 258.563591 
L 245.029636 265.364158 
L 248.549818 272.188498 
L 252.07 279.024673 
L 255.590182 272.188498 
L 259.110364 265.364158 
L 262.630545 258.563591 
L 266.150727 251.798939 
L 269.670909 245.082667 
L 273.191091 238.42769 
L 276.711273 231.847523 
L 280.231455 225.35646 
L 283.751636 218.969785 
L 287.271818 212.704033 
L 290.792 206.577307 
L 294.312182 200.609664 
L 297.832364 194.823584 
L 301.352545 189.244533 
L 304.872727 183.901621 
L 308.392909 178.828343 
L 311.913091 174.063339 
L 315.433273 169.65109 
L 318.953455 165.642313 
L 322.473636 162.093743 
L 325.993818 159.066823 
L 329.514 156.624802 
L 333.034182 154.827905 
L 336.554364 153.726838 
L 340.074545 153.355781 
" clip-path="url(#p243358d47b)" style="fill: none; stroke: #7dff7a; stroke-width: 1.5; stroke-linecap: square"/>
   </g>
   <g id="line2d_33">
    <path d="M 76.060909 27.686889 
L 77.85692 27.711101 
L 79.652931 27.783708 
L 81.448942 27.90462 
L 83.244954 28.07369 
L 85.040965 28.290706 
L 86.836976 28.555399 
L 88.632987 28.867431 
L 90.428998 29.226402 
L 92.225009 29.631842 
L 94.02102 30.08321 
L 95.817032 30.579888 
L 97.613043 31.121183 
L 99.409054 31.706313 
L 101.205065 32.33441 
L 103.001076 33.004509 
L 104.797087 33.715544 
L 106.593098 34.466336 
L 108.389109 35.255589 
L 110.185121 36.081875 
L 111.981132 36.943628 
L 113.777143 37.839126 
L 115.573154 38.766481 
L 117.369165 39.723623 
L 119.165176 40.708278 
L 120.961187 41.717957 
L 122.757199 42.749929 
L 124.55321 43.8012 
L 126.349221 44.868489 
L 128.145232 45.948205 
L 129.941243 47.036416 
L 131.737254 48.128824 
L 133.533265 49.220741 
L 135.329276 50.307061 
L 137.125288 51.382241 
L 138.921299 52.440288 
L 140.71731 53.474751 
L 142.513321 54.478733 
L 144.309332 55.444913 
L 146.105343 56.365597 
L 147.901354 57.232791 
L 149.697365 58.038314 
L 151.493377 58.773933 
L 153.289388 59.43155 
L 155.085399 60.003411 
L 156.88141 60.482344 
L 158.677421 60.862018 
L 160.473432 61.137186 
L 162.269443 61.303916 
L 164.065455 61.359767 
" clip-path="url(#p243358d47b)" style="fill: none; stroke-dasharray: 3.33,1.44; stroke-dashoffset: 0; stroke: #7dff7a; stroke-opacity: 0.8; stroke-width: 0.9"/>
   </g>
   <g id="line2d_34">
    <path d="M 428.079091 27.686889 
L 426.28308 27.711101 
L 424.487069 27.783708 
L 422.691058 27.90462 
L 420.895046 28.07369 
L 419.099035 28.290706 
L 417.303024 28.555399 
L 415.507013 28.867431 
L 413.711002 29.226402 
L 411.914991 29.631842 
L 410.11898 30.08321 
L 408.322968 30.579888 
L 406.526957 31.121183 
L 404.730946 31.706313 
L 402.934935 32.33441 
L 401.138924 33.004509 
L 399.342913 33.715544 
L 397.546902 34.466336 
L 395.750891 35.255589 
L 393.954879 36.081875 
L 392.158868 36.943628 
L 390.362857 37.839126 
L 388.566846 38.766481 
L 386.770835 39.723623 
L 384.974824 40.708278 
L 383.178813 41.717957 
L 381.382801 42.749929 
L 379.58679 43.8012 
L 377.790779 44.868489 
L 375.994768 45.948205 
L 374.198757 47.036416 
L 372.402746 48.128824 
L 370.606735 49.220741 
L 368.810724 50.307061 
L 367.014712 51.382241 
L 365.218701 52.440288 
L 363.42269 53.474751 
L 361.626679 54.478733 
L 359.830668 55.444913 
L 358.034657 56.365597 
L 356.238646 57.232791 
L 354.442635 58.038314 
L 352.646623 58.773933 
L 350.850612 59.43155 
L 349.054601 60.003411 
L 347.25859 60.482344 
L 345.462579 60.862018 
L 343.666568 61.137186 
L 341.870557 61.303916 
L 340.074545 61.359767 
" clip-path="url(#p243358d47b)" style="fill: none; stroke-dasharray: 3.33,1.44; stroke-dashoffset: 0; stroke: #7dff7a; stroke-opacity: 0.8; stroke-width: 0.9"/>
   </g>
   <g id="line2d_35">
    <path d="M 164.065455 61.359767 
L 167.585636 61.145959 
L 171.105818 60.516448 
L 174.626 59.504849 
L 178.146182 58.160924 
L 181.666364 56.543575 
L 185.186545 54.714348 
L 188.706727 52.732603 
L 192.226909 50.652608 
L 195.747091 48.522229 
L 199.267273 46.382702 
L 202.787455 44.269039 
L 206.307636 42.210699 
L 209.827818 40.232362 
L 213.348 38.354648 
L 216.868182 36.594777 
L 220.388364 34.967114 
L 223.908545 33.483629 
L 227.428727 32.154266 
L 230.948909 30.987243 
L 234.469091 29.98929 
L 237.989273 29.165831 
L 241.509455 28.521129 
L 245.029636 28.058397 
L 248.549818 27.779876 
L 252.07 27.686889 
L 255.590182 27.779876 
L 259.110364 28.058397 
L 262.630545 28.521129 
L 266.150727 29.165831 
L 269.670909 29.98929 
L 273.191091 30.987243 
L 276.711273 32.154266 
L 280.231455 33.483629 
L 283.751636 34.967114 
L 287.271818 36.594777 
L 290.792 38.354648 
L 294.312182 40.232362 
L 297.832364 42.210699 
L 301.352545 44.269039 
L 304.872727 46.382702 
L 308.392909 48.522229 
L 311.913091 50.652608 
L 315.433273 52.732603 
L 318.953455 54.714348 
L 322.473636 56.543575 
L 325.993818 58.160924 
L 329.514 59.504849 
L 333.034182 60.516448 
L 336.554364 61.145959 
L 340.074545 61.359767 
" clip-path="url(#p243358d47b)" style="fill: none; stroke: #7dff7a; stroke-width: 1.5; stroke-linecap: square"/>
   </g>
   <g id="line2d_36">
    <path d="M 164.065455 145.202078 
L 167.585636 145.63746 
L 171.105818 146.923729 
L 174.626 149.006062 
L 178.146182 151.806604 
L 181.666364 155.238053 
L 185.186545 159.214456 
L 188.706727 163.657622 
L 192.226909 168.499724 
L 195.747091 173.683462 
L 199.267273 179.161 
L 202.787455 184.892471 
L 206.307636 190.844476 
L 209.827818 196.988754 
L 213.348 203.301078 
L 216.868182 209.760379 
L 220.388364 216.348042 
L 223.908545 223.047368 
L 227.428727 229.843147 
L 230.948909 236.721332 
L 234.469091 243.668774 
L 237.989273 250.673018 
L 241.509455 257.722138 
L 245.029636 264.804597 
L 248.549818 271.909137 
L 252.07 279.024673 
L 255.590182 271.909137 
L 259.110364 264.804597 
L 262.630545 257.722138 
L 266.150727 250.673018 
L 269.670909 243.668774 
L 273.191091 236.721332 
L 276.711273 229.843147 
L 280.231455 223.047368 
L 283.751636 216.348042 
L 287.271818 209.760379 
L 290.792 203.301078 
L 294.312182 196.988754 
L 297.832364 190.844476 
L 301.352545 184.892471 
L 304.872727 179.161 
L 308.392909 173.683462 
L 311.913091 168.499724 
L 315.433273 163.657622 
L 318.953455 159.214456 
L 322.473636 155.238053 
L 325.993818 151.806604 
L 329.514 149.006062 
L 333.034182 146.923729 
L 336.554364 145.63746 
L 340.074545 145.202078 
" clip-path="url(#p243358d47b)" style="fill: none; stroke: #e4ff13; stroke-width: 1.5; stroke-linecap: square"/>
   </g>
   <g id="line2d_37">
    <path d="M 76.060909 27.686889 
L 77.85692 27.71312 
L 79.652931 27.791785 
L 81.448942 27.922807 
L 83.244954 28.106058 
L 85.040965 28.341355 
L 86.836976 28.628461 
L 88.632987 28.967083 
L 90.428998 29.356873 
L 92.225009 29.79742 
L 94.02102 30.288251 
L 95.817032 30.828827 
L 97.613043 31.418538 
L 99.409054 32.0567 
L 101.205065 32.742548 
L 103.001076 33.475231 
L 104.797087 34.253805 
L 106.593098 35.077224 
L 108.389109 35.944331 
L 110.185121 36.853849 
L 111.981132 37.804366 
L 113.777143 38.794323 
L 115.573154 39.821999 
L 117.369165 40.88549 
L 119.165176 41.982691 
L 120.961187 43.111272 
L 122.757199 44.268648 
L 124.55321 45.451957 
L 126.349221 46.658016 
L 128.145232 47.883289 
L 129.941243 49.123845 
L 131.737254 50.375309 
L 133.533265 51.632814 
L 135.329276 52.890945 
L 137.125288 54.143689 
L 138.921299 55.384378 
L 140.71731 56.605643 
L 142.513321 57.799375 
L 144.309332 58.956701 
L 146.105343 60.067997 
L 147.901354 61.122929 
L 149.697365 62.11055 
L 151.493377 63.01947 
L 153.289388 63.838093 
L 155.085399 64.554951 
L 156.88141 65.159108 
L 158.677421 65.640632 
L 160.473432 65.991102 
L 162.269443 66.204084 
L 164.065455 66.275538 
" clip-path="url(#p243358d47b)" style="fill: none; stroke-dasharray: 3.33,1.44; stroke-dashoffset: 0; stroke: #e4ff13; stroke-opacity: 0.8; stroke-width: 0.9"/>
   </g>
   <g id="line2d_38">
    <path d="M 428.079091 27.686889 
L 426.28308 27.71312 
L 424.487069 27.791785 
L 422.691058 27.922807 
L 420.895046 28.106058 
L 419.099035 28.341355 
L 417.303024 28.628461 
L 415.507013 28.967083 
L 413.711002 29.356873 
L 411.914991 29.79742 
L 410.11898 30.288251 
L 408.322968 30.828827 
L 406.526957 31.418538 
L 404.730946 32.0567 
L 402.934935 32.742548 
L 401.138924 33.475231 
L 399.342913 34.253805 
L 397.546902 35.077224 
L 395.750891 35.944331 
L 393.954879 36.853849 
L 392.158868 37.804366 
L 390.362857 38.794323 
L 388.566846 39.821999 
L 386.770835 40.88549 
L 384.974824 41.982691 
L 383.178813 43.111272 
L 381.382801 44.268648 
L 379.58679 45.451957 
L 377.790779 46.658016 
L 375.994768 47.883289 
L 374.198757 49.123845 
L 372.402746 50.375309 
L 370.606735 51.632814 
L 368.810724 52.890945 
L 367.014712 54.143689 
L 365.218701 55.384378 
L 363.42269 56.605643 
L 361.626679 57.799375 
L 359.830668 58.956701 
L 358.034657 60.067997 
L 356.238646 61.122929 
L 354.442635 62.11055 
L 352.646623 63.01947 
L 350.850612 63.838093 
L 349.054601 64.554951 
L 347.25859 65.159108 
L 345.462579 65.640632 
L 343.666568 65.991102 
L 341.870557 66.204084 
L 340.074545 66.275538 
" clip-path="url(#p243358d47b)" style="fill: none; stroke-dasharray: 3.33,1.44; stroke-dashoffset: 0; stroke: #e4ff13; stroke-opacity: 0.8; stroke-width: 0.9"/>
   </g>
   <g id="line2d_39">
    <path d="M 164.065455 66.275538 
L 167.585636 66.002296 
L 171.105818 65.202265 
L 174.626 63.929712 
L 178.146182 62.261566 
L 181.666364 60.283835 
L 185.186545 58.080804 
L 188.706727 55.728625 
L 192.226909 53.292714 
L 195.747091 50.827585 
L 199.267273 48.377912 
L 202.787455 45.98002 
L 206.307636 43.663388 
L 209.827818 41.451969 
L 213.348 39.365292 
L 216.868182 37.419335 
L 220.388364 35.627217 
L 223.908545 33.99973 
L 227.428727 32.545751 
L 230.948909 31.272561 
L 234.469091 30.186087 
L 237.989273 29.291085 
L 241.509455 28.591282 
L 245.029636 28.08948 
L 248.549818 27.787632 
L 252.07 27.686889 
L 255.590182 27.787632 
L 259.110364 28.08948 
L 262.630545 28.591282 
L 266.150727 29.291085 
L 269.670909 30.186087 
L 273.191091 31.272561 
L 276.711273 32.545751 
L 280.231455 33.99973 
L 283.751636 35.627217 
L 287.271818 37.419335 
L 290.792 39.365292 
L 294.312182 41.451969 
L 297.832364 43.663388 
L 301.352545 45.98002 
L 304.872727 48.377912 
L 308.392909 50.827585 
L 311.913091 53.292714 
L 315.433273 55.728625 
L 318.953455 58.080804 
L 322.473636 60.283835 
L 325.993818 62.261566 
L 329.514 63.929712 
L 333.034182 65.202265 
L 336.554364 66.002296 
L 340.074545 66.275538 
" clip-path="url(#p243358d47b)" style="fill: none; stroke: #e4ff13; stroke-width: 1.5; stroke-linecap: square"/>
   </g>
   <g id="line2d_40">
    <path d="M 164.065455 136.132278 
L 167.585636 136.668826 
L 171.105818 138.240143 
L 174.626 140.745174 
L 178.146182 144.05146 
L 181.666364 148.024669 
L 185.186545 152.545869 
L 188.706727 157.517272 
L 192.226909 162.861335 
L 195.747091 168.517338 
L 199.267273 174.437611 
L 202.787455 180.584288 
L 206.307636 186.926756 
L 209.827818 193.439748 
L 213.348 200.101947 
L 216.868182 206.894966 
L 220.388364 213.802603 
L 223.908545 220.810297 
L 227.428727 227.904725 
L 230.948909 235.073506 
L 234.469091 242.304965 
L 237.989273 249.587969 
L 241.509455 256.911784 
L 245.029636 264.265974 
L 248.549818 271.640304 
L 252.07 279.024673 
L 255.590182 271.640304 
L 259.110364 264.265974 
L 262.630545 256.911784 
L 266.150727 249.587969 
L 269.670909 242.304965 
L 273.191091 235.073506 
L 276.711273 227.904725 
L 280.231455 220.810297 
L 283.751636 213.802603 
L 287.271818 206.894966 
L 290.792 200.101947 
L 294.312182 193.439748 
L 297.832364 186.926756 
L 301.352545 180.584288 
L 304.872727 174.437611 
L 308.392909 168.517338 
L 311.913091 162.861335 
L 315.433273 157.517272 
L 318.953455 152.545869 
L 322.473636 148.024669 
L 325.993818 144.05146 
L 329.514 140.745174 
L 333.034182 138.240143 
L 336.554364 136.668826 
L 340.074545 136.132278 
" clip-path="url(#p243358d47b)" style="fill: none; stroke: #ff9400; stroke-width: 1.5; stroke-linecap: square"/>
   </g>
   <g id="line2d_41">
    <path d="M 76.060909 27.686889 
L 77.85692 27.715138 
L 79.652931 27.799863 
L 81.448942 27.941001 
L 83.244954 28.138448 
L 85.040965 28.392055 
L 86.836976 28.70163 
L 88.632987 29.066936 
L 90.428998 29.48769 
L 92.225009 29.963557 
L 94.02102 30.494155 
L 95.817032 31.079046 
L 97.613043 31.717734 
L 99.409054 32.409664 
L 101.205065 33.154214 
L 103.001076 33.950692 
L 104.797087 34.798328 
L 106.593098 35.696269 
L 108.389109 36.643568 
L 110.185121 37.639178 
L 111.981132 38.681936 
L 113.777143 39.770554 
L 115.573154 40.903602 
L 117.369165 42.079488 
L 119.165176 43.296439 
L 120.961187 44.552476 
L 122.757199 45.845384 
L 124.55321 47.172675 
L 126.349221 48.531554 
L 128.145232 49.918863 
L 129.941243 51.331029 
L 131.737254 52.763998 
L 133.533265 54.213159 
L 135.329276 55.673253 
L 137.125288 57.138269 
L 138.921299 58.601334 
L 140.71731 60.054584 
L 142.513321 61.489027 
L 144.309332 62.894407 
L 146.105343 64.25908 
L 147.901354 65.569919 
L 149.697365 66.812284 
L 151.493377 67.970089 
L 153.289388 69.026025 
L 155.085399 69.961991 
L 156.88141 70.759769 
L 158.677421 71.401964 
L 160.473432 71.873154 
L 162.269443 72.161131 
L 164.065455 72.258029 
" clip-path="url(#p243358d47b)" style="fill: none; stroke-dasharray: 3.33,1.44; stroke-dashoffset: 0; stroke: #ff9400; stroke-opacity: 0.8; stroke-width: 0.9"/>
   </g>
   <g id="line2d_42">
    <path d="M 428.079091 27.686889 
L 426.28308 27.715138 
L 424.487069 27.799863 
L 422.691058 27.941001 
L 420.895046 28.138448 
L 419.099035 28.392055 
L 417.303024 28.70163 
L 415.507013 29.066936 
L 413.711002 29.48769 
L 411.914991 29.963557 
L 410.11898 30.494155 
L 408.322968 31.079046 
L 406.526957 31.717734 
L 404.730946 32.409664 
L 402.934935 33.154214 
L 401.138924 33.950692 
L 399.342913 34.798328 
L 397.546902 35.696269 
L 395.750891 36.643568 
L 393.954879 37.639178 
L 392.158868 38.681936 
L 390.362857 39.770554 
L 388.566846 40.903602 
L 386.770835 42.079488 
L 384.974824 43.296439 
L 383.178813 44.552476 
L 381.382801 45.845384 
L 379.58679 47.172675 
L 377.790779 48.531554 
L 375.994768 49.918863 
L 374.198757 51.331029 
L 372.402746 52.763998 
L 370.606735 54.213159 
L 368.810724 55.673253 
L 367.014712 57.138269 
L 365.218701 58.601334 
L 363.42269 60.054584 
L 361.626679 61.489027 
L 359.830668 62.894407 
L 358.034657 64.25908 
L 356.238646 65.569919 
L 354.442635 66.812284 
L 352.646623 67.970089 
L 350.850612 69.026025 
L 349.054601 69.961991 
L 347.25859 70.759769 
L 345.462579 71.401964 
L 343.666568 71.873154 
L 341.870557 72.161131 
L 340.074545 72.258029 
" clip-path="url(#p243358d47b)" style="fill: none; stroke-dasharray: 3.33,1.44; stroke-dashoffset: 0; stroke: #ff9400; stroke-opacity: 0.8; stroke-width: 0.9"/>
   </g>
   <g id="line2d_43">
    <path d="M 164.065455 72.258029 
L 167.585636 71.888259 
L 171.105818 70.81709 
L 174.626 69.145037 
L 178.146182 67.003652 
L 181.666364 64.526001 
L 185.186545 61.829384 
L 188.706727 59.009598 
L 192.226909 56.141833 
L 195.747091 53.284091 
L 199.267273 50.480961 
L 202.787455 47.766868 
L 206.307636 45.168616 
L 209.827818 42.707297 
L 213.348 40.399685 
L 216.868182 38.259254 
L 220.388364 36.296918 
L 223.908545 34.521569 
L 227.428727 32.940475 
L 230.948909 31.559572 
L 234.469091 30.383678 
L 237.989273 29.416656 
L 241.509455 28.661533 
L 245.029636 28.120583 
L 248.549818 27.79539 
L 252.07 27.686889 
L 255.590182 27.79539 
L 259.110364 28.120583 
L 262.630545 28.661533 
L 266.150727 29.416656 
L 269.670909 30.383678 
L 273.191091 31.559572 
L 276.711273 32.940475 
L 280.231455 34.521569 
L 283.751636 36.296918 
L 287.271818 38.259254 
L 290.792 40.399685 
L 294.312182 42.707297 
L 297.832364 45.168616 
L 301.352545 47.766868 
L 304.872727 50.480961 
L 308.392909 53.284091 
L 311.913091 56.141833 
L 315.433273 59.009598 
L 318.953455 61.829384 
L 322.473636 64.526001 
L 325.993818 67.003652 
L 329.514 69.145037 
L 333.034182 70.81709 
L 336.554364 71.888259 
L 340.074545 72.258029 
" clip-path="url(#p243358d47b)" style="fill: none; stroke: #ff9400; stroke-width: 1.5; stroke-linecap: square"/>
   </g>
   <g id="line2d_44">
    <path d="M 164.065455 125.112342 
L 167.585636 125.8618 
L 171.105818 128.00191 
L 174.626 131.279189 
L 178.146182 135.421261 
L 181.666364 140.207654 
L 185.186545 145.48041 
L 188.706727 151.130839 
L 192.226909 157.084005 
L 195.747091 163.287031 
L 199.267273 169.701322 
L 202.787455 176.29762 
L 206.307636 183.05286 
L 209.827818 189.948159 
L 213.348 196.967514 
L 216.868182 204.096931 
L 220.388364 211.323847 
L 223.908545 218.636726 
L 227.428727 226.024775 
L 230.948909 233.477751 
L 234.469091 240.985813 
L 237.989273 248.539414 
L 241.509455 256.129225 
L 245.029636 263.746073 
L 248.549818 271.380889 
L 252.07 279.024673 
L 255.590182 271.380889 
L 259.110364 263.746073 
L 262.630545 256.129225 
L 266.150727 248.539414 
L 269.670909 240.985813 
L 273.191091 233.477751 
L 276.711273 226.024775 
L 280.231455 218.636726 
L 283.751636 211.323847 
L 287.271818 204.096931 
L 290.792 196.967514 
L 294.312182 189.948159 
L 297.832364 183.05286 
L 301.352545 176.29762 
L 304.872727 169.701322 
L 308.392909 163.287031 
L 311.913091 157.084005 
L 315.433273 151.130839 
L 318.953455 145.48041 
L 322.473636 140.207654 
L 325.993818 135.421261 
L 329.514 131.279189 
L 333.034182 128.00191 
L 336.554364 125.8618 
L 340.074545 125.112342 
" clip-path="url(#p243358d47b)" style="fill: none; stroke: #ff1e00; stroke-width: 1.5; stroke-linecap: square"/>
   </g>
   <g id="line2d_45">
    <path d="M 76.060909 27.686889 
L 77.85692 27.717156 
L 79.652931 27.807942 
L 81.448942 27.959201 
L 83.244954 28.170858 
L 85.040965 28.442806 
L 86.836976 28.774907 
L 88.632987 29.166991 
L 90.428998 29.618854 
L 92.225009 30.130259 
L 94.02102 30.700932 
L 95.817032 31.330563 
L 97.613043 32.018802 
L 99.409054 32.765256 
L 101.205065 33.569489 
L 103.001076 34.431017 
L 104.797087 35.349303 
L 106.593098 36.323754 
L 108.389109 37.353716 
L 110.185121 38.438466 
L 111.981132 39.577202 
L 113.777143 40.769042 
L 115.573154 42.013001 
L 117.369165 43.307989 
L 119.165176 44.652787 
L 120.961187 46.046032 
L 122.757199 47.486191 
L 124.55321 48.971531 
L 126.349221 50.500087 
L 128.145232 52.069614 
L 129.941243 53.677533 
L 131.737254 55.320865 
L 133.533265 56.996141 
L 135.329276 58.699297 
L 137.125288 60.425537 
L 138.921299 62.169159 
L 140.71731 63.923342 
L 142.513321 65.679866 
L 144.309332 67.428775 
L 146.105343 69.157951 
L 147.901354 70.852616 
L 149.697365 72.494746 
L 151.493377 74.06248 
L 153.289388 75.52959 
L 155.085399 76.865259 
L 156.88141 78.034478 
L 158.677421 78.999539 
L 160.473432 79.723011 
L 162.269443 80.172258 
L 164.065455 80.324708 
" clip-path="url(#p243358d47b)" style="fill: none; stroke-dasharray: 3.33,1.44; stroke-dashoffset: 0; stroke: #ff1e00; stroke-opacity: 0.8; stroke-width: 0.9"/>
   </g>
   <g id="line2d_46">
    <path d="M 428.079091 27.686889 
L 426.28308 27.717156 
L 424.487069 27.807942 
L 422.691058 27.959201 
L 420.895046 28.170858 
L 419.099035 28.442806 
L 417.303024 28.774907 
L 415.507013 29.166991 
L 413.711002 29.618854 
L 411.914991 30.130259 
L 410.11898 30.700932 
L 408.322968 31.330563 
L 406.526957 32.018802 
L 404.730946 32.765256 
L 402.934935 33.569489 
L 401.138924 34.431017 
L 399.342913 35.349303 
L 397.546902 36.323754 
L 395.750891 37.353716 
L 393.954879 38.438466 
L 392.158868 39.577202 
L 390.362857 40.769042 
L 388.566846 42.013001 
L 386.770835 43.307989 
L 384.974824 44.652787 
L 383.178813 46.046032 
L 381.382801 47.486191 
L 379.58679 48.971531 
L 377.790779 50.500087 
L 375.994768 52.069614 
L 374.198757 53.677533 
L 372.402746 55.320865 
L 370.606735 56.996141 
L 368.810724 58.699297 
L 367.014712 60.425537 
L 365.218701 62.169159 
L 363.42269 63.923342 
L 361.626679 65.679866 
L 359.830668 67.428775 
L 358.034657 69.157951 
L 356.238646 70.852616 
L 354.442635 72.494746 
L 352.646623 74.06248 
L 350.850612 75.52959 
L 349.054601 76.865259 
L 347.25859 78.034478 
L 345.462579 78.999539 
L 343.666568 79.723011 
L 341.870557 80.172258 
L 340.074545 80.324708 
" clip-path="url(#p243358d47b)" style="fill: none; stroke-dasharray: 3.33,1.44; stroke-dashoffset: 0; stroke: #ff1e00; stroke-opacity: 0.8; stroke-width: 0.9"/>
   </g>
   <g id="line2d_47">
    <path d="M 164.065455 80.324708 
L 167.585636 79.746436 
L 171.105818 78.119704 
L 174.626 75.697465 
L 178.146182 72.75121 
L 181.666364 69.500171 
L 185.186545 66.100716 
L 188.706727 62.659591 
L 192.226909 59.249435 
L 195.747091 55.920483 
L 199.267273 52.708331 
L 202.787455 49.638897 
L 206.307636 46.731555 
L 209.827818 44.00115 
L 213.348 41.459305 
L 216.868182 39.115284 
L 220.388364 36.976579 
L 223.908545 35.049311 
L 227.428727 33.338507 
L 230.948909 31.8483 
L 234.469091 30.582071 
L 237.989273 29.542548 
L 241.509455 28.731884 
L 245.029636 28.151705 
L 248.549818 27.803149 
L 252.07 27.686889 
L 255.590182 27.803149 
L 259.110364 28.151705 
L 262.630545 28.731884 
L 266.150727 29.542548 
L 269.670909 30.582071 
L 273.191091 31.8483 
L 276.711273 33.338507 
L 280.231455 35.049311 
L 283.751636 36.976579 
L 287.271818 39.115284 
L 290.792 41.459305 
L 294.312182 44.00115 
L 297.832364 46.731555 
L 301.352545 49.638897 
L 304.872727 52.708331 
L 308.392909 55.920483 
L 311.913091 59.249435 
L 315.433273 62.659591 
L 318.953455 66.100716 
L 322.473636 69.500171 
L 325.993818 72.75121 
L 329.514 75.697465 
L 333.034182 78.119704 
L 336.554364 79.746436 
L 340.074545 80.324708 
" clip-path="url(#p243358d47b)" style="fill: none; stroke: #ff1e00; stroke-width: 1.5; stroke-linecap: square"/>
   </g>
   <g id="line2d_48">
    <path d="M 164.065455 101.302022 
L 167.585636 106.972121 
L 171.105818 112.812014 
L 174.626 118.81594 
L 178.146182 124.977973 
L 181.666364 131.29203 
L 185.186545 137.751883 
L 188.706727 144.351154 
L 192.226909 151.083332 
L 195.747091 157.941772 
L 199.267273 164.919707 
L 202.787455 172.01025 
L 206.307636 179.206403 
L 209.827818 186.501064 
L 213.348 193.887035 
L 216.868182 201.357027 
L 220.388364 208.903667 
L 223.908545 216.519508 
L 227.428727 224.197034 
L 230.948909 231.928669 
L 234.469091 239.706781 
L 237.989273 247.523696 
L 241.509455 255.371698 
L 245.029636 263.243043 
L 248.549818 271.129963 
L 252.07 279.024673 
L 255.590182 271.129963 
L 259.110364 263.243043 
L 262.630545 255.371698 
L 266.150727 247.523696 
L 269.670909 239.706781 
L 273.191091 231.928669 
L 276.711273 224.197034 
L 280.231455 216.519508 
L 283.751636 208.903667 
L 287.271818 201.357027 
L 290.792 193.887035 
L 294.312182 186.501064 
L 297.832364 179.206403 
L 301.352545 172.01025 
L 304.872727 164.919707 
L 308.392909 157.941772 
L 311.913091 151.083332 
L 315.433273 144.351154 
L 318.953455 137.751883 
L 322.473636 131.29203 
L 325.993818 124.977973 
L 329.514 118.81594 
L 333.034182 112.812014 
L 336.554364 106.972121 
L 340.074545 101.302022 
" clip-path="url(#p243358d47b)" style="fill: none; stroke: #800000; stroke-width: 1.5; stroke-linecap: square"/>
   </g>
   <g id="line2d_49">
    <path d="M 76.060909 27.686889 
L 77.85692 27.719175 
L 79.652931 27.816022 
L 81.448942 27.977408 
L 83.244954 28.20329 
L 85.040965 28.493609 
L 86.836976 28.848293 
L 88.632987 29.267248 
L 90.428998 29.750369 
L 92.225009 30.29753 
L 94.02102 30.908591 
L 95.817032 31.583396 
L 97.613043 32.32177 
L 99.409054 33.123524 
L 101.205065 33.988452 
L 103.001076 34.916332 
L 104.797087 35.906926 
L 106.593098 36.959978 
L 108.389109 38.075219 
L 110.185121 39.252362 
L 111.981132 40.491105 
L 113.777143 41.791129 
L 115.573154 43.1521 
L 117.369165 44.573668 
L 119.165176 46.055469 
L 120.961187 47.597122 
L 122.757199 49.198231 
L 124.55321 50.858384 
L 126.349221 52.577155 
L 128.145232 54.354101 
L 129.941243 56.188768 
L 131.737254 58.080683 
L 133.533265 60.029361 
L 135.329276 62.0343 
L 137.125288 64.094986 
L 138.921299 66.210889 
L 140.71731 68.381466 
L 142.513321 70.606159 
L 144.309332 72.884396 
L 146.105343 75.215593 
L 147.901354 77.599149 
L 149.697365 80.034454 
L 151.493377 82.520881 
L 153.289388 85.057791 
L 155.085399 87.644533 
L 156.88141 90.280443 
L 158.677421 92.964842 
L 160.473432 95.697041 
L 162.269443 98.476339 
L 164.065455 101.302022 
" clip-path="url(#p243358d47b)" style="fill: none; stroke-dasharray: 3.33,1.44; stroke-dashoffset: 0; stroke: #800000; stroke-opacity: 0.8; stroke-width: 0.9"/>
   </g>
   <g id="line2d_50">
    <path d="M 428.079091 27.686889 
L 426.28308 27.719175 
L 424.487069 27.816022 
L 422.691058 27.977408 
L 420.895046 28.20329 
L 419.099035 28.493609 
L 417.303024 28.848293 
L 415.507013 29.267248 
L 413.711002 29.750369 
L 411.914991 30.29753 
L 410.11898 30.908591 
L 408.322968 31.583396 
L 406.526957 32.32177 
L 404.730946 33.123524 
L 402.934935 33.988452 
L 401.138924 34.916332 
L 399.342913 35.906926 
L 397.546902 36.959978 
L 395.750891 38.075219 
L 393.954879 39.252362 
L 392.158868 40.491105 
L 390.362857 41.791129 
L 388.566846 43.1521 
L 386.770835 44.573668 
L 384.974824 46.055469 
L 383.178813 47.597122 
L 381.382801 49.198231 
L 379.58679 50.858384 
L 377.790779 52.577155 
L 375.994768 54.354101 
L 374.198757 56.188768 
L 372.402746 58.080683 
L 370.606735 60.029361 
L 368.810724 62.0343 
L 367.014712 64.094986 
L 365.218701 66.210889 
L 363.42269 68.381466 
L 361.626679 70.606159 
L 359.830668 72.884396 
L 358.034657 75.215593 
L 356.238646 77.599149 
L 354.442635 80.034454 
L 352.646623 82.520881 
L 350.850612 85.057791 
L 349.054601 87.644533 
L 347.25859 90.280443 
L 345.462579 92.964842 
L 343.666568 95.697041 
L 341.870557 98.476339 
L 340.074545 101.302022 
" clip-path="url(#p243358d47b)" style="fill: none; stroke-dasharray: 3.33,1.44; stroke-dashoffset: 0; stroke: #800000; stroke-opacity: 0.8; stroke-width: 0.9"/>
   </g>
   <g id="line2d_51">
    <path d="M 164.065455 101.302022 
L 167.585636 95.807314 
L 171.105818 90.493419 
L 174.626 85.365582 
L 178.146182 80.428863 
L 181.666364 75.688135 
L 185.186545 71.148074 
L 188.706727 66.813163 
L 192.226909 62.68768 
L 195.747091 58.775694 
L 199.267273 55.081068 
L 202.787455 51.607447 
L 206.307636 48.358259 
L 209.827818 45.336712 
L 213.348 42.545786 
L 216.868182 39.988236 
L 220.388364 37.666586 
L 223.908545 35.583128 
L 227.428727 33.739917 
L 230.948909 32.138772 
L 234.469091 30.781274 
L 237.989273 29.668763 
L 241.509455 28.802335 
L 245.029636 28.182847 
L 248.549818 27.810909 
L 252.07 27.686889 
L 255.590182 27.810909 
L 259.110364 28.182847 
L 262.630545 28.802335 
L 266.150727 29.668763 
L 269.670909 30.781274 
L 273.191091 32.138772 
L 276.711273 33.739917 
L 280.231455 35.583128 
L 283.751636 37.666586 
L 287.271818 39.988236 
L 290.792 42.545786 
L 294.312182 45.336712 
L 297.832364 48.358259 
L 301.352545 51.607447 
L 304.872727 55.081068 
L 308.392909 58.775694 
L 311.913091 62.68768 
L 315.433273 66.813163 
L 318.953455 71.148074 
L 322.473636 75.688135 
L 325.993818 80.428863 
L 329.514 85.365582 
L 333.034182 90.493419 
L 336.554364 95.807314 
L 340.074545 101.302022 
" clip-path="url(#p243358d47b)" style="fill: none; stroke: #800000; stroke-width: 1.5; stroke-linecap: square"/>
   </g>
   <g id="line2d_52">
    <path d="M 164.065455 291.591563 
L 164.065455 15.12 
" clip-path="url(#p243358d47b)" style="fill: none; stroke-dasharray: 9.6,2.4,1.5,2.4; stroke-dashoffset: 0; stroke: #000000; stroke-width: 1.5"/>
   </g>
   <g id="line2d_53">
    <path d="M 340.074545 291.591563 
L 340.074545 15.12 
" clip-path="url(#p243358d47b)" style="fill: none; stroke-dasharray: 9.6,2.4,1.5,2.4; stroke-dashoffset: 0; stroke: #000000; stroke-width: 1.5"/>
   </g>
   <g id="patch_3">
    <path d="M 58.46 291.591563 
L 58.46 15.12 
" style="fill: none; stroke: #000000; stroke-width: 0.8; stroke-linejoin: miter; stroke-linecap: square"/>
   </g>
   <g id="patch_4">
    <path d="M 445.68 291.591563 
L 445.68 15.12 
" style="fill: none; stroke: #000000; stroke-width: 0.8; stroke-linejoin: miter; stroke-linecap: square"/>
   </g>
   <g id="patch_5">
    <path d="M 58.46 291.591563 
L 445.68 291.591563 
" style="fill: none; stroke: #000000; stroke-width: 0.8; stroke-linejoin: miter; stroke-linecap: square"/>
   </g>
   <g id="patch_6">
    <path d="M 58.46 15.12 
L 445.68 15.12 
" style="fill: none; stroke: #000000; stroke-width: 0.8; stroke-linejoin: miter; stroke-linecap: square"/>
   </g>
   <g id="legend_1">
    <g id="patch_7">
     <path d="M 68.26 284.591563 
L 148.69 284.591563 
Q 151.49 284.591563 151.49 281.791562 
L 151.49 82.45125 
Q 151.49 79.65125 148.69 79.65125 
L 68.26 79.65125 
Q 65.46 79.65125 65.46 82.45125 
L 65.46 281.791562 
Q 65.46 284.591563 68.26 284.591563 
z
" style="fill: #ffffff; opacity: 0.8; stroke: #cccccc; stroke-linejoin: miter"/>
    </g>
    <g id="text_18">
     <!-- $\alpha$ -->
     <g transform="translate(103.995 95.022812)scale(0.14 -0.14)">
      <defs>
       <path id="Cmmi10-ae" d="M 1288 -72 
Q 984 -72 748 72 
Q 513 216 384 459 
Q 256 703 256 1013 
Q 256 1447 498 1872 
Q 741 2297 1142 2562 
Q 1544 2828 1984 2828 
Q 2309 2828 2556 2658 
Q 2803 2488 2931 2205 
Q 3059 1922 3059 1600 
L 3066 1172 
Q 3284 1475 3436 1801 
Q 3588 2128 3669 2478 
Q 3681 2516 3719 2516 
L 3794 2516 
Q 3853 2516 3853 2456 
Q 3853 2450 3847 2438 
Q 3772 2144 3659 1873 
Q 3547 1603 3395 1350 
Q 3244 1097 3066 891 
Q 3066 97 3250 97 
Q 3369 97 3445 167 
Q 3522 238 3580 341 
Q 3638 444 3653 447 
L 3731 447 
Q 3781 447 3781 384 
Q 3781 225 3598 76 
Q 3416 -72 3238 -72 
Q 3006 -72 2853 78 
Q 2700 228 2644 469 
Q 2344 213 1994 70 
Q 1644 -72 1288 -72 
z
M 1300 97 
Q 1984 97 2613 659 
Q 2609 697 2603 751 
Q 2597 806 2597 813 
L 2597 1503 
Q 2597 2663 1972 2663 
Q 1597 2663 1315 2342 
Q 1034 2022 892 1576 
Q 750 1131 750 763 
Q 750 484 892 290 
Q 1034 97 1300 97 
z
" transform="scale(0.015625)"/>
      </defs>
      <use xlink:href="#Cmmi10-ae" transform="translate(0 0.8125)"/>
     </g>
    </g>
    <g id="line2d_54">
     <path d="M 71.06 110.199687 
L 85.06 110.199687 
L 99.06 110.199687 
" style="fill: none; stroke: #000080; stroke-width: 1.5; stroke-linecap: square"/>
    </g>
    <g id="text_19">
     <!-- 0.5 -->
     <g transform="translate(110.26 115.099687)scale(0.14 -0.14)">
      <defs>
       <path id="LibertinusSerif-Regular-35" d="M 2042 1210 
C 2042 602 1722 154 1338 154 
C 1094 154 1011 314 915 442 
C 832 550 723 646 589 646 
C 467 646 346 538 346 410 
C 346 147 890 -70 1254 -70 
C 2048 -70 2611 518 2611 1325 
C 2611 1946 2182 2502 1466 2502 
C 1190 2502 954 2445 838 2400 
L 966 3469 
C 1203 3443 1408 3411 1715 3411 
C 1907 3411 2125 3424 2387 3450 
L 2490 3885 
L 2445 3910 
C 2080 3872 1734 3840 1395 3840 
C 1158 3840 928 3853 704 3872 
L 486 2029 
C 826 2157 1069 2182 1299 2182 
C 1715 2182 2042 1907 2042 1210 
z
" transform="scale(0.015625)"/>
      </defs>
      <use xlink:href="#LibertinusSerif-Regular-30"/>
      <use xlink:href="#LibertinusSerif-Regular-2e" x="46.499985"/>
      <use xlink:href="#LibertinusSerif-Regular-35" x="68.499969"/>
     </g>
    </g>
    <g id="line2d_55">
     <path d="M 71.06 130.276562 
L 85.06 130.276562 
L 99.06 130.276562 
" style="fill: none; stroke: #0000ff; stroke-width: 1.5; stroke-linecap: square"/>
    </g>
    <g id="text_20">
     <!-- 0.5625 -->
     <g transform="translate(110.26 135.176562)scale(0.14 -0.14)">
      <use xlink:href="#LibertinusSerif-Regular-30"/>
      <use xlink:href="#LibertinusSerif-Regular-2e" x="46.499985"/>
      <use xlink:href="#LibertinusSerif-Regular-35" x="68.499969"/>
      <use xlink:href="#LibertinusSerif-Regular-36" x="114.999954"/>
      <use xlink:href="#LibertinusSerif-Regular-32" x="161.499939"/>
      <use xlink:href="#LibertinusSerif-Regular-35" x="207.999924"/>
     </g>
    </g>
    <g id="line2d_56">
     <path d="M 71.06 150.353437 
L 85.06 150.353437 
L 99.06 150.353437 
" style="fill: none; stroke: #0080ff; stroke-width: 1.5; stroke-linecap: square"/>
    </g>
    <g id="text_21">
     <!-- 0.625 -->
     <g transform="translate(110.26 155.253437)scale(0.14 -0.14)">
      <use xlink:href="#LibertinusSerif-Regular-30"/>
      <use xlink:href="#LibertinusSerif-Regular-2e" x="46.499985"/>
      <use xlink:href="#LibertinusSerif-Regular-36" x="68.499969"/>
      <use xlink:href="#LibertinusSerif-Regular-32" x="114.999954"/>
      <use xlink:href="#LibertinusSerif-Regular-35" x="161.499939"/>
     </g>
    </g>
    <g id="line2d_57">
     <path d="M 71.06 170.430312 
L 85.06 170.430312 
L 99.06 170.430312 
" style="fill: none; stroke: #16ffe1; stroke-width: 1.5; stroke-linecap: square"/>
    </g>
    <g id="text_22">
     <!-- 0.6875 -->
     <g transform="translate(110.26 175.330312)scale(0.14 -0.14)">
      <defs>
       <path id="LibertinusSerif-Regular-37" d="M 1088 3424 
L 2234 3424 
C 1734 2182 1229 934 794 -38 
L 845 -83 
L 1280 -64 
C 1645 1024 1997 2086 2714 3834 
L 2611 3910 
C 2502 3878 2362 3840 2118 3840 
L 800 3840 
C 582 3840 595 3904 480 3930 
C 461 3930 454 3930 454 3910 
C 448 3603 378 3219 326 2886 
C 397 2867 461 2861 531 2867 
C 672 3379 883 3424 1088 3424 
z
" transform="scale(0.015625)"/>
      </defs>
      <use xlink:href="#LibertinusSerif-Regular-30"/>
      <use xlink:href="#LibertinusSerif-Regular-2e" x="46.499985"/>
      <use xlink:href="#LibertinusSerif-Regular-36" x="68.499969"/>
      <use xlink:href="#LibertinusSerif-Regular-38" x="114.999954"/>
      <use xlink:href="#LibertinusSerif-Regular-37" x="161.499939"/>
      <use xlink:href="#LibertinusSerif-Regular-35" x="207.999924"/>
     </g>
    </g>
    <g id="line2d_58">
     <path d="M 71.06 190.507187 
L 85.06 190.507187 
L 99.06 190.507187 
" style="fill: none; stroke: #7dff7a; stroke-width: 1.5; stroke-linecap: square"/>
    </g>
    <g id="text_23">
     <!-- 0.75 -->
     <g transform="translate(110.26 195.407187)scale(0.14 -0.14)">
      <use xlink:href="#LibertinusSerif-Regular-30"/>
      <use xlink:href="#LibertinusSerif-Regular-2e" x="46.499985"/>
      <use xlink:href="#LibertinusSerif-Regular-37" x="68.499969"/>
      <use xlink:href="#LibertinusSerif-Regular-35" x="114.999954"/>
     </g>
    </g>
    <g id="line2d_59">
     <path d="M 71.06 210.584062 
L 85.06 210.584062 
L 99.06 210.584062 
" style="fill: none; stroke: #e4ff13; stroke-width: 1.5; stroke-linecap: square"/>
    </g>
    <g id="text_24">
     <!-- 0.8125 -->
     <g transform="translate(110.26 215.484062)scale(0.14 -0.14)">
      <use xlink:href="#LibertinusSerif-Regular-30"/>
      <use xlink:href="#LibertinusSerif-Regular-2e" x="46.499985"/>
      <use xlink:href="#LibertinusSerif-Regular-38" x="68.499969"/>
      <use xlink:href="#LibertinusSerif-Regular-31" x="114.999954"/>
      <use xlink:href="#LibertinusSerif-Regular-32" x="161.499939"/>
      <use xlink:href="#LibertinusSerif-Regular-35" x="207.999924"/>
     </g>
    </g>
    <g id="line2d_60">
     <path d="M 71.06 230.660937 
L 85.06 230.660937 
L 99.06 230.660937 
" style="fill: none; stroke: #ff9400; stroke-width: 1.5; stroke-linecap: square"/>
    </g>
    <g id="text_25">
     <!-- 0.875 -->
     <g transform="translate(110.26 235.560937)scale(0.14 -0.14)">
      <use xlink:href="#LibertinusSerif-Regular-30"/>
      <use xlink:href="#LibertinusSerif-Regular-2e" x="46.499985"/>
      <use xlink:href="#LibertinusSerif-Regular-38" x="68.499969"/>
      <use xlink:href="#LibertinusSerif-Regular-37" x="114.999954"/>
      <use xlink:href="#LibertinusSerif-Regular-35" x="161.499939"/>
     </g>
    </g>
    <g id="line2d_61">
     <path d="M 71.06 250.737812 
L 85.06 250.737812 
L 99.06 250.737812 
" style="fill: none; stroke: #ff1e00; stroke-width: 1.5; stroke-linecap: square"/>
    </g>
    <g id="text_26">
     <!-- 0.9375 -->
     <g transform="translate(110.26 255.637812)scale(0.14 -0.14)">
      <defs>
       <path id="LibertinusSerif-Regular-39" d="M 2093 1638 
C 1920 1056 1510 410 659 90 
C 659 13 685 -45 736 -77 
C 1382 115 1779 384 2138 800 
C 2534 1261 2733 1843 2733 2349 
C 2733 3648 1997 3904 1504 3904 
C 666 3904 320 3091 320 2541 
C 320 1990 614 1498 1485 1498 
C 1651 1498 1901 1549 2093 1638 
z
M 2150 1869 
C 1939 1728 1728 1722 1619 1722 
C 992 1722 851 2336 851 2656 
C 851 3360 1120 3680 1434 3680 
C 1837 3680 2202 3462 2202 2368 
C 2202 2227 2189 2054 2150 1869 
z
" transform="scale(0.015625)"/>
       <path id="LibertinusSerif-Regular-33" d="M 1376 3680 
C 1651 3680 1907 3514 1907 3104 
C 1907 2784 1536 2291 902 2202 
L 934 1997 
C 1043 2010 1158 2010 1242 2010 
C 1606 2010 2080 1907 2080 1184 
C 2080 333 1510 160 1286 160 
C 960 160 902 307 826 422 
C 762 512 678 589 550 589 
C 416 589 282 467 282 365 
C 282 109 819 -64 1203 -64 
C 1965 -64 2643 429 2643 1274 
C 2643 1971 2118 2221 1741 2285 
L 1734 2298 
C 2259 2547 2406 2810 2406 3149 
C 2406 3341 2362 3494 2208 3654 
C 2067 3795 1843 3904 1510 3904 
C 570 3904 301 3290 301 3078 
C 301 2989 365 2861 518 2861 
C 742 2861 768 3072 768 3194 
C 768 3603 1210 3680 1376 3680 
z
" transform="scale(0.015625)"/>
      </defs>
      <use xlink:href="#LibertinusSerif-Regular-30"/>
      <use xlink:href="#LibertinusSerif-Regular-2e" x="46.499985"/>
      <use xlink:href="#LibertinusSerif-Regular-39" x="68.499969"/>
      <use xlink:href="#LibertinusSerif-Regular-33" x="114.999954"/>
      <use xlink:href="#LibertinusSerif-Regular-37" x="161.499939"/>
      <use xlink:href="#LibertinusSerif-Regular-35" x="207.999924"/>
     </g>
    </g>
    <g id="line2d_62">
     <path d="M 71.06 270.814687 
L 85.06 270.814687 
L 99.06 270.814687 
" style="fill: none; stroke: #800000; stroke-width: 1.5; stroke-linecap: square"/>
    </g>
    <g id="text_27">
     <!-- 1.0 -->
     <g transform="translate(110.26 275.714687)scale(0.14 -0.14)">
      <use xlink:href="#LibertinusSerif-Regular-31"/>
      <use xlink:href="#LibertinusSerif-Regular-2e" x="46.499985"/>
      <use xlink:href="#LibertinusSerif-Regular-30" x="68.499969"/>
     </g>
    </g>
   </g>
  </g>
 </g>
 <defs>
  <clipPath id="p243358d47b">
   <rect x="58.46" y="15.12" width="387.22" height="276.471563"/>
  </clipPath>
 </defs>
</svg>
