<?xml version="1.0" encoding="utf-8" standalone="no"?>
<!DOCTYPE svg PUBLIC "-//W3C//DTD SVG 1.1//EN"
  "http://www.w3.org/Graphics/SVG/1.1/DTD/svg11.dtd">
<svg xmlns:xlink="http://www.w3.org/1999/xlink" width="460.8pt" height="345.6pt" viewBox="0 0 460.8 345.6" xmlns="http://www.w3.org/2000/svg" version="1.1">
 <metadata>
  <rdf:RDF xmlns:dc="http://purl.org/dc/elements/1.1/" xmlns:cc="http://creativecommons.org/ns#" xmlns:rdf="http://www.w3.org/1999/02/22-rdf-syntax-ns#">
   <cc:Work>
    <dc:type rdf:resource="http://purl.org/dc/dcmitype/StillImage"/>
    <dc:date>2022-06-28T00:30:25.196620</dc:date>
    <dc:format>image/svg+xml</dc:format>
    <dc:creator>
     <cc:Agent>
      <dc:title>Matplotlib v3.5.2, https://matplotlib.org/</dc:title>
     </cc:Agent>
    </dc:creator>
   </cc:Work>
  </rdf:RDF>
 </metadata>
 <defs>
  <style type="text/css">*{stroke-linejoin: round; stroke-linecap: butt}</style>
 </defs>
 <g id="figure_1">
  <g id="patch_1">
   <path d="M 0 345.6 
L 460.8 345.6 
L 460.8 0 
L 0 0 
L 0 345.6 
z
" style="fill: none"/>
  </g>
  <g id="axes_1">
   <g id="patch_2">
    <path d="M 62.968438 291.591563 
L 445.68 291.591563 
L 445.68 15.12 
L 62.968438 15.12 
L 62.968438 291.591563 
z
" style="fill: none"/>
   </g>
   <g id="matplotlib.axis_1">
    <g id="xtick_1">
     <g id="line2d_1">
      <defs>
       <path id="m551d8c5dfc" d="M 0 0 
L 0 3.5 
" style="stroke: #000000; stroke-width: 0.8"/>
      </defs>
      <g>
       <use xlink:href="#m551d8c5dfc" x="88.204845" y="291.591563" style="stroke: #000000; stroke-width: 0.8"/>
      </g>
     </g>
     <g id="text_1">
      <!-- −3 -->
      <g transform="translate(81.099845 308.363125)scale(0.14 -0.14)">
       <defs>
        <path id="LibertinusSerif-Regular-2212" d="M 2963 1446 
C 3046 1446 3136 1594 3136 1658 
C 3136 1709 3110 1766 3046 1766 
L 544 1766 
C 467 1766 384 1645 384 1549 
C 384 1498 422 1446 480 1446 
L 2963 1446 
z
" transform="scale(0.015625)"/>
        <path id="LibertinusSerif-Regular-33" d="M 1376 3680 
C 1651 3680 1907 3514 1907 3104 
C 1907 2784 1536 2291 902 2202 
L 934 1997 
C 1043 2010 1158 2010 1242 2010 
C 1606 2010 2080 1907 2080 1184 
C 2080 333 1510 160 1286 160 
C 960 160 902 307 826 422 
C 762 512 678 589 550 589 
C 416 589 282 467 282 365 
C 282 109 819 -64 1203 -64 
C 1965 -64 2643 429 2643 1274 
C 2643 1971 2118 2221 1741 2285 
L 1734 2298 
C 2259 2547 2406 2810 2406 3149 
C 2406 3341 2362 3494 2208 3654 
C 2067 3795 1843 3904 1510 3904 
C 570 3904 301 3290 301 3078 
C 301 2989 365 2861 518 2861 
C 742 2861 768 3072 768 3194 
C 768 3603 1210 3680 1376 3680 
z
" transform="scale(0.015625)"/>
       </defs>
       <use xlink:href="#LibertinusSerif-Regular-2212"/>
       <use xlink:href="#LibertinusSerif-Regular-33" x="54.999985"/>
      </g>
     </g>
    </g>
    <g id="xtick_2">
     <g id="line2d_2">
      <g>
       <use xlink:href="#m551d8c5dfc" x="143.57797" y="291.591563" style="stroke: #000000; stroke-width: 0.8"/>
      </g>
     </g>
     <g id="text_2">
      <!-- −2 -->
      <g transform="translate(136.47297 308.363125)scale(0.14 -0.14)">
       <defs>
        <path id="LibertinusSerif-Regular-32" d="M 390 2995 
C 390 2861 512 2746 646 2746 
C 755 2746 947 2861 947 3002 
C 947 3053 934 3091 922 3136 
C 909 3181 870 3238 870 3290 
C 870 3450 1037 3680 1504 3680 
C 1734 3680 2061 3520 2061 2906 
C 2061 2496 1914 2163 1536 1779 
L 1062 1312 
C 435 672 333 365 333 -13 
C 333 -13 659 0 864 0 
L 1984 0 
C 2189 0 2483 -13 2483 -13 
C 2566 326 2630 806 2637 998 
C 2598 1030 2515 1043 2451 1030 
C 2342 576 2234 416 2003 416 
L 864 416 
C 864 723 1306 1158 1338 1190 
L 1984 1811 
C 2349 2163 2624 2445 2624 2931 
C 2624 3622 2061 3904 1542 3904 
C 832 3904 390 3379 390 2995 
z
" transform="scale(0.015625)"/>
       </defs>
       <use xlink:href="#LibertinusSerif-Regular-2212"/>
       <use xlink:href="#LibertinusSerif-Regular-32" x="54.999985"/>
      </g>
     </g>
    </g>
    <g id="xtick_3">
     <g id="line2d_3">
      <g>
       <use xlink:href="#m551d8c5dfc" x="198.951094" y="291.591563" style="stroke: #000000; stroke-width: 0.8"/>
      </g>
     </g>
     <g id="text_3">
      <!-- −1 -->
      <g transform="translate(191.846094 308.363125)scale(0.14 -0.14)">
       <defs>
        <path id="LibertinusSerif-Regular-31" d="M 1843 781 
L 1843 3002 
C 1843 3386 1850 3776 1862 3859 
C 1862 3891 1850 3891 1824 3891 
C 1472 3674 1133 3514 570 3251 
C 582 3181 608 3117 666 3078 
C 960 3200 1101 3238 1222 3238 
C 1331 3238 1350 3085 1350 2867 
L 1350 781 
C 1350 250 1178 218 730 198 
C 691 160 691 26 730 -13 
C 1043 -6 1274 0 1619 0 
C 1926 0 2080 -6 2400 -13 
C 2438 26 2438 160 2400 198 
C 1952 218 1843 250 1843 781 
z
" transform="scale(0.015625)"/>
       </defs>
       <use xlink:href="#LibertinusSerif-Regular-2212"/>
       <use xlink:href="#LibertinusSerif-Regular-31" x="54.999985"/>
      </g>
     </g>
    </g>
    <g id="xtick_4">
     <g id="line2d_4">
      <g>
       <use xlink:href="#m551d8c5dfc" x="254.324219" y="291.591563" style="stroke: #000000; stroke-width: 0.8"/>
      </g>
     </g>
     <g id="text_4">
      <!-- 0 -->
      <g transform="translate(251.069219 308.363125)scale(0.14 -0.14)">
       <defs>
        <path id="LibertinusSerif-Regular-30" d="M 1459 -64 
C 1952 -64 2701 435 2701 1939 
C 2701 2573 2547 3117 2266 3488 
C 2099 3712 1830 3904 1485 3904 
C 851 3904 250 3149 250 1882 
C 250 1197 461 557 813 205 
C 992 26 1210 -64 1459 -64 
z
M 1485 3680 
C 1594 3680 1696 3642 1773 3571 
C 1971 3405 2144 2918 2144 2061 
C 2144 1472 2125 1069 2035 742 
C 1894 218 1581 160 1466 160 
C 870 160 806 1254 806 1811 
C 806 3386 1197 3680 1485 3680 
z
" transform="scale(0.015625)"/>
       </defs>
       <use xlink:href="#LibertinusSerif-Regular-30"/>
      </g>
     </g>
    </g>
    <g id="xtick_5">
     <g id="line2d_5">
      <g>
       <use xlink:href="#m551d8c5dfc" x="309.697343" y="291.591563" style="stroke: #000000; stroke-width: 0.8"/>
      </g>
     </g>
     <g id="text_5">
      <!-- 1 -->
      <g transform="translate(306.442343 308.363125)scale(0.14 -0.14)">
       <use xlink:href="#LibertinusSerif-Regular-31"/>
      </g>
     </g>
    </g>
    <g id="xtick_6">
     <g id="line2d_6">
      <g>
       <use xlink:href="#m551d8c5dfc" x="365.070468" y="291.591563" style="stroke: #000000; stroke-width: 0.8"/>
      </g>
     </g>
     <g id="text_6">
      <!-- 2 -->
      <g transform="translate(361.815468 308.363125)scale(0.14 -0.14)">
       <use xlink:href="#LibertinusSerif-Regular-32"/>
      </g>
     </g>
    </g>
    <g id="xtick_7">
     <g id="line2d_7">
      <g>
       <use xlink:href="#m551d8c5dfc" x="420.443592" y="291.591563" style="stroke: #000000; stroke-width: 0.8"/>
      </g>
     </g>
     <g id="text_7">
      <!-- 3 -->
      <g transform="translate(417.188592 308.363125)scale(0.14 -0.14)">
       <use xlink:href="#LibertinusSerif-Regular-33"/>
      </g>
     </g>
    </g>
    <g id="text_8">
     <!-- $k$ (in units of $a^{-1}$) -->
     <g transform="translate(202.874219 327.203125)scale(0.14 -0.14)">
      <defs>
       <path id="Cmmi10-6b" d="M 341 116 
Q 341 153 347 172 
L 1275 3872 
Q 1300 3981 1306 4044 
Q 1306 4147 891 4147 
Q 825 4147 825 4231 
Q 828 4247 839 4287 
Q 850 4328 867 4350 
Q 884 4372 916 4372 
L 1778 4441 
L 1797 4441 
Q 1797 4434 1819 4423 
Q 1841 4413 1844 4409 
Q 1856 4378 1856 4359 
L 1184 1684 
Q 1416 1781 1767 2145 
Q 2119 2509 2317 2668 
Q 2516 2828 2816 2828 
Q 2994 2828 3119 2706 
Q 3244 2584 3244 2406 
Q 3244 2294 3197 2198 
Q 3150 2103 3065 2043 
Q 2981 1984 2869 1984 
Q 2766 1984 2695 2048 
Q 2625 2113 2625 2216 
Q 2625 2369 2733 2473 
Q 2841 2578 2994 2578 
Q 2931 2663 2803 2663 
Q 2613 2663 2436 2553 
Q 2259 2444 2054 2239 
Q 1850 2034 1681 1864 
Q 1513 1694 1369 1606 
Q 1747 1563 2025 1408 
Q 2303 1253 2303 934 
Q 2303 869 2278 769 
Q 2222 528 2222 384 
Q 2222 97 2419 97 
Q 2650 97 2770 350 
Q 2891 603 2969 941 
Q 2981 978 3022 978 
L 3097 978 
Q 3122 978 3139 962 
Q 3156 947 3156 922 
Q 3156 916 3150 903 
Q 2909 -72 2406 -72 
Q 2225 -72 2086 12 
Q 1947 97 1872 242 
Q 1797 388 1797 569 
Q 1797 672 1825 781 
Q 1844 856 1844 922 
Q 1844 1169 1625 1297 
Q 1406 1425 1125 1453 
L 800 147 
Q 775 50 703 -11 
Q 631 -72 538 -72 
Q 456 -72 398 -17 
Q 341 38 341 116 
z
" transform="scale(0.015625)"/>
       <path id="LibertinusSerif-Regular-20" transform="scale(0.015625)"/>
       <path id="LibertinusSerif-Regular-28" d="M 282 1613 
C 282 1325 307 -154 1638 -1306 
C 1702 -1293 1754 -1248 1773 -1197 
C 1562 -954 813 -70 813 1613 
C 813 3296 1568 4179 1773 4410 
C 1754 4474 1709 4518 1638 4525 
C 877 3872 282 2803 282 1613 
z
" transform="scale(0.015625)"/>
       <path id="LibertinusSerif-Regular-69" d="M 1158 781 
L 1158 2054 
C 1158 2374 1184 2784 1184 2784 
C 1184 2810 1152 2829 1101 2829 
C 922 2758 666 2701 224 2643 
C 211 2605 224 2502 237 2464 
C 589 2432 653 2394 653 2029 
L 653 781 
C 653 250 582 230 192 198 
C 154 160 154 26 192 -13 
C 403 -6 653 0 909 0 
C 1165 0 1408 -6 1619 -13 
C 1658 26 1658 160 1619 198 
C 1229 224 1158 250 1158 781 
z
M 576 3834 
C 576 3667 730 3501 883 3501 
C 1062 3501 1216 3674 1216 3808 
C 1216 3962 1082 4141 909 4141 
C 755 4141 576 3987 576 3834 
z
" transform="scale(0.015625)"/>
       <path id="LibertinusSerif-Regular-6e" d="M 1178 2291 
C 1139 2246 1101 2234 1101 2291 
C 1094 2464 1082 2714 1050 2778 
C 1037 2810 1024 2829 973 2829 
C 794 2758 627 2701 186 2643 
C 173 2605 186 2502 198 2464 
C 544 2432 614 2400 614 2029 
L 614 781 
C 614 256 550 230 166 198 
C 128 160 128 26 166 -13 
C 358 -6 614 0 870 0 
C 1126 0 1318 -6 1510 -13 
C 1549 26 1549 160 1510 198 
C 1184 230 1120 256 1120 781 
L 1120 1830 
C 1120 1965 1178 2042 1229 2099 
C 1472 2336 1760 2477 2010 2477 
C 2138 2477 2272 2394 2349 2246 
C 2413 2118 2426 1946 2426 1754 
L 2426 781 
C 2426 256 2362 230 2029 198 
C 1997 160 1997 26 2029 -13 
C 2221 -6 2426 0 2682 0 
C 2938 0 3168 -6 3360 -13 
C 3392 26 3392 160 3360 198 
C 3002 230 2931 256 2931 781 
L 2931 1734 
C 2931 2086 2906 2394 2758 2592 
C 2650 2733 2451 2810 2227 2810 
C 1914 2810 1555 2726 1178 2291 
z
" transform="scale(0.015625)"/>
       <path id="LibertinusSerif-Regular-75" d="M 1389 -64 
C 1638 -64 1939 64 2253 320 
C 2285 346 2342 358 2349 314 
C 2368 154 2419 -64 2419 -64 
C 2470 -83 2502 -77 2541 -64 
C 2682 51 2906 147 3296 192 
C 3334 230 3334 326 3296 365 
C 2886 397 2829 518 2829 832 
L 2829 2061 
C 2829 2253 2854 2720 2854 2720 
C 2854 2739 2835 2758 2803 2758 
C 2771 2752 2675 2746 2579 2746 
C 2374 2746 2144 2752 1926 2758 
C 1888 2720 1888 2586 1926 2547 
C 2240 2528 2323 2451 2323 2029 
L 2323 794 
C 2323 672 2310 621 2221 544 
C 1984 339 1741 237 1581 237 
C 1389 237 1069 326 1069 896 
L 1069 2061 
C 1069 2253 1094 2720 1094 2720 
C 1094 2739 1075 2758 1043 2758 
C 1011 2752 915 2746 819 2746 
C 614 2746 384 2752 166 2758 
C 128 2720 128 2586 166 2547 
C 474 2522 563 2451 563 2035 
L 563 806 
C 563 365 755 -64 1389 -64 
z
" transform="scale(0.015625)"/>
       <path id="LibertinusSerif-Regular-74" d="M 275 2746 
C 186 2746 160 2669 160 2618 
L 160 2534 
C 160 2502 166 2496 192 2496 
L 570 2496 
L 570 570 
C 570 115 768 -64 1062 -64 
C 1357 -64 1677 77 1926 358 
C 1914 422 1875 461 1811 467 
C 1645 339 1453 288 1286 288 
C 1114 288 1075 480 1075 877 
L 1075 2496 
L 1741 2496 
C 1805 2496 1894 2522 1894 2579 
L 1894 2707 
C 1894 2733 1875 2746 1843 2746 
L 1075 2746 
L 1075 2995 
C 1075 3411 1101 3667 1101 3667 
C 1101 3706 1082 3725 1050 3725 
C 1024 3725 966 3699 909 3667 
C 838 3629 774 3597 691 3578 
C 614 3552 550 3533 550 3488 
C 550 3411 570 3456 570 2746 
L 275 2746 
z
" transform="scale(0.015625)"/>
       <path id="LibertinusSerif-Regular-73" d="M 307 883 
C 333 570 352 269 352 0 
C 416 13 480 19 512 19 
C 557 19 595 19 640 6 
C 813 -38 986 -64 1222 -64 
C 1581 -64 2240 109 2240 742 
C 2240 1178 1926 1434 1491 1594 
C 1107 1741 851 1837 851 2189 
C 851 2451 1082 2598 1299 2598 
C 1440 2598 1811 2547 1894 2003 
C 1933 1965 2061 1971 2099 2010 
C 2118 2240 2131 2477 2138 2688 
C 1939 2720 1632 2810 1299 2810 
C 826 2810 397 2502 397 2093 
C 397 1626 608 1427 1101 1222 
C 1632 1005 1754 870 1754 595 
C 1754 282 1446 147 1210 147 
C 960 147 819 230 755 301 
C 614 448 544 730 506 890 
C 467 928 346 922 307 883 
z
" transform="scale(0.015625)"/>
       <path id="LibertinusSerif-Regular-6f" d="M 262 1312 
C 262 659 698 -64 1606 -64 
C 2016 -64 2330 83 2547 294 
C 2835 576 2963 979 2963 1370 
C 2963 2035 2598 2810 1619 2810 
C 1197 2810 851 2637 614 2362 
C 384 2086 262 1715 262 1312 
z
M 1523 2586 
C 2074 2586 2413 2086 2413 1165 
C 2413 358 1997 160 1696 160 
C 1030 160 813 966 813 1459 
C 813 2016 947 2586 1523 2586 
z
" transform="scale(0.015625)"/>
       <path id="LibertinusSerif-Regular-66" d="M 1120 781 
L 1120 2496 
L 1715 2496 
C 1773 2496 1862 2522 1862 2579 
L 1862 2707 
C 1862 2733 1843 2746 1811 2746 
L 1120 2746 
L 1120 3110 
C 1120 4096 1414 4250 1626 4250 
C 1818 4250 1920 4173 2010 3949 
C 2061 3834 2131 3744 2266 3744 
C 2374 3744 2528 3878 2528 4006 
C 2528 4115 2458 4230 2323 4333 
C 2157 4448 1990 4467 1747 4467 
C 1210 4467 614 4000 614 3002 
L 614 2746 
L 288 2746 
C 173 2746 141 2669 141 2618 
L 141 2534 
C 141 2502 147 2496 173 2496 
L 614 2496 
L 614 781 
C 614 250 512 224 166 198 
C 128 160 128 26 166 -13 
C 390 -6 614 0 870 0 
C 1126 0 1434 -6 1658 -13 
C 1696 26 1696 160 1658 198 
C 1158 224 1120 250 1120 781 
z
" transform="scale(0.015625)"/>
       <path id="Cmmi10-61" d="M 1113 -72 
Q 709 -72 476 233 
Q 244 538 244 953 
Q 244 1363 456 1803 
Q 669 2244 1030 2536 
Q 1391 2828 1806 2828 
Q 1997 2828 2147 2725 
Q 2297 2622 2381 2444 
Q 2453 2700 2663 2700 
Q 2744 2700 2798 2651 
Q 2853 2603 2853 2522 
Q 2853 2503 2851 2493 
Q 2850 2484 2847 2472 
L 2400 684 
Q 2356 494 2356 372 
Q 2356 97 2541 97 
Q 2741 97 2845 351 
Q 2950 606 3022 941 
Q 3034 978 3072 978 
L 3150 978 
Q 3175 978 3190 956 
Q 3206 934 3206 916 
Q 3094 469 2961 198 
Q 2828 -72 2528 -72 
Q 2313 -72 2147 54 
Q 1981 181 1941 391 
Q 1528 -72 1113 -72 
z
M 1119 97 
Q 1350 97 1567 270 
Q 1784 444 1941 678 
Q 1947 684 1947 697 
L 2291 2088 
L 2297 2106 
Q 2259 2334 2132 2498 
Q 2006 2663 1791 2663 
Q 1575 2663 1389 2486 
Q 1203 2309 1075 2069 
Q 950 1813 836 1366 
Q 722 919 722 672 
Q 722 450 817 273 
Q 913 97 1119 97 
z
" transform="scale(0.015625)"/>
       <path id="Cmsy10-a1" d="M 653 1472 
Q 600 1472 565 1512 
Q 531 1553 531 1600 
Q 531 1647 565 1687 
Q 600 1728 653 1728 
L 4325 1728 
Q 4375 1728 4408 1687 
Q 4441 1647 4441 1600 
Q 4441 1553 4408 1512 
Q 4375 1472 4325 1472 
L 653 1472 
z
" transform="scale(0.015625)"/>
       <path id="Cmr10-31" d="M 594 0 
L 594 225 
Q 1394 225 1394 428 
L 1394 3788 
Q 1063 3628 556 3628 
L 556 3853 
Q 1341 3853 1741 4263 
L 1831 4263 
Q 1853 4263 1873 4245 
Q 1894 4228 1894 4206 
L 1894 428 
Q 1894 225 2694 225 
L 2694 0 
L 594 0 
z
" transform="scale(0.015625)"/>
       <path id="LibertinusSerif-Regular-29" d="M 1626 1613 
C 1626 1901 1600 3379 269 4531 
C 205 4518 154 4474 134 4422 
C 346 4179 1094 3296 1094 1613 
C 1094 -70 339 -954 134 -1184 
C 154 -1248 198 -1293 269 -1299 
C 1030 -646 1626 422 1626 1613 
z
" transform="scale(0.015625)"/>
      </defs>
      <use xlink:href="#Cmmi10-6b" transform="translate(0 0.109375)"/>
      <use xlink:href="#LibertinusSerif-Regular-20" transform="translate(52.001953 0.109375)"/>
      <use xlink:href="#LibertinusSerif-Regular-28" transform="translate(77.001938 0.109375)"/>
      <use xlink:href="#LibertinusSerif-Regular-69" transform="translate(106.801926 0.109375)"/>
      <use xlink:href="#LibertinusSerif-Regular-6e" transform="translate(133.901917 0.109375)"/>
      <use xlink:href="#LibertinusSerif-Regular-20" transform="translate(188.101913 0.109375)"/>
      <use xlink:href="#LibertinusSerif-Regular-75" transform="translate(213.101898 0.109375)"/>
      <use xlink:href="#LibertinusSerif-Regular-6e" transform="translate(266.201889 0.109375)"/>
      <use xlink:href="#LibertinusSerif-Regular-69" transform="translate(320.401886 0.109375)"/>
      <use xlink:href="#LibertinusSerif-Regular-74" transform="translate(347.501877 0.109375)"/>
      <use xlink:href="#LibertinusSerif-Regular-73" transform="translate(379.101868 0.109375)"/>
      <use xlink:href="#LibertinusSerif-Regular-20" transform="translate(418.101852 0.109375)"/>
      <use xlink:href="#LibertinusSerif-Regular-6f" transform="translate(443.101837 0.109375)"/>
      <use xlink:href="#LibertinusSerif-Regular-66" transform="translate(493.501831 0.109375)"/>
      <use xlink:href="#LibertinusSerif-Regular-20" transform="translate(524.501816 0.109375)"/>
      <use xlink:href="#Cmmi10-61" transform="translate(549.501801 0.109375)"/>
      <use xlink:href="#Cmsy10-a1" transform="translate(608.588285 38.373438)scale(0.7)"/>
      <use xlink:href="#Cmr10-31" transform="translate(662.968168 38.373438)scale(0.7)"/>
      <use xlink:href="#LibertinusSerif-Regular-29" transform="translate(704.345511 0.109375)"/>
     </g>
    </g>
   </g>
   <g id="matplotlib.axis_2">
    <g id="ytick_1">
     <g id="line2d_8">
      <defs>
       <path id="m3c5fb1aa63" d="M 0 0 
L -3.5 0 
" style="stroke: #000000; stroke-width: 0.8"/>
      </defs>
      <g>
       <use xlink:href="#m3c5fb1aa63" x="62.968438" y="279.025271" style="stroke: #000000; stroke-width: 0.8"/>
      </g>
     </g>
     <g id="text_9">
      <!-- −2.0 -->
      <g transform="translate(32.168437 283.911052)scale(0.14 -0.14)">
       <defs>
        <path id="LibertinusSerif-Regular-2e" d="M 365 275 
C 365 90 518 -64 704 -64 
C 890 -64 1043 90 1043 275 
C 1043 461 890 614 704 614 
C 518 614 365 461 365 275 
z
" transform="scale(0.015625)"/>
       </defs>
       <use xlink:href="#LibertinusSerif-Regular-2212"/>
       <use xlink:href="#LibertinusSerif-Regular-32" x="54.999985"/>
       <use xlink:href="#LibertinusSerif-Regular-2e" x="101.499969"/>
       <use xlink:href="#LibertinusSerif-Regular-30" x="123.499954"/>
      </g>
     </g>
    </g>
    <g id="ytick_2">
     <g id="line2d_9">
      <g>
       <use xlink:href="#m3c5fb1aa63" x="62.968438" y="247.607973" style="stroke: #000000; stroke-width: 0.8"/>
      </g>
     </g>
     <g id="text_10">
      <!-- −1.5 -->
      <g transform="translate(32.168437 252.493755)scale(0.14 -0.14)">
       <defs>
        <path id="LibertinusSerif-Regular-35" d="M 2042 1210 
C 2042 602 1722 154 1338 154 
C 1094 154 1011 314 915 442 
C 832 550 723 646 589 646 
C 467 646 346 538 346 410 
C 346 147 890 -70 1254 -70 
C 2048 -70 2611 518 2611 1325 
C 2611 1946 2182 2502 1466 2502 
C 1190 2502 954 2445 838 2400 
L 966 3469 
C 1203 3443 1408 3411 1715 3411 
C 1907 3411 2125 3424 2387 3450 
L 2490 3885 
L 2445 3910 
C 2080 3872 1734 3840 1395 3840 
C 1158 3840 928 3853 704 3872 
L 486 2029 
C 826 2157 1069 2182 1299 2182 
C 1715 2182 2042 1907 2042 1210 
z
" transform="scale(0.015625)"/>
       </defs>
       <use xlink:href="#LibertinusSerif-Regular-2212"/>
       <use xlink:href="#LibertinusSerif-Regular-31" x="54.999985"/>
       <use xlink:href="#LibertinusSerif-Regular-2e" x="101.499969"/>
       <use xlink:href="#LibertinusSerif-Regular-35" x="123.499954"/>
      </g>
     </g>
    </g>
    <g id="ytick_3">
     <g id="line2d_10">
      <g>
       <use xlink:href="#m3c5fb1aa63" x="62.968438" y="216.190676" style="stroke: #000000; stroke-width: 0.8"/>
      </g>
     </g>
     <g id="text_11">
      <!-- −1.0 -->
      <g transform="translate(32.168437 221.076457)scale(0.14 -0.14)">
       <use xlink:href="#LibertinusSerif-Regular-2212"/>
       <use xlink:href="#LibertinusSerif-Regular-31" x="54.999985"/>
       <use xlink:href="#LibertinusSerif-Regular-2e" x="101.499969"/>
       <use xlink:href="#LibertinusSerif-Regular-30" x="123.499954"/>
      </g>
     </g>
    </g>
    <g id="ytick_4">
     <g id="line2d_11">
      <g>
       <use xlink:href="#m3c5fb1aa63" x="62.968438" y="184.773378" style="stroke: #000000; stroke-width: 0.8"/>
      </g>
     </g>
     <g id="text_12">
      <!-- −0.5 -->
      <g transform="translate(32.168437 189.659159)scale(0.14 -0.14)">
       <use xlink:href="#LibertinusSerif-Regular-2212"/>
       <use xlink:href="#LibertinusSerif-Regular-30" x="54.999985"/>
       <use xlink:href="#LibertinusSerif-Regular-2e" x="101.499969"/>
       <use xlink:href="#LibertinusSerif-Regular-35" x="123.499954"/>
      </g>
     </g>
    </g>
    <g id="ytick_5">
     <g id="line2d_12">
      <g>
       <use xlink:href="#m3c5fb1aa63" x="62.968438" y="153.35608" style="stroke: #000000; stroke-width: 0.8"/>
      </g>
     </g>
     <g id="text_13">
      <!-- 0.0 -->
      <g transform="translate(39.868437 158.241861)scale(0.14 -0.14)">
       <use xlink:href="#LibertinusSerif-Regular-30"/>
       <use xlink:href="#LibertinusSerif-Regular-2e" x="46.499985"/>
       <use xlink:href="#LibertinusSerif-Regular-30" x="68.499969"/>
      </g>
     </g>
    </g>
    <g id="ytick_6">
     <g id="line2d_13">
      <g>
       <use xlink:href="#m3c5fb1aa63" x="62.968438" y="121.938782" style="stroke: #000000; stroke-width: 0.8"/>
      </g>
     </g>
     <g id="text_14">
      <!-- 0.5 -->
      <g transform="translate(39.868437 126.824564)scale(0.14 -0.14)">
       <use xlink:href="#LibertinusSerif-Regular-30"/>
       <use xlink:href="#LibertinusSerif-Regular-2e" x="46.499985"/>
       <use xlink:href="#LibertinusSerif-Regular-35" x="68.499969"/>
      </g>
     </g>
    </g>
    <g id="ytick_7">
     <g id="line2d_14">
      <g>
       <use xlink:href="#m3c5fb1aa63" x="62.968438" y="90.521485" style="stroke: #000000; stroke-width: 0.8"/>
      </g>
     </g>
     <g id="text_15">
      <!-- 1.0 -->
      <g transform="translate(39.868437 95.407266)scale(0.14 -0.14)">
       <use xlink:href="#LibertinusSerif-Regular-31"/>
       <use xlink:href="#LibertinusSerif-Regular-2e" x="46.499985"/>
       <use xlink:href="#LibertinusSerif-Regular-30" x="68.499969"/>
      </g>
     </g>
    </g>
    <g id="ytick_8">
     <g id="line2d_15">
      <g>
       <use xlink:href="#m3c5fb1aa63" x="62.968438" y="59.104187" style="stroke: #000000; stroke-width: 0.8"/>
      </g>
     </g>
     <g id="text_16">
      <!-- 1.5 -->
      <g transform="translate(39.868437 63.989968)scale(0.14 -0.14)">
       <use xlink:href="#LibertinusSerif-Regular-31"/>
       <use xlink:href="#LibertinusSerif-Regular-2e" x="46.499985"/>
       <use xlink:href="#LibertinusSerif-Regular-35" x="68.499969"/>
      </g>
     </g>
    </g>
    <g id="ytick_9">
     <g id="line2d_16">
      <g>
       <use xlink:href="#m3c5fb1aa63" x="62.968438" y="27.686889" style="stroke: #000000; stroke-width: 0.8"/>
      </g>
     </g>
     <g id="text_17">
      <!-- 2.0 -->
      <g transform="translate(39.868437 32.57267)scale(0.14 -0.14)">
       <use xlink:href="#LibertinusSerif-Regular-32"/>
       <use xlink:href="#LibertinusSerif-Regular-2e" x="46.499985"/>
       <use xlink:href="#LibertinusSerif-Regular-30" x="68.499969"/>
      </g>
     </g>
    </g>
    <g id="text_18">
     <!-- $E-\epsilon_0$, in units of $t$ -->
     <g transform="translate(24.891562 209.005781)rotate(-90)scale(0.14 -0.14)">
      <defs>
       <path id="Cmmi10-45" d="M 300 0 
Q 238 0 238 84 
Q 241 100 250 139 
Q 259 178 276 201 
Q 294 225 319 225 
Q 709 225 863 269 
Q 947 297 984 441 
L 1863 3956 
Q 1875 4019 1875 4044 
Q 1875 4113 1797 4122 
Q 1678 4147 1338 4147 
Q 1275 4147 1275 4231 
Q 1278 4247 1287 4286 
Q 1297 4325 1314 4348 
Q 1331 4372 1356 4372 
L 4825 4372 
Q 4891 4372 4891 4288 
L 4738 2963 
Q 4738 2947 4714 2926 
Q 4691 2906 4672 2906 
L 4616 2906 
Q 4550 2906 4550 2988 
Q 4588 3300 4588 3450 
Q 4588 3706 4500 3848 
Q 4413 3991 4267 4053 
Q 4122 4116 3945 4131 
Q 3769 4147 3481 4147 
L 2753 4147 
Q 2578 4147 2522 4117 
Q 2466 4088 2419 3928 
L 2034 2381 
L 2534 2381 
Q 2859 2381 3025 2426 
Q 3191 2472 3287 2615 
Q 3384 2759 3463 3072 
Q 3469 3094 3486 3111 
Q 3503 3128 3525 3128 
L 3584 3128 
Q 3647 3128 3647 3047 
L 3250 1466 
Q 3238 1409 3188 1409 
L 3128 1409 
Q 3066 1409 3066 1491 
Q 3128 1747 3128 1869 
Q 3128 2056 2959 2106 
Q 2791 2156 2509 2156 
L 1978 2156 
L 1544 416 
Q 1516 338 1516 275 
Q 1516 225 1734 225 
L 2509 225 
Q 2972 225 3259 297 
Q 3547 369 3736 526 
Q 3925 684 4062 928 
Q 4200 1172 4397 1638 
Q 4409 1678 4453 1678 
L 4513 1678 
Q 4538 1678 4556 1656 
Q 4575 1634 4575 1606 
Q 4575 1594 4569 1581 
L 3909 38 
Q 3897 0 3859 0 
L 300 0 
z
" transform="scale(0.015625)"/>
       <path id="Cmmi10-b2" d="M 788 903 
Q 788 688 866 503 
Q 944 319 1101 208 
Q 1259 97 1472 97 
Q 1616 97 1778 159 
Q 1941 222 2080 297 
Q 2219 372 2222 372 
Q 2256 372 2276 333 
Q 2297 294 2297 256 
Q 2297 222 2278 213 
Q 1878 -72 1466 -72 
Q 1128 -72 856 86 
Q 584 244 436 525 
Q 288 806 288 1141 
Q 288 1472 422 1770 
Q 556 2069 793 2291 
Q 1031 2513 1331 2636 
Q 1631 2759 1959 2759 
L 2322 2759 
Q 2419 2759 2419 2663 
Q 2419 2609 2383 2571 
Q 2347 2534 2297 2534 
L 1947 2534 
Q 1691 2534 1483 2421 
Q 1275 2309 1134 2109 
Q 994 1909 916 1656 
L 2047 1656 
Q 2091 1656 2117 1629 
Q 2144 1603 2144 1563 
Q 2144 1509 2109 1471 
Q 2075 1434 2022 1434 
L 856 1434 
Q 788 1103 788 903 
z
" transform="scale(0.015625)"/>
       <path id="Cmr10-30" d="M 1600 -141 
Q 816 -141 533 504 
Q 250 1150 250 2041 
Q 250 2597 351 3087 
Q 453 3578 754 3920 
Q 1056 4263 1600 4263 
Q 2022 4263 2290 4056 
Q 2559 3850 2700 3523 
Q 2841 3197 2892 2823 
Q 2944 2450 2944 2041 
Q 2944 1491 2842 1011 
Q 2741 531 2444 195 
Q 2147 -141 1600 -141 
z
M 1600 25 
Q 1956 25 2131 390 
Q 2306 756 2347 1200 
Q 2388 1644 2388 2144 
Q 2388 2625 2347 3031 
Q 2306 3438 2132 3767 
Q 1959 4097 1600 4097 
Q 1238 4097 1063 3765 
Q 888 3434 847 3029 
Q 806 2625 806 2144 
Q 806 1788 823 1472 
Q 841 1156 916 820 
Q 991 484 1158 254 
Q 1325 25 1600 25 
z
" transform="scale(0.015625)"/>
       <path id="LibertinusSerif-Regular-2c" d="M 666 608 
C 467 608 326 474 326 294 
C 326 96 493 32 608 13 
C 730 0 838 -38 838 -186 
C 838 -320 608 -614 275 -698 
C 275 -762 288 -806 333 -851 
C 717 -781 1088 -474 1088 -26 
C 1088 358 922 608 666 608 
z
" transform="scale(0.015625)"/>
       <path id="Cmmi10-74" d="M 397 519 
Q 397 613 416 697 
L 878 2534 
L 206 2534 
Q 141 2534 141 2619 
Q 166 2759 225 2759 
L 934 2759 
L 1191 3803 
Q 1216 3888 1291 3947 
Q 1366 4006 1459 4006 
Q 1541 4006 1595 3957 
Q 1650 3909 1650 3828 
Q 1650 3809 1648 3798 
Q 1647 3788 1644 3775 
L 1388 2759 
L 2047 2759 
Q 2113 2759 2113 2675 
Q 2109 2659 2100 2621 
Q 2091 2584 2075 2559 
Q 2059 2534 2028 2534 
L 1331 2534 
L 872 684 
Q 825 503 825 372 
Q 825 97 1013 97 
Q 1294 97 1511 361 
Q 1728 625 1844 941 
Q 1869 978 1894 978 
L 1972 978 
Q 1997 978 2012 961 
Q 2028 944 2028 922 
Q 2028 909 2022 903 
Q 1881 516 1612 222 
Q 1344 -72 997 -72 
Q 744 -72 570 93 
Q 397 259 397 519 
z
" transform="scale(0.015625)"/>
      </defs>
      <use xlink:href="#Cmmi10-45" transform="translate(0 0.203125)"/>
      <use xlink:href="#Cmsy10-a1" transform="translate(91.337891 0.203125)"/>
      <use xlink:href="#Cmmi10-b2" transform="translate(186.582031 0.203125)"/>
      <use xlink:href="#Cmr10-30" transform="translate(227.060547 -16.803125)scale(0.7)"/>
      <use xlink:href="#LibertinusSerif-Regular-2c" transform="translate(268.437891 0.203125)"/>
      <use xlink:href="#LibertinusSerif-Regular-20" transform="translate(290.437875 0.203125)"/>
      <use xlink:href="#LibertinusSerif-Regular-69" transform="translate(315.43786 0.203125)"/>
      <use xlink:href="#LibertinusSerif-Regular-6e" transform="translate(342.537851 0.203125)"/>
      <use xlink:href="#LibertinusSerif-Regular-20" transform="translate(396.737848 0.203125)"/>
      <use xlink:href="#LibertinusSerif-Regular-75" transform="translate(421.737833 0.203125)"/>
      <use xlink:href="#LibertinusSerif-Regular-6e" transform="translate(474.837823 0.203125)"/>
      <use xlink:href="#LibertinusSerif-Regular-69" transform="translate(529.03782 0.203125)"/>
      <use xlink:href="#LibertinusSerif-Regular-74" transform="translate(556.137811 0.203125)"/>
      <use xlink:href="#LibertinusSerif-Regular-73" transform="translate(587.737802 0.203125)"/>
      <use xlink:href="#LibertinusSerif-Regular-20" transform="translate(626.737787 0.203125)"/>
      <use xlink:href="#LibertinusSerif-Regular-6f" transform="translate(651.737772 0.203125)"/>
      <use xlink:href="#LibertinusSerif-Regular-66" transform="translate(702.137766 0.203125)"/>
      <use xlink:href="#LibertinusSerif-Regular-20" transform="translate(733.13775 0.203125)"/>
      <use xlink:href="#Cmmi10-74" transform="translate(758.137735 0.203125)"/>
     </g>
    </g>
   </g>
   <g id="line2d_17">
    <path d="M 167.344318 153.35608 
L 180.243141 182.365903 
L 187.215478 197.491905 
L 192.793347 209.100699 
L 198.0226 219.47281 
L 202.554619 227.988561 
L 206.738021 235.407015 
L 210.572806 241.797039 
L 214.407591 247.763065 
L 217.893759 252.794683 
L 221.379928 257.432289 
L 224.517479 261.254033 
L 227.655031 264.729454 
L 230.792582 267.847397 
L 233.581517 270.310681 
L 236.370452 272.477342 
L 239.159386 274.341886 
L 241.599704 275.721794 
L 244.040022 276.864082 
L 246.48034 277.766531 
L 248.920658 278.427388 
L 251.360976 278.845371 
L 253.801293 279.019667 
L 256.241611 278.949939 
L 258.681929 278.636321 
L 261.122247 278.079423 
L 263.562565 277.280327 
L 266.002883 276.240583 
L 268.443201 274.96221 
L 270.883518 273.447693 
L 273.672453 271.431451 
L 276.461388 269.115744 
L 279.250323 266.506445 
L 282.039257 263.610172 
L 285.176809 260.018015 
L 288.31436 256.083503 
L 291.800529 251.325691 
L 295.286697 246.179687 
L 299.121482 240.095101 
L 302.956267 233.594676 
L 307.139669 226.065711 
L 311.671688 217.442637 
L 316.552324 207.678144 
L 322.130193 196.006875 
L 328.753913 181.595517 
L 337.469334 162.052162 
L 341.304119 153.35608 
L 341.304119 153.35608 
" clip-path="url(#p70ce68532c)" style="fill: none; stroke: #000080; stroke-width: 1.5; stroke-linecap: square"/>
   </g>
   <g id="line2d_18">
    <path d="M 80.364418 27.686889 
L 82.630427 27.792101 
L 84.896436 28.107559 
L 87.336754 28.681799 
L 89.777072 29.498142 
L 92.21739 30.555003 
L 94.657708 31.850331 
L 97.272334 33.499939 
L 99.88696 35.416725 
L 102.675895 37.750961 
L 105.46483 40.378397 
L 108.428073 43.483842 
L 111.565624 47.114628 
L 114.703176 51.08642 
L 118.015036 55.634713 
L 121.501204 60.799604 
L 125.161681 66.617059 
L 129.170775 73.422341 
L 133.354177 80.969465 
L 137.886196 89.610127 
L 142.94114 99.748538 
L 148.519009 111.45035 
L 155.142729 125.888149 
L 164.032458 145.844301 
L 167.344318 153.35608 
L 167.344318 153.35608 
" clip-path="url(#p70ce68532c)" style="fill: none; stroke: #000080; stroke-width: 1.5; stroke-linecap: square"/>
   </g>
   <g id="line2d_19">
    <path d="M 428.28402 27.686889 
L 426.01801 27.792101 
L 423.752001 28.107559 
L 421.311683 28.681799 
L 418.871365 29.498142 
L 416.431047 30.555003 
L 413.99073 31.850331 
L 411.376103 33.499939 
L 408.761477 35.416725 
L 405.972542 37.750961 
L 403.183608 40.378397 
L 400.220365 43.483842 
L 397.082813 47.114628 
L 393.945262 51.08642 
L 390.633402 55.634713 
L 387.147233 60.799604 
L 383.486756 66.617059 
L 379.477663 73.422341 
L 375.294261 80.969465 
L 370.762242 89.610127 
L 365.707298 99.748538 
L 360.129428 111.45035 
L 353.505709 125.888149 
L 344.615979 145.844301 
L 341.304119 153.35608 
L 341.304119 153.35608 
" clip-path="url(#p70ce68532c)" style="fill: none; stroke: #000080; stroke-width: 1.5; stroke-linecap: square"/>
   </g>
   <g id="line2d_20">
    <path d="M 167.344318 165.922999 
L 168.041552 166.021236 
L 168.738786 166.311418 
L 169.784636 167.07737 
L 170.830487 168.182308 
L 172.224954 170.061685 
L 173.968038 172.864522 
L 176.408356 177.29613 
L 180.243141 184.837528 
L 196.976749 218.347952 
L 201.857385 227.415891 
L 206.389404 235.36642 
L 210.572806 242.246533 
L 214.407591 248.126747 
L 217.893759 253.091144 
L 221.379928 257.670347 
L 224.517479 261.446209 
L 227.655031 264.881483 
L 230.792582 267.964573 
L 233.581517 270.401039 
L 236.370452 272.544602 
L 239.159386 274.389617 
L 241.599704 275.75527 
L 244.040022 276.885881 
L 246.48034 277.779181 
L 248.920658 278.433381 
L 251.360976 278.847171 
L 253.801293 279.019723 
L 256.241611 278.950693 
L 258.681929 278.640217 
L 261.122247 278.088917 
L 263.562565 277.297898 
L 266.002883 276.268742 
L 268.443201 275.003513 
L 270.883518 273.50475 
L 273.672453 271.509805 
L 276.461388 269.219035 
L 279.250323 266.638482 
L 282.039257 263.774976 
L 285.176809 260.224823 
L 288.31436 256.338223 
L 291.800529 251.641337 
L 295.286697 246.565454 
L 299.121482 240.570464 
L 303.304884 233.575491 
L 307.488286 226.150695 
L 312.368922 217.014803 
L 317.946791 206.069415 
L 326.662212 188.368388 
L 331.891465 177.960237 
L 334.680399 172.864522 
L 336.423484 170.061685 
L 337.817951 168.182308 
L 338.863801 167.07737 
L 339.909652 166.311418 
L 340.606886 166.021236 
L 341.304119 165.922999 
L 341.304119 165.922999 
" clip-path="url(#p70ce68532c)" style="fill: none; stroke: #7dff7a; stroke-width: 1.5; stroke-linecap: square"/>
   </g>
   <g id="line2d_21">
    <path d="M 80.364418 27.686889 
L 82.630427 27.791048 
L 84.896436 28.103346 
L 87.336754 28.67181 
L 89.777072 29.479898 
L 92.21739 30.52599 
L 94.657708 31.80799 
L 97.272334 33.440413 
L 99.88696 35.33692 
L 102.675895 37.645987 
L 105.46483 40.244433 
L 108.428073 43.314646 
L 111.565624 46.902799 
L 114.703176 50.825987 
L 118.015036 55.31579 
L 121.501204 60.410065 
L 125.335989 66.423954 
L 129.345083 73.136669 
L 133.702794 80.879417 
L 138.409121 89.697357 
L 143.98699 100.642745 
L 152.353794 117.634117 
L 157.931664 128.751923 
L 160.720598 133.847639 
L 162.637991 136.906196 
L 164.032458 138.73452 
L 165.078309 139.78789 
L 165.949851 140.400742 
L 166.821393 140.733807 
L 167.344318 140.789161 
L 167.344318 140.789161 
" clip-path="url(#p70ce68532c)" style="fill: none; stroke: #7dff7a; stroke-width: 1.5; stroke-linecap: square"/>
   </g>
   <g id="line2d_22">
    <path d="M 428.28402 27.686889 
L 426.01801 27.791048 
L 423.752001 28.103346 
L 421.311683 28.67181 
L 418.871365 29.479898 
L 416.431047 30.52599 
L 413.99073 31.80799 
L 411.376103 33.440413 
L 408.761477 35.33692 
L 405.972542 37.645987 
L 403.183608 40.244433 
L 400.220365 43.314646 
L 397.082813 46.902799 
L 393.945262 50.825987 
L 390.633402 55.31579 
L 387.147233 60.410065 
L 383.312448 66.423954 
L 379.303354 73.136669 
L 374.945644 80.879417 
L 370.239317 89.697357 
L 364.661447 100.642745 
L 356.294643 117.634117 
L 350.716774 128.751923 
L 347.927839 133.847639 
L 346.010447 136.906196 
L 344.615979 138.73452 
L 343.570129 139.78789 
L 342.698587 140.400742 
L 341.827045 140.733807 
L 341.304119 140.789161 
L 341.304119 140.789161 
" clip-path="url(#p70ce68532c)" style="fill: none; stroke: #7dff7a; stroke-width: 1.5; stroke-linecap: square"/>
   </g>
   <g id="line2d_23">
    <path d="M 167.344318 178.489918 
L 168.390169 178.597269 
L 169.436019 178.916463 
L 170.48187 179.439283 
L 171.876337 180.430815 
L 173.270804 181.723631 
L 175.013889 183.699238 
L 177.10559 186.491905 
L 179.545907 190.180224 
L 182.683459 195.375886 
L 187.215478 203.373698 
L 201.508768 228.900323 
L 206.389404 237.024801 
L 210.572806 243.58158 
L 214.407591 249.209517 
L 218.242376 254.43246 
L 221.728545 258.801217 
L 224.866096 262.405339 
L 228.003648 265.68418 
L 231.141199 268.625105 
L 233.930134 270.946549 
L 236.719069 272.985333 
L 239.508003 274.735503 
L 241.948321 276.02614 
L 244.388639 277.089066 
L 246.828957 277.921949 
L 249.269275 278.522967 
L 251.709592 278.890809 
L 254.14991 279.024673 
L 256.590228 278.92427 
L 259.030546 278.589816 
L 261.470864 278.022041 
L 263.911182 277.222182 
L 266.3515 276.191988 
L 268.791817 274.933719 
L 271.232135 273.450146 
L 274.02107 271.482992 
L 276.810005 269.231606 
L 279.598939 266.702614 
L 282.736491 263.535084 
L 285.874042 260.03789 
L 289.011594 256.224702 
L 292.497762 251.635879 
L 296.332547 246.187641 
L 300.167333 240.354426 
L 304.350735 233.600149 
L 309.23137 225.287094 
L 315.506473 214.110748 
L 326.313595 194.780207 
L 329.451147 189.630661 
L 331.891465 185.999429 
L 333.983166 183.275666 
L 335.72625 181.374459 
L 337.120717 180.153094 
L 338.515185 179.243088 
L 339.561035 178.786932 
L 340.606886 178.537689 
L 341.304119 178.489918 
L 341.304119 178.489918 
" clip-path="url(#p70ce68532c)" style="fill: none; stroke: #800000; stroke-width: 1.5; stroke-linecap: square"/>
   </g>
   <g id="line2d_24">
    <path d="M 80.364418 27.686889 
L 82.804735 27.804024 
L 85.245053 28.155174 
L 87.685371 28.739573 
L 90.125689 29.555949 
L 92.566007 30.602515 
L 95.180633 31.976657 
L 97.795259 33.608929 
L 100.409886 35.495175 
L 103.19882 37.781642 
L 106.162063 40.514041 
L 109.125307 43.54961 
L 112.262858 47.082618 
L 115.574718 51.152662 
L 119.060886 55.795202 
L 122.721363 61.039477 
L 126.730457 67.180813 
L 131.088167 74.273293 
L 136.143111 82.950191 
L 142.766831 94.811657 
L 151.830869 111.037045 
L 155.317037 116.807549 
L 157.931664 120.712732 
L 160.023365 123.436494 
L 161.766449 125.337701 
L 163.160916 126.559066 
L 164.381075 127.373664 
L 165.601234 127.925228 
L 166.647085 128.174471 
L 167.344318 128.222242 
L 167.344318 128.222242 
" clip-path="url(#p70ce68532c)" style="fill: none; stroke: #800000; stroke-width: 1.5; stroke-linecap: square"/>
   </g>
   <g id="line2d_25">
    <path d="M 428.28402 27.686889 
L 425.843702 27.804024 
L 423.403384 28.155174 
L 420.963066 28.739573 
L 418.522748 29.555949 
L 416.082431 30.602515 
L 413.467804 31.976657 
L 410.853178 33.608929 
L 408.238552 35.495175 
L 405.449617 37.781642 
L 402.486374 40.514041 
L 399.523131 43.54961 
L 396.385579 47.082618 
L 393.073719 51.152662 
L 389.587551 55.795202 
L 385.927074 61.039477 
L 381.917981 67.180813 
L 377.56027 74.273293 
L 372.505326 82.950191 
L 365.881606 94.811657 
L 356.817569 111.037045 
L 353.3314 116.807549 
L 350.716774 120.712732 
L 348.625073 123.436494 
L 346.881989 125.337701 
L 345.487521 126.559066 
L 344.267362 127.373664 
L 343.047203 127.925228 
L 342.001353 128.174471 
L 341.304119 128.222242 
L 341.304119 128.222242 
" clip-path="url(#p70ce68532c)" style="fill: none; stroke: #800000; stroke-width: 1.5; stroke-linecap: square"/>
   </g>
   <g id="patch_3">
    <path d="M 62.968438 291.591563 
L 62.968438 15.12 
" style="fill: none; stroke: #000000; stroke-width: 0.8; stroke-linejoin: miter; stroke-linecap: square"/>
   </g>
   <g id="patch_4">
    <path d="M 445.68 291.591563 
L 445.68 15.12 
" style="fill: none; stroke: #000000; stroke-width: 0.8; stroke-linejoin: miter; stroke-linecap: square"/>
   </g>
   <g id="patch_5">
    <path d="M 62.968437 291.591563 
L 445.68 291.591563 
" style="fill: none; stroke: #000000; stroke-width: 0.8; stroke-linejoin: miter; stroke-linecap: square"/>
   </g>
   <g id="patch_6">
    <path d="M 62.968437 15.12 
L 445.68 15.12 
" style="fill: none; stroke: #000000; stroke-width: 0.8; stroke-linejoin: miter; stroke-linecap: square"/>
   </g>
   <g id="legend_1">
    <g id="patch_7">
     <path d="M 72.768437 284.591563 
L 133.668437 284.591563 
Q 136.468437 284.591563 136.468437 281.791562 
L 136.468437 202.9125 
Q 136.468437 200.1125 133.668437 200.1125 
L 72.768437 200.1125 
Q 69.968437 200.1125 69.968437 202.9125 
L 69.968437 281.791562 
Q 69.968437 284.591563 72.768437 284.591563 
z
" style="fill: #ffffff; opacity: 0.8; stroke: #cccccc; stroke-linejoin: miter"/>
    </g>
    <g id="text_19">
     <!-- $\Delta$ -->
     <g transform="translate(97.338437 215.484062)scale(0.14 -0.14)">
      <defs>
       <path id="Cmr10-a2" d="M 347 0 
Q 294 0 294 50 
Q 297 56 298 59 
Q 300 63 300 72 
L 2503 4513 
Q 2531 4581 2619 4581 
L 2706 4581 
Q 2794 4581 2822 4513 
L 5025 72 
Q 5028 66 5029 61 
Q 5031 56 5031 50 
Q 5031 0 4978 0 
L 347 0 
z
M 769 513 
L 4141 513 
L 2456 3909 
L 769 513 
z
" transform="scale(0.015625)"/>
      </defs>
      <use xlink:href="#Cmr10-a2" transform="translate(0 0.421875)"/>
     </g>
    </g>
    <g id="line2d_26">
     <path d="M 75.568437 230.660937 
L 89.568437 230.660937 
L 103.568437 230.660937 
" style="fill: none; stroke: #000080; stroke-width: 1.5; stroke-linecap: square"/>
    </g>
    <g id="text_20">
     <!-- 0.0 -->
     <g transform="translate(114.768437 235.560937)scale(0.14 -0.14)">
      <use xlink:href="#LibertinusSerif-Regular-30"/>
      <use xlink:href="#LibertinusSerif-Regular-2e" x="46.499985"/>
      <use xlink:href="#LibertinusSerif-Regular-30" x="68.499969"/>
     </g>
    </g>
    <g id="line2d_27">
     <path d="M 75.568437 250.737812 
L 89.568437 250.737812 
L 103.568437 250.737812 
" style="fill: none; stroke: #7dff7a; stroke-width: 1.5; stroke-linecap: square"/>
    </g>
    <g id="text_21">
     <!-- 0.1 -->
     <g transform="translate(114.768437 255.637812)scale(0.14 -0.14)">
      <use xlink:href="#LibertinusSerif-Regular-30"/>
      <use xlink:href="#LibertinusSerif-Regular-2e" x="46.499985"/>
      <use xlink:href="#LibertinusSerif-Regular-31" x="68.499969"/>
     </g>
    </g>
    <g id="line2d_28">
     <path d="M 75.568437 270.814687 
L 89.568437 270.814687 
L 103.568437 270.814687 
" style="fill: none; stroke: #800000; stroke-width: 1.5; stroke-linecap: square"/>
    </g>
    <g id="text_22">
     <!-- 0.2 -->
     <g transform="translate(114.768437 275.714687)scale(0.14 -0.14)">
      <use xlink:href="#LibertinusSerif-Regular-30"/>
      <use xlink:href="#LibertinusSerif-Regular-2e" x="46.499985"/>
      <use xlink:href="#LibertinusSerif-Regular-32" x="68.499969"/>
     </g>
    </g>
   </g>
  </g>
 </g>
 <defs>
  <clipPath id="p70ce68532c">
   <rect x="62.968438" y="15.12" width="382.711562" height="276.471563"/>
  </clipPath>
 </defs>
</svg>
