<?xml version="1.0" encoding="utf-8" standalone="no"?>
<!DOCTYPE svg PUBLIC "-//W3C//DTD SVG 1.1//EN"
  "http://www.w3.org/Graphics/SVG/1.1/DTD/svg11.dtd">
<svg xmlns:xlink="http://www.w3.org/1999/xlink" width="460.8pt" height="345.6pt" viewBox="0 0 460.8 345.6" xmlns="http://www.w3.org/2000/svg" version="1.1">
 <metadata>
  <rdf:RDF xmlns:dc="http://purl.org/dc/elements/1.1/" xmlns:cc="http://creativecommons.org/ns#" xmlns:rdf="http://www.w3.org/1999/02/22-rdf-syntax-ns#">
   <cc:Work>
    <dc:type rdf:resource="http://purl.org/dc/dcmitype/StillImage"/>
    <dc:date>2022-06-29T01:17:23.356363</dc:date>
    <dc:format>image/svg+xml</dc:format>
    <dc:creator>
     <cc:Agent>
      <dc:title>Matplotlib v3.5.2, https://matplotlib.org/</dc:title>
     </cc:Agent>
    </dc:creator>
   </cc:Work>
  </rdf:RDF>
 </metadata>
 <defs>
  <style type="text/css">*{stroke-linejoin: round; stroke-linecap: butt}</style>
 </defs>
 <g id="figure_1">
  <g id="patch_1">
   <path d="M 0 345.6 
L 460.8 345.6 
L 460.8 0 
L 0 0 
L 0 345.6 
z
" style="fill: none"/>
  </g>
  <g id="axes_1">
   <g id="patch_2">
    <path d="M 58.46 291.591563 
L 445.68 291.591563 
L 445.68 15.12 
L 58.46 15.12 
L 58.46 291.591563 
z
" style="fill: none"/>
   </g>
   <g id="matplotlib.axis_1">
    <g id="xtick_1">
     <g id="line2d_1">
      <defs>
       <path id="m80fcff743b" d="M 0 0 
L 0 3.5 
" style="stroke: #000000; stroke-width: 0.8"/>
      </defs>
      <g>
       <use xlink:href="#m80fcff743b" x="83.993699" y="291.591563" style="stroke: #000000; stroke-width: 0.8"/>
      </g>
     </g>
     <g id="text_1">
      <!-- −6 -->
      <g transform="translate(76.888699 308.363125)scale(0.14 -0.14)">
       <defs>
        <path id="LibertinusSerif-Regular-2212" d="M 2963 1446 
C 3046 1446 3136 1594 3136 1658 
C 3136 1709 3110 1766 3046 1766 
L 544 1766 
C 467 1766 384 1645 384 1549 
C 384 1498 422 1446 480 1446 
L 2963 1446 
z
" transform="scale(0.015625)"/>
        <path id="LibertinusSerif-Regular-36" d="M 922 2195 
C 1094 2778 1504 3424 2355 3744 
C 2355 3821 2330 3878 2278 3910 
C 1632 3718 1235 3450 877 3034 
C 480 2573 282 1990 282 1485 
C 282 186 1018 -70 1510 -70 
C 2349 -70 2694 742 2694 1293 
C 2694 1843 2400 2336 1530 2336 
C 1363 2336 1114 2285 922 2195 
z
M 864 1965 
C 1075 2106 1286 2112 1395 2112 
C 2022 2112 2163 1498 2163 1178 
C 2163 474 1894 154 1581 154 
C 1178 154 813 371 813 1466 
C 813 1613 826 1779 864 1965 
z
" transform="scale(0.015625)"/>
       </defs>
       <use xlink:href="#LibertinusSerif-Regular-2212"/>
       <use xlink:href="#LibertinusSerif-Regular-36" x="54.999985"/>
      </g>
     </g>
    </g>
    <g id="xtick_2">
     <g id="line2d_2">
      <g>
       <use xlink:href="#m80fcff743b" x="140.019133" y="291.591563" style="stroke: #000000; stroke-width: 0.8"/>
      </g>
     </g>
     <g id="text_2">
      <!-- −4 -->
      <g transform="translate(132.914133 308.363125)scale(0.14 -0.14)">
       <defs>
        <path id="LibertinusSerif-Regular-34" d="M 2752 1402 
L 2221 1402 
L 2221 3270 
C 2221 3590 2221 3840 2234 3891 
L 2221 3904 
L 2016 3904 
C 1971 3904 1939 3866 1914 3834 
C 1510 3341 768 2285 179 1370 
C 198 1274 237 1101 429 1101 
L 1734 1101 
L 1734 512 
C 1734 218 1491 218 1216 198 
C 1178 160 1178 26 1216 -13 
C 1421 -6 1677 0 1971 0 
C 2221 0 2464 -6 2669 -13 
C 2707 26 2707 160 2669 198 
C 2355 224 2221 211 2221 512 
L 2221 1101 
L 2662 1101 
C 2752 1101 2848 1222 2848 1299 
C 2848 1363 2822 1402 2752 1402 
z
M 1734 3245 
L 1734 1402 
L 512 1402 
C 838 1926 1293 2643 1734 3245 
z
" transform="scale(0.015625)"/>
       </defs>
       <use xlink:href="#LibertinusSerif-Regular-2212"/>
       <use xlink:href="#LibertinusSerif-Regular-34" x="54.999985"/>
      </g>
     </g>
    </g>
    <g id="xtick_3">
     <g id="line2d_3">
      <g>
       <use xlink:href="#m80fcff743b" x="196.044566" y="291.591563" style="stroke: #000000; stroke-width: 0.8"/>
      </g>
     </g>
     <g id="text_3">
      <!-- −2 -->
      <g transform="translate(188.939566 308.363125)scale(0.14 -0.14)">
       <defs>
        <path id="LibertinusSerif-Regular-32" d="M 390 2995 
C 390 2861 512 2746 646 2746 
C 755 2746 947 2861 947 3002 
C 947 3053 934 3091 922 3136 
C 909 3181 870 3238 870 3290 
C 870 3450 1037 3680 1504 3680 
C 1734 3680 2061 3520 2061 2906 
C 2061 2496 1914 2163 1536 1779 
L 1062 1312 
C 435 672 333 365 333 -13 
C 333 -13 659 0 864 0 
L 1984 0 
C 2189 0 2483 -13 2483 -13 
C 2566 326 2630 806 2637 998 
C 2598 1030 2515 1043 2451 1030 
C 2342 576 2234 416 2003 416 
L 864 416 
C 864 723 1306 1158 1338 1190 
L 1984 1811 
C 2349 2163 2624 2445 2624 2931 
C 2624 3622 2061 3904 1542 3904 
C 832 3904 390 3379 390 2995 
z
" transform="scale(0.015625)"/>
       </defs>
       <use xlink:href="#LibertinusSerif-Regular-2212"/>
       <use xlink:href="#LibertinusSerif-Regular-32" x="54.999985"/>
      </g>
     </g>
    </g>
    <g id="xtick_4">
     <g id="line2d_4">
      <g>
       <use xlink:href="#m80fcff743b" x="252.07" y="291.591563" style="stroke: #000000; stroke-width: 0.8"/>
      </g>
     </g>
     <g id="text_4">
      <!-- 0 -->
      <g transform="translate(248.815 308.363125)scale(0.14 -0.14)">
       <defs>
        <path id="LibertinusSerif-Regular-30" d="M 1459 -64 
C 1952 -64 2701 435 2701 1939 
C 2701 2573 2547 3117 2266 3488 
C 2099 3712 1830 3904 1485 3904 
C 851 3904 250 3149 250 1882 
C 250 1197 461 557 813 205 
C 992 26 1210 -64 1459 -64 
z
M 1485 3680 
C 1594 3680 1696 3642 1773 3571 
C 1971 3405 2144 2918 2144 2061 
C 2144 1472 2125 1069 2035 742 
C 1894 218 1581 160 1466 160 
C 870 160 806 1254 806 1811 
C 806 3386 1197 3680 1485 3680 
z
" transform="scale(0.015625)"/>
       </defs>
       <use xlink:href="#LibertinusSerif-Regular-30"/>
      </g>
     </g>
    </g>
    <g id="xtick_5">
     <g id="line2d_5">
      <g>
       <use xlink:href="#m80fcff743b" x="308.095434" y="291.591563" style="stroke: #000000; stroke-width: 0.8"/>
      </g>
     </g>
     <g id="text_5">
      <!-- 2 -->
      <g transform="translate(304.840434 308.363125)scale(0.14 -0.14)">
       <use xlink:href="#LibertinusSerif-Regular-32"/>
      </g>
     </g>
    </g>
    <g id="xtick_6">
     <g id="line2d_6">
      <g>
       <use xlink:href="#m80fcff743b" x="364.120867" y="291.591563" style="stroke: #000000; stroke-width: 0.8"/>
      </g>
     </g>
     <g id="text_6">
      <!-- 4 -->
      <g transform="translate(360.865867 308.363125)scale(0.14 -0.14)">
       <use xlink:href="#LibertinusSerif-Regular-34"/>
      </g>
     </g>
    </g>
    <g id="xtick_7">
     <g id="line2d_7">
      <g>
       <use xlink:href="#m80fcff743b" x="420.146301" y="291.591563" style="stroke: #000000; stroke-width: 0.8"/>
      </g>
     </g>
     <g id="text_7">
      <!-- 6 -->
      <g transform="translate(416.891301 308.363125)scale(0.14 -0.14)">
       <use xlink:href="#LibertinusSerif-Regular-36"/>
      </g>
     </g>
    </g>
    <g id="text_8">
     <!-- $k$ (in units of $a^{-1}$) -->
     <g transform="translate(200.62 327.203125)scale(0.14 -0.14)">
      <defs>
       <path id="Cmmi10-6b" d="M 341 116 
Q 341 153 347 172 
L 1275 3872 
Q 1300 3981 1306 4044 
Q 1306 4147 891 4147 
Q 825 4147 825 4231 
Q 828 4247 839 4287 
Q 850 4328 867 4350 
Q 884 4372 916 4372 
L 1778 4441 
L 1797 4441 
Q 1797 4434 1819 4423 
Q 1841 4413 1844 4409 
Q 1856 4378 1856 4359 
L 1184 1684 
Q 1416 1781 1767 2145 
Q 2119 2509 2317 2668 
Q 2516 2828 2816 2828 
Q 2994 2828 3119 2706 
Q 3244 2584 3244 2406 
Q 3244 2294 3197 2198 
Q 3150 2103 3065 2043 
Q 2981 1984 2869 1984 
Q 2766 1984 2695 2048 
Q 2625 2113 2625 2216 
Q 2625 2369 2733 2473 
Q 2841 2578 2994 2578 
Q 2931 2663 2803 2663 
Q 2613 2663 2436 2553 
Q 2259 2444 2054 2239 
Q 1850 2034 1681 1864 
Q 1513 1694 1369 1606 
Q 1747 1563 2025 1408 
Q 2303 1253 2303 934 
Q 2303 869 2278 769 
Q 2222 528 2222 384 
Q 2222 97 2419 97 
Q 2650 97 2770 350 
Q 2891 603 2969 941 
Q 2981 978 3022 978 
L 3097 978 
Q 3122 978 3139 962 
Q 3156 947 3156 922 
Q 3156 916 3150 903 
Q 2909 -72 2406 -72 
Q 2225 -72 2086 12 
Q 1947 97 1872 242 
Q 1797 388 1797 569 
Q 1797 672 1825 781 
Q 1844 856 1844 922 
Q 1844 1169 1625 1297 
Q 1406 1425 1125 1453 
L 800 147 
Q 775 50 703 -11 
Q 631 -72 538 -72 
Q 456 -72 398 -17 
Q 341 38 341 116 
z
" transform="scale(0.015625)"/>
       <path id="LibertinusSerif-Regular-20" transform="scale(0.015625)"/>
       <path id="LibertinusSerif-Regular-28" d="M 282 1613 
C 282 1325 307 -154 1638 -1306 
C 1702 -1293 1754 -1248 1773 -1197 
C 1562 -954 813 -70 813 1613 
C 813 3296 1568 4179 1773 4410 
C 1754 4474 1709 4518 1638 4525 
C 877 3872 282 2803 282 1613 
z
" transform="scale(0.015625)"/>
       <path id="LibertinusSerif-Regular-69" d="M 1158 781 
L 1158 2054 
C 1158 2374 1184 2784 1184 2784 
C 1184 2810 1152 2829 1101 2829 
C 922 2758 666 2701 224 2643 
C 211 2605 224 2502 237 2464 
C 589 2432 653 2394 653 2029 
L 653 781 
C 653 250 582 230 192 198 
C 154 160 154 26 192 -13 
C 403 -6 653 0 909 0 
C 1165 0 1408 -6 1619 -13 
C 1658 26 1658 160 1619 198 
C 1229 224 1158 250 1158 781 
z
M 576 3834 
C 576 3667 730 3501 883 3501 
C 1062 3501 1216 3674 1216 3808 
C 1216 3962 1082 4141 909 4141 
C 755 4141 576 3987 576 3834 
z
" transform="scale(0.015625)"/>
       <path id="LibertinusSerif-Regular-6e" d="M 1178 2291 
C 1139 2246 1101 2234 1101 2291 
C 1094 2464 1082 2714 1050 2778 
C 1037 2810 1024 2829 973 2829 
C 794 2758 627 2701 186 2643 
C 173 2605 186 2502 198 2464 
C 544 2432 614 2400 614 2029 
L 614 781 
C 614 256 550 230 166 198 
C 128 160 128 26 166 -13 
C 358 -6 614 0 870 0 
C 1126 0 1318 -6 1510 -13 
C 1549 26 1549 160 1510 198 
C 1184 230 1120 256 1120 781 
L 1120 1830 
C 1120 1965 1178 2042 1229 2099 
C 1472 2336 1760 2477 2010 2477 
C 2138 2477 2272 2394 2349 2246 
C 2413 2118 2426 1946 2426 1754 
L 2426 781 
C 2426 256 2362 230 2029 198 
C 1997 160 1997 26 2029 -13 
C 2221 -6 2426 0 2682 0 
C 2938 0 3168 -6 3360 -13 
C 3392 26 3392 160 3360 198 
C 3002 230 2931 256 2931 781 
L 2931 1734 
C 2931 2086 2906 2394 2758 2592 
C 2650 2733 2451 2810 2227 2810 
C 1914 2810 1555 2726 1178 2291 
z
" transform="scale(0.015625)"/>
       <path id="LibertinusSerif-Regular-75" d="M 1389 -64 
C 1638 -64 1939 64 2253 320 
C 2285 346 2342 358 2349 314 
C 2368 154 2419 -64 2419 -64 
C 2470 -83 2502 -77 2541 -64 
C 2682 51 2906 147 3296 192 
C 3334 230 3334 326 3296 365 
C 2886 397 2829 518 2829 832 
L 2829 2061 
C 2829 2253 2854 2720 2854 2720 
C 2854 2739 2835 2758 2803 2758 
C 2771 2752 2675 2746 2579 2746 
C 2374 2746 2144 2752 1926 2758 
C 1888 2720 1888 2586 1926 2547 
C 2240 2528 2323 2451 2323 2029 
L 2323 794 
C 2323 672 2310 621 2221 544 
C 1984 339 1741 237 1581 237 
C 1389 237 1069 326 1069 896 
L 1069 2061 
C 1069 2253 1094 2720 1094 2720 
C 1094 2739 1075 2758 1043 2758 
C 1011 2752 915 2746 819 2746 
C 614 2746 384 2752 166 2758 
C 128 2720 128 2586 166 2547 
C 474 2522 563 2451 563 2035 
L 563 806 
C 563 365 755 -64 1389 -64 
z
" transform="scale(0.015625)"/>
       <path id="LibertinusSerif-Regular-74" d="M 275 2746 
C 186 2746 160 2669 160 2618 
L 160 2534 
C 160 2502 166 2496 192 2496 
L 570 2496 
L 570 570 
C 570 115 768 -64 1062 -64 
C 1357 -64 1677 77 1926 358 
C 1914 422 1875 461 1811 467 
C 1645 339 1453 288 1286 288 
C 1114 288 1075 480 1075 877 
L 1075 2496 
L 1741 2496 
C 1805 2496 1894 2522 1894 2579 
L 1894 2707 
C 1894 2733 1875 2746 1843 2746 
L 1075 2746 
L 1075 2995 
C 1075 3411 1101 3667 1101 3667 
C 1101 3706 1082 3725 1050 3725 
C 1024 3725 966 3699 909 3667 
C 838 3629 774 3597 691 3578 
C 614 3552 550 3533 550 3488 
C 550 3411 570 3456 570 2746 
L 275 2746 
z
" transform="scale(0.015625)"/>
       <path id="LibertinusSerif-Regular-73" d="M 307 883 
C 333 570 352 269 352 0 
C 416 13 480 19 512 19 
C 557 19 595 19 640 6 
C 813 -38 986 -64 1222 -64 
C 1581 -64 2240 109 2240 742 
C 2240 1178 1926 1434 1491 1594 
C 1107 1741 851 1837 851 2189 
C 851 2451 1082 2598 1299 2598 
C 1440 2598 1811 2547 1894 2003 
C 1933 1965 2061 1971 2099 2010 
C 2118 2240 2131 2477 2138 2688 
C 1939 2720 1632 2810 1299 2810 
C 826 2810 397 2502 397 2093 
C 397 1626 608 1427 1101 1222 
C 1632 1005 1754 870 1754 595 
C 1754 282 1446 147 1210 147 
C 960 147 819 230 755 301 
C 614 448 544 730 506 890 
C 467 928 346 922 307 883 
z
" transform="scale(0.015625)"/>
       <path id="LibertinusSerif-Regular-6f" d="M 262 1312 
C 262 659 698 -64 1606 -64 
C 2016 -64 2330 83 2547 294 
C 2835 576 2963 979 2963 1370 
C 2963 2035 2598 2810 1619 2810 
C 1197 2810 851 2637 614 2362 
C 384 2086 262 1715 262 1312 
z
M 1523 2586 
C 2074 2586 2413 2086 2413 1165 
C 2413 358 1997 160 1696 160 
C 1030 160 813 966 813 1459 
C 813 2016 947 2586 1523 2586 
z
" transform="scale(0.015625)"/>
       <path id="LibertinusSerif-Regular-66" d="M 1120 781 
L 1120 2496 
L 1715 2496 
C 1773 2496 1862 2522 1862 2579 
L 1862 2707 
C 1862 2733 1843 2746 1811 2746 
L 1120 2746 
L 1120 3110 
C 1120 4096 1414 4250 1626 4250 
C 1818 4250 1920 4173 2010 3949 
C 2061 3834 2131 3744 2266 3744 
C 2374 3744 2528 3878 2528 4006 
C 2528 4115 2458 4230 2323 4333 
C 2157 4448 1990 4467 1747 4467 
C 1210 4467 614 4000 614 3002 
L 614 2746 
L 288 2746 
C 173 2746 141 2669 141 2618 
L 141 2534 
C 141 2502 147 2496 173 2496 
L 614 2496 
L 614 781 
C 614 250 512 224 166 198 
C 128 160 128 26 166 -13 
C 390 -6 614 0 870 0 
C 1126 0 1434 -6 1658 -13 
C 1696 26 1696 160 1658 198 
C 1158 224 1120 250 1120 781 
z
" transform="scale(0.015625)"/>
       <path id="Cmmi10-61" d="M 1113 -72 
Q 709 -72 476 233 
Q 244 538 244 953 
Q 244 1363 456 1803 
Q 669 2244 1030 2536 
Q 1391 2828 1806 2828 
Q 1997 2828 2147 2725 
Q 2297 2622 2381 2444 
Q 2453 2700 2663 2700 
Q 2744 2700 2798 2651 
Q 2853 2603 2853 2522 
Q 2853 2503 2851 2493 
Q 2850 2484 2847 2472 
L 2400 684 
Q 2356 494 2356 372 
Q 2356 97 2541 97 
Q 2741 97 2845 351 
Q 2950 606 3022 941 
Q 3034 978 3072 978 
L 3150 978 
Q 3175 978 3190 956 
Q 3206 934 3206 916 
Q 3094 469 2961 198 
Q 2828 -72 2528 -72 
Q 2313 -72 2147 54 
Q 1981 181 1941 391 
Q 1528 -72 1113 -72 
z
M 1119 97 
Q 1350 97 1567 270 
Q 1784 444 1941 678 
Q 1947 684 1947 697 
L 2291 2088 
L 2297 2106 
Q 2259 2334 2132 2498 
Q 2006 2663 1791 2663 
Q 1575 2663 1389 2486 
Q 1203 2309 1075 2069 
Q 950 1813 836 1366 
Q 722 919 722 672 
Q 722 450 817 273 
Q 913 97 1119 97 
z
" transform="scale(0.015625)"/>
       <path id="Cmsy10-a1" d="M 653 1472 
Q 600 1472 565 1512 
Q 531 1553 531 1600 
Q 531 1647 565 1687 
Q 600 1728 653 1728 
L 4325 1728 
Q 4375 1728 4408 1687 
Q 4441 1647 4441 1600 
Q 4441 1553 4408 1512 
Q 4375 1472 4325 1472 
L 653 1472 
z
" transform="scale(0.015625)"/>
       <path id="Cmr10-31" d="M 594 0 
L 594 225 
Q 1394 225 1394 428 
L 1394 3788 
Q 1063 3628 556 3628 
L 556 3853 
Q 1341 3853 1741 4263 
L 1831 4263 
Q 1853 4263 1873 4245 
Q 1894 4228 1894 4206 
L 1894 428 
Q 1894 225 2694 225 
L 2694 0 
L 594 0 
z
" transform="scale(0.015625)"/>
       <path id="LibertinusSerif-Regular-29" d="M 1626 1613 
C 1626 1901 1600 3379 269 4531 
C 205 4518 154 4474 134 4422 
C 346 4179 1094 3296 1094 1613 
C 1094 -70 339 -954 134 -1184 
C 154 -1248 198 -1293 269 -1299 
C 1030 -646 1626 422 1626 1613 
z
" transform="scale(0.015625)"/>
      </defs>
      <use xlink:href="#Cmmi10-6b" transform="translate(0 0.109375)"/>
      <use xlink:href="#LibertinusSerif-Regular-20" transform="translate(52.001953 0.109375)"/>
      <use xlink:href="#LibertinusSerif-Regular-28" transform="translate(77.001938 0.109375)"/>
      <use xlink:href="#LibertinusSerif-Regular-69" transform="translate(106.801926 0.109375)"/>
      <use xlink:href="#LibertinusSerif-Regular-6e" transform="translate(133.901917 0.109375)"/>
      <use xlink:href="#LibertinusSerif-Regular-20" transform="translate(188.101913 0.109375)"/>
      <use xlink:href="#LibertinusSerif-Regular-75" transform="translate(213.101898 0.109375)"/>
      <use xlink:href="#LibertinusSerif-Regular-6e" transform="translate(266.201889 0.109375)"/>
      <use xlink:href="#LibertinusSerif-Regular-69" transform="translate(320.401886 0.109375)"/>
      <use xlink:href="#LibertinusSerif-Regular-74" transform="translate(347.501877 0.109375)"/>
      <use xlink:href="#LibertinusSerif-Regular-73" transform="translate(379.101868 0.109375)"/>
      <use xlink:href="#LibertinusSerif-Regular-20" transform="translate(418.101852 0.109375)"/>
      <use xlink:href="#LibertinusSerif-Regular-6f" transform="translate(443.101837 0.109375)"/>
      <use xlink:href="#LibertinusSerif-Regular-66" transform="translate(493.501831 0.109375)"/>
      <use xlink:href="#LibertinusSerif-Regular-20" transform="translate(524.501816 0.109375)"/>
      <use xlink:href="#Cmmi10-61" transform="translate(549.501801 0.109375)"/>
      <use xlink:href="#Cmsy10-a1" transform="translate(608.588285 38.373438)scale(0.7)"/>
      <use xlink:href="#Cmr10-31" transform="translate(662.968168 38.373438)scale(0.7)"/>
      <use xlink:href="#LibertinusSerif-Regular-29" transform="translate(704.345511 0.109375)"/>
     </g>
    </g>
   </g>
   <g id="matplotlib.axis_2">
    <g id="ytick_1">
     <g id="line2d_8">
      <defs>
       <path id="m24a90c17d9" d="M 0 0 
L -3.5 0 
" style="stroke: #000000; stroke-width: 0.8"/>
      </defs>
      <g>
       <use xlink:href="#m24a90c17d9" x="58.46" y="279.024673" style="stroke: #000000; stroke-width: 0.8"/>
      </g>
     </g>
     <g id="text_9">
      <!-- 0.0 -->
      <g transform="translate(35.36 283.910455)scale(0.14 -0.14)">
       <defs>
        <path id="LibertinusSerif-Regular-2e" d="M 365 275 
C 365 90 518 -64 704 -64 
C 890 -64 1043 90 1043 275 
C 1043 461 890 614 704 614 
C 518 614 365 461 365 275 
z
" transform="scale(0.015625)"/>
       </defs>
       <use xlink:href="#LibertinusSerif-Regular-30"/>
       <use xlink:href="#LibertinusSerif-Regular-2e" x="46.499985"/>
       <use xlink:href="#LibertinusSerif-Regular-30" x="68.499969"/>
      </g>
     </g>
    </g>
    <g id="ytick_2">
     <g id="line2d_9">
      <g>
       <use xlink:href="#m24a90c17d9" x="58.46" y="243.480143" style="stroke: #000000; stroke-width: 0.8"/>
      </g>
     </g>
     <g id="text_10">
      <!-- 0.2 -->
      <g transform="translate(35.36 248.365924)scale(0.14 -0.14)">
       <use xlink:href="#LibertinusSerif-Regular-30"/>
       <use xlink:href="#LibertinusSerif-Regular-2e" x="46.499985"/>
       <use xlink:href="#LibertinusSerif-Regular-32" x="68.499969"/>
      </g>
     </g>
    </g>
    <g id="ytick_3">
     <g id="line2d_10">
      <g>
       <use xlink:href="#m24a90c17d9" x="58.46" y="207.935613" style="stroke: #000000; stroke-width: 0.8"/>
      </g>
     </g>
     <g id="text_11">
      <!-- 0.4 -->
      <g transform="translate(35.36 212.821394)scale(0.14 -0.14)">
       <use xlink:href="#LibertinusSerif-Regular-30"/>
       <use xlink:href="#LibertinusSerif-Regular-2e" x="46.499985"/>
       <use xlink:href="#LibertinusSerif-Regular-34" x="68.499969"/>
      </g>
     </g>
    </g>
    <g id="ytick_4">
     <g id="line2d_11">
      <g>
       <use xlink:href="#m24a90c17d9" x="58.46" y="172.391082" style="stroke: #000000; stroke-width: 0.8"/>
      </g>
     </g>
     <g id="text_12">
      <!-- 0.6 -->
      <g transform="translate(35.36 177.276864)scale(0.14 -0.14)">
       <use xlink:href="#LibertinusSerif-Regular-30"/>
       <use xlink:href="#LibertinusSerif-Regular-2e" x="46.499985"/>
       <use xlink:href="#LibertinusSerif-Regular-36" x="68.499969"/>
      </g>
     </g>
    </g>
    <g id="ytick_5">
     <g id="line2d_12">
      <g>
       <use xlink:href="#m24a90c17d9" x="58.46" y="136.846552" style="stroke: #000000; stroke-width: 0.8"/>
      </g>
     </g>
     <g id="text_13">
      <!-- 0.8 -->
      <g transform="translate(35.36 141.732333)scale(0.14 -0.14)">
       <defs>
        <path id="LibertinusSerif-Regular-38" d="M 2515 3104 
C 2515 3565 2157 3904 1530 3904 
C 877 3904 454 3514 454 3021 
C 454 2662 627 2400 1018 2157 
L 1184 2054 
C 998 1958 826 1843 666 1702 
C 403 1472 294 1184 294 934 
C 294 282 755 -64 1434 -64 
C 2272 -64 2682 550 2682 1037 
C 2682 1408 2522 1734 2182 1939 
L 1728 2214 
C 2029 2362 2515 2694 2515 3104 
z
M 1446 160 
C 1158 160 723 358 723 934 
C 723 1126 806 1574 1357 1939 
L 1658 1760 
C 2054 1517 2214 1216 2214 909 
C 2214 269 1734 160 1446 160 
z
M 1498 3680 
C 1914 3680 2067 3405 2067 3110 
C 2067 2765 1728 2477 1555 2349 
L 1357 2470 
C 954 2733 909 2944 909 3142 
C 909 3437 1114 3680 1498 3680 
z
" transform="scale(0.015625)"/>
       </defs>
       <use xlink:href="#LibertinusSerif-Regular-30"/>
       <use xlink:href="#LibertinusSerif-Regular-2e" x="46.499985"/>
       <use xlink:href="#LibertinusSerif-Regular-38" x="68.499969"/>
      </g>
     </g>
    </g>
    <g id="ytick_6">
     <g id="line2d_13">
      <g>
       <use xlink:href="#m24a90c17d9" x="58.46" y="101.302022" style="stroke: #000000; stroke-width: 0.8"/>
      </g>
     </g>
     <g id="text_14">
      <!-- 1.0 -->
      <g transform="translate(35.36 106.187803)scale(0.14 -0.14)">
       <defs>
        <path id="LibertinusSerif-Regular-31" d="M 1843 781 
L 1843 3002 
C 1843 3386 1850 3776 1862 3859 
C 1862 3891 1850 3891 1824 3891 
C 1472 3674 1133 3514 570 3251 
C 582 3181 608 3117 666 3078 
C 960 3200 1101 3238 1222 3238 
C 1331 3238 1350 3085 1350 2867 
L 1350 781 
C 1350 250 1178 218 730 198 
C 691 160 691 26 730 -13 
C 1043 -6 1274 0 1619 0 
C 1926 0 2080 -6 2400 -13 
C 2438 26 2438 160 2400 198 
C 1952 218 1843 250 1843 781 
z
" transform="scale(0.015625)"/>
       </defs>
       <use xlink:href="#LibertinusSerif-Regular-31"/>
       <use xlink:href="#LibertinusSerif-Regular-2e" x="46.499985"/>
       <use xlink:href="#LibertinusSerif-Regular-30" x="68.499969"/>
      </g>
     </g>
    </g>
    <g id="ytick_7">
     <g id="line2d_14">
      <g>
       <use xlink:href="#m24a90c17d9" x="58.46" y="65.757491" style="stroke: #000000; stroke-width: 0.8"/>
      </g>
     </g>
     <g id="text_15">
      <!-- 1.2 -->
      <g transform="translate(35.36 70.643273)scale(0.14 -0.14)">
       <use xlink:href="#LibertinusSerif-Regular-31"/>
       <use xlink:href="#LibertinusSerif-Regular-2e" x="46.499985"/>
       <use xlink:href="#LibertinusSerif-Regular-32" x="68.499969"/>
      </g>
     </g>
    </g>
    <g id="ytick_8">
     <g id="line2d_15">
      <g>
       <use xlink:href="#m24a90c17d9" x="58.46" y="30.212961" style="stroke: #000000; stroke-width: 0.8"/>
      </g>
     </g>
     <g id="text_16">
      <!-- 1.4 -->
      <g transform="translate(35.36 35.098742)scale(0.14 -0.14)">
       <use xlink:href="#LibertinusSerif-Regular-31"/>
       <use xlink:href="#LibertinusSerif-Regular-2e" x="46.499985"/>
       <use xlink:href="#LibertinusSerif-Regular-34" x="68.499969"/>
      </g>
     </g>
    </g>
    <g id="text_17">
     <!-- $\omega$, in units of $(\kappa_1+\kappa_2)^{1/2}/(2\mu)^{1/2}$ -->
     <g transform="translate(27.86 252.055781)rotate(-90)scale(0.14 -0.14)">
      <defs>
       <path id="Cmmi10-21" d="M 775 -72 
Q 413 -72 252 193 
Q 91 459 91 844 
Q 91 1097 136 1339 
Q 181 1581 273 1829 
Q 366 2078 484 2295 
Q 603 2513 750 2719 
Q 778 2759 825 2759 
Q 866 2759 891 2734 
Q 916 2709 916 2675 
Q 916 2641 897 2613 
Q 313 1809 313 1131 
Q 313 838 448 627 
Q 584 416 863 416 
Q 1103 416 1308 556 
Q 1513 697 1663 916 
Q 1663 1028 1702 1265 
Q 1741 1503 1823 1689 
Q 1906 1875 2022 1875 
Q 2169 1875 2169 1703 
Q 2169 1603 2126 1451 
Q 2084 1300 2032 1169 
Q 1981 1038 1906 872 
Q 1981 416 2363 416 
Q 2584 416 2807 544 
Q 3031 672 3203 880 
Q 3375 1088 3473 1328 
Q 3572 1569 3572 1784 
Q 3572 1978 3511 2086 
Q 3450 2194 3350 2312 
Q 3250 2431 3250 2503 
Q 3250 2628 3356 2731 
Q 3463 2834 3584 2834 
Q 3741 2834 3806 2692 
Q 3872 2550 3872 2369 
Q 3872 2075 3755 1628 
Q 3638 1181 3488 884 
Q 3281 481 2970 204 
Q 2659 -72 2272 -72 
Q 2025 -72 1873 76 
Q 1722 225 1678 481 
Q 1500 228 1272 78 
Q 1044 -72 775 -72 
z
" transform="scale(0.015625)"/>
       <path id="LibertinusSerif-Regular-2c" d="M 666 608 
C 467 608 326 474 326 294 
C 326 96 493 32 608 13 
C 730 0 838 -38 838 -186 
C 838 -320 608 -614 275 -698 
C 275 -762 288 -806 333 -851 
C 717 -781 1088 -474 1088 -26 
C 1088 358 922 608 666 608 
z
" transform="scale(0.015625)"/>
       <path id="Cmr10-28" d="M 1984 -1588 
Q 1628 -1306 1370 -942 
Q 1113 -578 948 -165 
Q 784 247 703 697 
Q 622 1147 622 1600 
Q 622 2059 703 2509 
Q 784 2959 951 3375 
Q 1119 3791 1378 4153 
Q 1638 4516 1984 4788 
Q 1984 4800 2016 4800 
L 2075 4800 
Q 2094 4800 2109 4783 
Q 2125 4766 2125 4744 
Q 2125 4716 2113 4703 
Q 1800 4397 1592 4047 
Q 1384 3697 1257 3301 
Q 1131 2906 1075 2482 
Q 1019 2059 1019 1600 
Q 1019 -434 2106 -1491 
Q 2125 -1509 2125 -1544 
Q 2125 -1559 2108 -1579 
Q 2091 -1600 2075 -1600 
L 2016 -1600 
Q 1984 -1600 1984 -1588 
z
" transform="scale(0.015625)"/>
       <path id="Cmmi10-2219" d="M 341 109 
Q 341 147 347 166 
L 959 2625 
Q 984 2716 1059 2772 
Q 1134 2828 1228 2828 
Q 1309 2828 1365 2779 
Q 1422 2731 1422 2650 
Q 1422 2631 1420 2620 
Q 1419 2609 1416 2597 
L 1184 1672 
Q 1441 1756 1866 2111 
Q 2291 2466 2508 2612 
Q 2725 2759 3041 2759 
Q 3144 2759 3214 2695 
Q 3284 2631 3284 2522 
Q 3284 2372 3176 2267 
Q 3069 2163 2919 2163 
Q 2816 2163 2745 2230 
Q 2675 2297 2675 2400 
Q 2675 2472 2700 2522 
Q 2547 2459 2386 2346 
Q 2225 2234 2094 2120 
Q 1963 2006 1778 1853 
Q 1594 1700 1447 1619 
Q 1709 1619 1984 1562 
Q 2259 1506 2461 1356 
Q 2663 1206 2663 947 
Q 2663 844 2638 769 
Q 2578 513 2578 384 
Q 2578 97 2778 97 
Q 3006 97 3128 350 
Q 3250 603 3328 941 
Q 3341 978 3378 978 
L 3456 978 
Q 3481 978 3497 961 
Q 3513 944 3513 922 
Q 3513 916 3506 903 
Q 3272 -72 2766 -72 
Q 2584 -72 2445 12 
Q 2306 97 2231 242 
Q 2156 388 2156 569 
Q 2156 684 2181 781 
Q 2203 869 2203 928 
Q 2203 1134 2020 1253 
Q 1838 1372 1589 1415 
Q 1341 1459 1125 1459 
L 800 141 
Q 778 53 701 -9 
Q 625 -72 531 -72 
Q 453 -72 397 -22 
Q 341 28 341 109 
z
" transform="scale(0.015625)"/>
       <path id="Cmr10-2b" d="M 481 1472 
Q 428 1472 393 1512 
Q 359 1553 359 1600 
Q 359 1647 393 1687 
Q 428 1728 481 1728 
L 2363 1728 
L 2363 3616 
Q 2363 3666 2400 3698 
Q 2438 3731 2491 3731 
Q 2538 3731 2578 3698 
Q 2619 3666 2619 3616 
L 2619 1728 
L 4500 1728 
Q 4547 1728 4581 1687 
Q 4616 1647 4616 1600 
Q 4616 1553 4581 1512 
Q 4547 1472 4500 1472 
L 2619 1472 
L 2619 -416 
Q 2619 -466 2578 -498 
Q 2538 -531 2491 -531 
Q 2438 -531 2400 -498 
Q 2363 -466 2363 -416 
L 2363 1472 
L 481 1472 
z
" transform="scale(0.015625)"/>
       <path id="Cmr10-32" d="M 319 0 
L 319 172 
Q 319 188 331 206 
L 1325 1306 
Q 1550 1550 1690 1715 
Q 1831 1881 1968 2097 
Q 2106 2313 2186 2536 
Q 2266 2759 2266 3009 
Q 2266 3272 2169 3511 
Q 2072 3750 1880 3894 
Q 1688 4038 1416 4038 
Q 1138 4038 916 3870 
Q 694 3703 603 3438 
Q 628 3444 672 3444 
Q 816 3444 917 3347 
Q 1019 3250 1019 3097 
Q 1019 2950 917 2848 
Q 816 2747 672 2747 
Q 522 2747 420 2851 
Q 319 2956 319 3097 
Q 319 3338 409 3548 
Q 500 3759 670 3923 
Q 841 4088 1055 4175 
Q 1269 4263 1509 4263 
Q 1875 4263 2190 4108 
Q 2506 3953 2690 3670 
Q 2875 3388 2875 3009 
Q 2875 2731 2753 2481 
Q 2631 2231 2440 2026 
Q 2250 1822 1953 1562 
Q 1656 1303 1563 1216 
L 838 519 
L 1453 519 
Q 1906 519 2211 526 
Q 2516 534 2534 550 
Q 2609 631 2688 1141 
L 2875 1141 
L 2694 0 
L 319 0 
z
" transform="scale(0.015625)"/>
       <path id="Cmr10-29" d="M 416 -1600 
Q 359 -1600 359 -1544 
Q 359 -1516 372 -1503 
Q 1466 -434 1466 1600 
Q 1466 3634 384 4691 
Q 359 4706 359 4744 
Q 359 4766 376 4783 
Q 394 4800 416 4800 
L 475 4800 
Q 494 4800 506 4788 
Q 966 4425 1272 3906 
Q 1578 3388 1720 2800 
Q 1863 2213 1863 1600 
Q 1863 1147 1786 708 
Q 1709 269 1542 -157 
Q 1375 -584 1119 -945 
Q 863 -1306 506 -1588 
Q 494 -1600 475 -1600 
L 416 -1600 
z
" transform="scale(0.015625)"/>
       <path id="Cmmi10-3d" d="M 359 -1472 
Q 359 -1453 366 -1447 
L 2591 4722 
Q 2603 4759 2634 4779 
Q 2666 4800 2706 4800 
Q 2763 4800 2798 4765 
Q 2834 4731 2834 4672 
L 2834 4647 
L 609 -1522 
Q 572 -1600 488 -1600 
Q 434 -1600 396 -1562 
Q 359 -1525 359 -1472 
z
" transform="scale(0.015625)"/>
       <path id="Cmmi10-b9" d="M 178 -1203 
Q 178 -1166 184 -1153 
L 1125 2625 
Q 1153 2716 1226 2772 
Q 1300 2828 1394 2828 
Q 1475 2828 1531 2779 
Q 1588 2731 1588 2650 
Q 1588 2631 1586 2620 
Q 1584 2609 1581 2597 
L 1203 1100 
Q 1141 834 1141 641 
Q 1141 403 1253 250 
Q 1366 97 1594 97 
Q 2059 97 2413 678 
Q 2416 684 2417 687 
Q 2419 691 2419 697 
L 2881 2553 
Q 2903 2638 2981 2698 
Q 3059 2759 3150 2759 
Q 3225 2759 3283 2709 
Q 3341 2659 3341 2578 
Q 3341 2541 3334 2528 
L 2875 684 
Q 2828 503 2828 372 
Q 2828 97 3016 97 
Q 3216 97 3317 344 
Q 3419 591 3494 941 
Q 3506 978 3547 978 
L 3622 978 
Q 3647 978 3664 958 
Q 3681 938 3681 916 
Q 3569 469 3436 198 
Q 3303 -72 3003 -72 
Q 2791 -72 2627 50 
Q 2463 172 2413 378 
Q 2253 178 2039 53 
Q 1825 -72 1588 -72 
Q 1188 -72 959 116 
L 634 -1178 
Q 616 -1269 541 -1325 
Q 466 -1381 372 -1381 
Q 294 -1381 236 -1332 
Q 178 -1284 178 -1203 
z
" transform="scale(0.015625)"/>
      </defs>
      <use xlink:href="#Cmmi10-21" transform="translate(0 0.235938)"/>
      <use xlink:href="#LibertinusSerif-Regular-2c" transform="translate(62.207031 0.235938)"/>
      <use xlink:href="#LibertinusSerif-Regular-20" transform="translate(84.207016 0.235938)"/>
      <use xlink:href="#LibertinusSerif-Regular-69" transform="translate(109.207001 0.235938)"/>
      <use xlink:href="#LibertinusSerif-Regular-6e" transform="translate(136.306992 0.235938)"/>
      <use xlink:href="#LibertinusSerif-Regular-20" transform="translate(190.506989 0.235938)"/>
      <use xlink:href="#LibertinusSerif-Regular-75" transform="translate(215.506973 0.235938)"/>
      <use xlink:href="#LibertinusSerif-Regular-6e" transform="translate(268.606964 0.235938)"/>
      <use xlink:href="#LibertinusSerif-Regular-69" transform="translate(322.806961 0.235938)"/>
      <use xlink:href="#LibertinusSerif-Regular-74" transform="translate(349.906952 0.235938)"/>
      <use xlink:href="#LibertinusSerif-Regular-73" transform="translate(381.506943 0.235938)"/>
      <use xlink:href="#LibertinusSerif-Regular-20" transform="translate(420.506927 0.235938)"/>
      <use xlink:href="#LibertinusSerif-Regular-6f" transform="translate(445.506912 0.235938)"/>
      <use xlink:href="#LibertinusSerif-Regular-66" transform="translate(495.906906 0.235938)"/>
      <use xlink:href="#LibertinusSerif-Regular-20" transform="translate(526.906891 0.235938)"/>
      <use xlink:href="#Cmr10-28" transform="translate(551.906876 0.235938)"/>
      <use xlink:href="#Cmmi10-2219" transform="translate(590.725235 0.235938)"/>
      <use xlink:href="#Cmr10-31" transform="translate(648.342422 -16.770312)scale(0.7)"/>
      <use xlink:href="#Cmr10-2b" transform="translate(707.27836 0.235938)"/>
      <use xlink:href="#Cmmi10-2219" transform="translate(802.522501 0.235938)"/>
      <use xlink:href="#Cmr10-32" transform="translate(860.139688 -16.770312)scale(0.7)"/>
      <use xlink:href="#Cmr10-29" transform="translate(901.517032 0.235938)"/>
      <use xlink:href="#Cmr10-31" transform="translate(944.799532 38.5)scale(0.7)"/>
      <use xlink:href="#Cmmi10-3d" transform="translate(979.799532 38.5)scale(0.7)"/>
      <use xlink:href="#Cmr10-32" transform="translate(1014.799532 38.5)scale(0.7)"/>
      <use xlink:href="#Cmmi10-3d" transform="translate(1056.176876 0.235938)"/>
      <use xlink:href="#Cmr10-28" transform="translate(1106.176876 0.235938)"/>
      <use xlink:href="#Cmr10-32" transform="translate(1144.995235 0.235938)"/>
      <use xlink:href="#Cmmi10-b9" transform="translate(1194.995235 0.235938)"/>
      <use xlink:href="#Cmr10-29" transform="translate(1255.200313 0.235938)"/>
      <use xlink:href="#Cmr10-31" transform="translate(1298.482813 38.5)scale(0.7)"/>
      <use xlink:href="#Cmmi10-3d" transform="translate(1333.482813 38.5)scale(0.7)"/>
      <use xlink:href="#Cmr10-32" transform="translate(1368.482813 38.5)scale(0.7)"/>
     </g>
    </g>
   </g>
   <g id="line2d_16">
    <path d="M 164.065455 132.064886 
L 167.585636 132.663768 
L 171.105818 134.406316 
L 174.626 137.154339 
L 178.146182 140.736376 
L 181.666364 144.989546 
L 185.186545 149.778715 
L 188.706727 154.999021 
L 192.226909 160.571211 
L 195.747091 166.435531 
L 199.267273 172.546385 
L 202.787455 178.868275 
L 206.307636 185.372875 
L 209.827818 192.036975 
L 213.348 198.841044 
L 216.868182 205.768216 
L 220.388364 212.803582 
L 223.908545 219.933675 
L 227.428727 227.146103 
L 230.948909 234.429279 
L 234.469091 241.772217 
L 237.989273 249.164386 
L 241.509455 256.595591 
L 245.029636 264.055877 
L 248.549818 271.535463 
L 252.07 279.024673 
L 255.590182 271.535463 
L 259.110364 264.055877 
L 262.630545 256.595591 
L 266.150727 249.164386 
L 269.670909 241.772217 
L 273.191091 234.429279 
L 276.711273 227.146103 
L 280.231455 219.933675 
L 283.751636 212.803582 
L 287.271818 205.768216 
L 290.792 198.841044 
L 294.312182 192.036975 
L 297.832364 185.372875 
L 301.352545 178.868275 
L 304.872727 172.546385 
L 308.392909 166.435531 
L 311.913091 160.571211 
L 315.433273 154.999021 
L 318.953455 149.778715 
L 322.473636 144.989546 
L 325.993818 140.736376 
L 329.514 137.154339 
L 333.034182 134.406316 
L 336.554364 132.663768 
L 340.074545 132.064886 
" clip-path="url(#pbeeb005d2d)" style="fill: none; stroke: #000080; stroke-width: 1.5; stroke-linecap: square"/>
   </g>
   <g id="line2d_17">
    <path d="M 76.060909 27.686889 
L 77.85692 27.715945 
L 79.652931 27.803094 
L 81.448942 27.94828 
L 83.244954 28.151409 
L 85.040965 28.412349 
L 86.836976 28.730928 
L 88.632987 29.106934 
L 90.428998 29.540114 
L 92.225009 30.03017 
L 94.02102 30.576761 
L 95.817032 31.179496 
L 97.613043 31.837935 
L 99.409054 32.551583 
L 101.205065 33.319887 
L 103.001076 34.142231 
L 104.797087 35.017933 
L 106.593098 35.946234 
L 108.389109 36.926294 
L 110.185121 37.957182 
L 111.981132 39.037868 
L 113.777143 40.167206 
L 115.573154 41.343924 
L 117.369165 42.566605 
L 119.165176 43.833668 
L 120.961187 45.143344 
L 122.757199 46.493644 
L 124.55321 47.882332 
L 126.349221 49.306875 
L 128.145232 50.764403 
L 129.941243 52.251643 
L 131.737254 53.764853 
L 133.533265 55.299733 
L 135.329276 56.851328 
L 137.125288 58.413901 
L 138.921299 59.980797 
L 140.71731 61.54427 
L 142.513321 63.095296 
L 144.309332 64.623359 
L 146.105343 66.116231 
L 147.901354 67.559751 
L 149.697365 68.937659 
L 151.493377 70.231511 
L 153.289388 71.42078 
L 155.085399 72.483233 
L 156.88141 73.395691 
L 158.677421 74.135259 
L 160.473432 74.681004 
L 162.269443 75.015923 
L 164.065455 75.12886 
" clip-path="url(#pbeeb005d2d)" style="fill: none; stroke-dasharray: 3.33,1.44; stroke-dashoffset: 0; stroke: #000080; stroke-opacity: 0.8; stroke-width: 0.9"/>
   </g>
   <g id="line2d_18">
    <path d="M 428.079091 27.686889 
L 426.28308 27.715945 
L 424.487069 27.803094 
L 422.691058 27.94828 
L 420.895046 28.151409 
L 419.099035 28.412349 
L 417.303024 28.730928 
L 415.507013 29.106934 
L 413.711002 29.540114 
L 411.914991 30.03017 
L 410.11898 30.576761 
L 408.322968 31.179496 
L 406.526957 31.837935 
L 404.730946 32.551583 
L 402.934935 33.319887 
L 401.138924 34.142231 
L 399.342913 35.017933 
L 397.546902 35.946234 
L 395.750891 36.926294 
L 393.954879 37.957182 
L 392.158868 39.037868 
L 390.362857 40.167206 
L 388.566846 41.343924 
L 386.770835 42.566605 
L 384.974824 43.833668 
L 383.178813 45.143344 
L 381.382801 46.493644 
L 379.58679 47.882332 
L 377.790779 49.306875 
L 375.994768 50.764403 
L 374.198757 52.251643 
L 372.402746 53.764853 
L 370.606735 55.299733 
L 368.810724 56.851328 
L 367.014712 58.413901 
L 365.218701 59.980797 
L 363.42269 61.54427 
L 361.626679 63.095296 
L 359.830668 64.623359 
L 358.034657 66.116231 
L 356.238646 67.559751 
L 354.442635 68.937659 
L 352.646623 70.231511 
L 350.850612 71.42078 
L 349.054601 72.483233 
L 347.25859 73.395691 
L 345.462579 74.135259 
L 343.666568 74.681004 
L 341.870557 75.015923 
L 340.074545 75.12886 
" clip-path="url(#pbeeb005d2d)" style="fill: none; stroke-dasharray: 3.33,1.44; stroke-dashoffset: 0; stroke: #000080; stroke-opacity: 0.8; stroke-width: 0.9"/>
   </g>
   <g id="line2d_19">
    <path d="M 164.065455 75.12886 
L 167.585636 74.698544 
L 171.105818 73.461514 
L 174.626 71.555423 
L 178.146182 69.150834 
L 181.666364 66.409372 
L 185.186545 63.464556 
L 188.706727 60.419277 
L 192.226909 57.350455 
L 195.747091 54.315157 
L 199.267273 51.355932 
L 202.787455 48.504875 
L 206.307636 45.78655 
L 209.827818 43.220046 
L 213.348 40.820418 
L 216.868182 38.599689 
L 220.388364 36.567566 
L 223.908545 34.731948 
L 227.428727 33.099287 
L 230.948909 31.674855 
L 234.469091 30.462938 
L 237.989273 29.466975 
L 241.509455 28.689662 
L 245.029636 28.13303 
L 248.549818 27.798493 
L 252.07 27.686889 
L 255.590182 27.798493 
L 259.110364 28.13303 
L 262.630545 28.689662 
L 266.150727 29.466975 
L 269.670909 30.462938 
L 273.191091 31.674855 
L 276.711273 33.099287 
L 280.231455 34.731948 
L 283.751636 36.567566 
L 287.271818 38.599689 
L 290.792 40.820418 
L 294.312182 43.220046 
L 297.832364 45.78655 
L 301.352545 48.504875 
L 304.872727 51.355932 
L 308.392909 54.315157 
L 311.913091 57.350455 
L 315.433273 60.419277 
L 318.953455 63.464556 
L 322.473636 66.409372 
L 325.993818 69.150834 
L 329.514 71.555423 
L 333.034182 73.461514 
L 336.554364 74.698544 
L 340.074545 75.12886 
" clip-path="url(#pbeeb005d2d)" style="fill: none; stroke: #000080; stroke-width: 1.5; stroke-linecap: square"/>
   </g>
   <g id="line2d_20">
    <path d="M 164.065455 122.427598 
L 167.585636 123.259189 
L 171.105818 125.605644 
L 174.626 129.137419 
L 178.146182 133.528446 
L 181.666364 138.536356 
L 185.186545 143.999478 
L 188.706727 149.812359 
L 192.226909 155.904955 
L 195.747091 162.228998 
L 199.267273 168.749728 
L 202.787455 175.440923 
L 206.307636 182.281885 
L 209.827818 189.255573 
L 213.348 196.347421 
L 216.868182 203.544572 
L 220.388364 210.835362 
L 223.908545 218.208982 
L 227.428727 225.655232 
L 230.948909 233.164358 
L 234.469091 240.726929 
L 237.989273 248.333749 
L 241.509455 255.975797 
L 245.029636 263.644171 
L 248.549818 271.330051 
L 252.07 279.024673 
L 255.590182 271.330051 
L 259.110364 263.644171 
L 262.630545 255.975797 
L 266.150727 248.333749 
L 269.670909 240.726929 
L 273.191091 233.164358 
L 276.711273 225.655232 
L 280.231455 218.208982 
L 283.751636 210.835362 
L 287.271818 203.544572 
L 290.792 196.347421 
L 294.312182 189.255573 
L 297.832364 182.281885 
L 301.352545 175.440923 
L 304.872727 168.749728 
L 308.392909 162.228998 
L 311.913091 155.904955 
L 315.433273 149.812359 
L 318.953455 143.999478 
L 322.473636 138.536356 
L 325.993818 133.528446 
L 329.514 129.137419 
L 333.034182 125.605644 
L 336.554364 123.259189 
L 340.074545 122.427598 
" clip-path="url(#pbeeb005d2d)" style="fill: none; stroke: #7dff7a; stroke-width: 1.5; stroke-linecap: square"/>
   </g>
   <g id="line2d_21">
    <path d="M 76.060909 27.686889 
L 77.85692 27.71756 
L 79.652931 27.809558 
L 81.448942 27.962842 
L 83.244954 28.177343 
L 85.040965 28.452963 
L 86.836976 28.789576 
L 88.632987 29.187026 
L 90.428998 29.645129 
L 92.225009 30.163668 
L 94.02102 30.742393 
L 95.817032 31.381024 
L 97.613043 32.079242 
L 99.409054 32.836694 
L 101.205065 33.652984 
L 103.001076 34.527676 
L 104.797087 35.460289 
L 106.593098 36.45029 
L 108.389109 37.497094 
L 110.185121 38.600055 
L 111.981132 39.758461 
L 113.777143 40.971526 
L 115.573154 42.23838 
L 117.369165 43.558059 
L 119.165176 44.929488 
L 120.961187 46.351467 
L 122.757199 47.822648 
L 124.55321 49.341511 
L 126.349221 50.90633 
L 128.145232 52.515135 
L 129.941243 54.16566 
L 131.737254 55.855281 
L 133.533265 57.580934 
L 135.329276 59.339015 
L 137.125288 61.125242 
L 138.921299 62.934487 
L 140.71731 64.760554 
L 142.513321 66.595885 
L 144.309332 68.431187 
L 146.105343 70.254944 
L 147.901354 72.0528 
L 149.697365 73.806789 
L 151.493377 75.494438 
L 153.289388 77.087814 
L 155.085399 78.55273 
L 156.88141 79.848563 
L 158.677421 80.929407 
L 160.473432 81.747472 
L 162.269443 82.259249 
L 164.065455 82.433631 
" clip-path="url(#pbeeb005d2d)" style="fill: none; stroke-dasharray: 3.33,1.44; stroke-dashoffset: 0; stroke: #7dff7a; stroke-opacity: 0.8; stroke-width: 0.9"/>
   </g>
   <g id="line2d_22">
    <path d="M 428.079091 27.686889 
L 426.28308 27.71756 
L 424.487069 27.809558 
L 422.691058 27.962842 
L 420.895046 28.177343 
L 419.099035 28.452963 
L 417.303024 28.789576 
L 415.507013 29.187026 
L 413.711002 29.645129 
L 411.914991 30.163668 
L 410.11898 30.742393 
L 408.322968 31.381024 
L 406.526957 32.079242 
L 404.730946 32.836694 
L 402.934935 33.652984 
L 401.138924 34.527676 
L 399.342913 35.460289 
L 397.546902 36.45029 
L 395.750891 37.497094 
L 393.954879 38.600055 
L 392.158868 39.758461 
L 390.362857 40.971526 
L 388.566846 42.23838 
L 386.770835 43.558059 
L 384.974824 44.929488 
L 383.178813 46.351467 
L 381.382801 47.822648 
L 379.58679 49.341511 
L 377.790779 50.90633 
L 375.994768 52.515135 
L 374.198757 54.16566 
L 372.402746 55.855281 
L 370.606735 57.580934 
L 368.810724 59.339015 
L 367.014712 61.125242 
L 365.218701 62.934487 
L 363.42269 64.760554 
L 361.626679 66.595885 
L 359.830668 68.431187 
L 358.034657 70.254944 
L 356.238646 72.0528 
L 354.442635 73.806789 
L 352.646623 75.494438 
L 350.850612 77.087814 
L 349.054601 78.55273 
L 347.25859 79.848563 
L 345.462579 80.929407 
L 343.666568 81.747472 
L 341.870557 82.259249 
L 340.074545 82.433631 
" clip-path="url(#pbeeb005d2d)" style="fill: none; stroke-dasharray: 3.33,1.44; stroke-dashoffset: 0; stroke: #7dff7a; stroke-opacity: 0.8; stroke-width: 0.9"/>
   </g>
   <g id="line2d_23">
    <path d="M 164.065455 82.433631 
L 167.585636 81.774083 
L 171.105818 79.943576 
L 174.626 77.271129 
L 178.146182 74.081926 
L 181.666364 70.617105 
L 185.186545 67.036753 
L 188.706727 63.444387 
L 192.226909 59.907772 
L 195.747091 56.47254 
L 199.267273 53.170477 
L 202.787455 50.02448 
L 206.307636 47.051583 
L 209.827818 44.264817 
L 213.348 41.674397 
L 216.868182 39.288493 
L 220.388364 37.11374 
L 223.908545 35.155583 
L 227.428727 33.418516 
L 230.948909 31.906254 
L 234.469091 30.621846 
L 237.989273 29.567765 
L 241.509455 28.745967 
L 245.029636 28.157932 
L 248.549818 27.804701 
L 252.07 27.686889 
L 255.590182 27.804701 
L 259.110364 28.157932 
L 262.630545 28.745967 
L 266.150727 29.567765 
L 269.670909 30.621846 
L 273.191091 31.906254 
L 276.711273 33.418516 
L 280.231455 35.155583 
L 283.751636 37.11374 
L 287.271818 39.288493 
L 290.792 41.674397 
L 294.312182 44.264817 
L 297.832364 47.051583 
L 301.352545 50.02448 
L 304.872727 53.170477 
L 308.392909 56.47254 
L 311.913091 59.907772 
L 315.433273 63.444387 
L 318.953455 67.036753 
L 322.473636 70.617105 
L 325.993818 74.081926 
L 329.514 77.271129 
L 333.034182 79.943576 
L 336.554364 81.774083 
L 340.074545 82.433631 
" clip-path="url(#pbeeb005d2d)" style="fill: none; stroke: #7dff7a; stroke-width: 1.5; stroke-linecap: square"/>
   </g>
   <g id="line2d_24">
    <path d="M 164.065455 101.302022 
L 167.585636 106.972121 
L 171.105818 112.812014 
L 174.626 118.81594 
L 178.146182 124.977973 
L 181.666364 131.29203 
L 185.186545 137.751883 
L 188.706727 144.351154 
L 192.226909 151.083332 
L 195.747091 157.941772 
L 199.267273 164.919707 
L 202.787455 172.01025 
L 206.307636 179.206403 
L 209.827818 186.501064 
L 213.348 193.887035 
L 216.868182 201.357027 
L 220.388364 208.903667 
L 223.908545 216.519508 
L 227.428727 224.197034 
L 230.948909 231.928669 
L 234.469091 239.706781 
L 237.989273 247.523696 
L 241.509455 255.371698 
L 245.029636 263.243043 
L 248.549818 271.129963 
L 252.07 279.024673 
L 255.590182 271.129963 
L 259.110364 263.243043 
L 262.630545 255.371698 
L 266.150727 247.523696 
L 269.670909 239.706781 
L 273.191091 231.928669 
L 276.711273 224.197034 
L 280.231455 216.519508 
L 283.751636 208.903667 
L 287.271818 201.357027 
L 290.792 193.887035 
L 294.312182 186.501064 
L 297.832364 179.206403 
L 301.352545 172.01025 
L 304.872727 164.919707 
L 308.392909 157.941772 
L 311.913091 151.083332 
L 315.433273 144.351154 
L 318.953455 137.751883 
L 322.473636 131.29203 
L 325.993818 124.977973 
L 329.514 118.81594 
L 333.034182 112.812014 
L 336.554364 106.972121 
L 340.074545 101.302022 
" clip-path="url(#pbeeb005d2d)" style="fill: none; stroke: #800000; stroke-width: 1.5; stroke-linecap: square"/>
   </g>
   <g id="line2d_25">
    <path d="M 76.060909 27.686889 
L 77.85692 27.719175 
L 79.652931 27.816022 
L 81.448942 27.977408 
L 83.244954 28.20329 
L 85.040965 28.493609 
L 86.836976 28.848293 
L 88.632987 29.267248 
L 90.428998 29.750369 
L 92.225009 30.29753 
L 94.02102 30.908591 
L 95.817032 31.583396 
L 97.613043 32.32177 
L 99.409054 33.123524 
L 101.205065 33.988452 
L 103.001076 34.916332 
L 104.797087 35.906926 
L 106.593098 36.959978 
L 108.389109 38.075219 
L 110.185121 39.252362 
L 111.981132 40.491105 
L 113.777143 41.791129 
L 115.573154 43.1521 
L 117.369165 44.573668 
L 119.165176 46.055469 
L 120.961187 47.597122 
L 122.757199 49.198231 
L 124.55321 50.858384 
L 126.349221 52.577155 
L 128.145232 54.354101 
L 129.941243 56.188768 
L 131.737254 58.080683 
L 133.533265 60.029361 
L 135.329276 62.0343 
L 137.125288 64.094986 
L 138.921299 66.210889 
L 140.71731 68.381466 
L 142.513321 70.606159 
L 144.309332 72.884396 
L 146.105343 75.215593 
L 147.901354 77.599149 
L 149.697365 80.034454 
L 151.493377 82.520881 
L 153.289388 85.057791 
L 155.085399 87.644533 
L 156.88141 90.280443 
L 158.677421 92.964842 
L 160.473432 95.697041 
L 162.269443 98.476339 
L 164.065455 101.302022 
" clip-path="url(#pbeeb005d2d)" style="fill: none; stroke-dasharray: 3.33,1.44; stroke-dashoffset: 0; stroke: #800000; stroke-opacity: 0.8; stroke-width: 0.9"/>
   </g>
   <g id="line2d_26">
    <path d="M 428.079091 27.686889 
L 426.28308 27.719175 
L 424.487069 27.816022 
L 422.691058 27.977408 
L 420.895046 28.20329 
L 419.099035 28.493609 
L 417.303024 28.848293 
L 415.507013 29.267248 
L 413.711002 29.750369 
L 411.914991 30.29753 
L 410.11898 30.908591 
L 408.322968 31.583396 
L 406.526957 32.32177 
L 404.730946 33.123524 
L 402.934935 33.988452 
L 401.138924 34.916332 
L 399.342913 35.906926 
L 397.546902 36.959978 
L 395.750891 38.075219 
L 393.954879 39.252362 
L 392.158868 40.491105 
L 390.362857 41.791129 
L 388.566846 43.1521 
L 386.770835 44.573668 
L 384.974824 46.055469 
L 383.178813 47.597122 
L 381.382801 49.198231 
L 379.58679 50.858384 
L 377.790779 52.577155 
L 375.994768 54.354101 
L 374.198757 56.188768 
L 372.402746 58.080683 
L 370.606735 60.029361 
L 368.810724 62.0343 
L 367.014712 64.094986 
L 365.218701 66.210889 
L 363.42269 68.381466 
L 361.626679 70.606159 
L 359.830668 72.884396 
L 358.034657 75.215593 
L 356.238646 77.599149 
L 354.442635 80.034454 
L 352.646623 82.520881 
L 350.850612 85.057791 
L 349.054601 87.644533 
L 347.25859 90.280443 
L 345.462579 92.964842 
L 343.666568 95.697041 
L 341.870557 98.476339 
L 340.074545 101.302022 
" clip-path="url(#pbeeb005d2d)" style="fill: none; stroke-dasharray: 3.33,1.44; stroke-dashoffset: 0; stroke: #800000; stroke-opacity: 0.8; stroke-width: 0.9"/>
   </g>
   <g id="line2d_27">
    <path d="M 164.065455 101.302022 
L 167.585636 95.807314 
L 171.105818 90.493419 
L 174.626 85.365582 
L 178.146182 80.428863 
L 181.666364 75.688135 
L 185.186545 71.148074 
L 188.706727 66.813163 
L 192.226909 62.68768 
L 195.747091 58.775694 
L 199.267273 55.081068 
L 202.787455 51.607447 
L 206.307636 48.358259 
L 209.827818 45.336712 
L 213.348 42.545786 
L 216.868182 39.988236 
L 220.388364 37.666586 
L 223.908545 35.583128 
L 227.428727 33.739917 
L 230.948909 32.138772 
L 234.469091 30.781274 
L 237.989273 29.668763 
L 241.509455 28.802335 
L 245.029636 28.182847 
L 248.549818 27.810909 
L 252.07 27.686889 
L 255.590182 27.810909 
L 259.110364 28.182847 
L 262.630545 28.802335 
L 266.150727 29.668763 
L 269.670909 30.781274 
L 273.191091 32.138772 
L 276.711273 33.739917 
L 280.231455 35.583128 
L 283.751636 37.666586 
L 287.271818 39.988236 
L 290.792 42.545786 
L 294.312182 45.336712 
L 297.832364 48.358259 
L 301.352545 51.607447 
L 304.872727 55.081068 
L 308.392909 58.775694 
L 311.913091 62.68768 
L 315.433273 66.813163 
L 318.953455 71.148074 
L 322.473636 75.688135 
L 325.993818 80.428863 
L 329.514 85.365582 
L 333.034182 90.493419 
L 336.554364 95.807314 
L 340.074545 101.302022 
" clip-path="url(#pbeeb005d2d)" style="fill: none; stroke: #800000; stroke-width: 1.5; stroke-linecap: square"/>
   </g>
   <g id="line2d_28">
    <path d="M 164.065455 291.591563 
L 164.065455 15.12 
" clip-path="url(#pbeeb005d2d)" style="fill: none; stroke-dasharray: 9.6,2.4,1.5,2.4; stroke-dashoffset: 0; stroke: #000000; stroke-width: 1.5"/>
   </g>
   <g id="line2d_29">
    <path d="M 340.074545 291.591563 
L 340.074545 15.12 
" clip-path="url(#pbeeb005d2d)" style="fill: none; stroke-dasharray: 9.6,2.4,1.5,2.4; stroke-dashoffset: 0; stroke: #000000; stroke-width: 1.5"/>
   </g>
   <g id="patch_3">
    <path d="M 58.46 291.591563 
L 58.46 15.12 
" style="fill: none; stroke: #000000; stroke-width: 0.8; stroke-linejoin: miter; stroke-linecap: square"/>
   </g>
   <g id="patch_4">
    <path d="M 445.68 291.591563 
L 445.68 15.12 
" style="fill: none; stroke: #000000; stroke-width: 0.8; stroke-linejoin: miter; stroke-linecap: square"/>
   </g>
   <g id="patch_5">
    <path d="M 58.46 291.591563 
L 445.68 291.591563 
" style="fill: none; stroke: #000000; stroke-width: 0.8; stroke-linejoin: miter; stroke-linecap: square"/>
   </g>
   <g id="patch_6">
    <path d="M 58.46 15.12 
L 445.68 15.12 
" style="fill: none; stroke: #000000; stroke-width: 0.8; stroke-linejoin: miter; stroke-linecap: square"/>
   </g>
   <g id="legend_1">
    <g id="patch_7">
     <path d="M 68.26 284.591563 
L 135.67 284.591563 
Q 138.47 284.591563 138.47 281.791562 
L 138.47 202.9125 
Q 138.47 200.1125 135.67 200.1125 
L 68.26 200.1125 
Q 65.46 200.1125 65.46 202.9125 
L 65.46 281.791562 
Q 65.46 284.591563 68.26 284.591563 
z
" style="fill: #ffffff; opacity: 0.8; stroke: #cccccc; stroke-linejoin: miter"/>
    </g>
    <g id="text_18">
     <!-- $\alpha$ -->
     <g transform="translate(97.485 215.484062)scale(0.14 -0.14)">
      <defs>
       <path id="Cmmi10-ae" d="M 1288 -72 
Q 984 -72 748 72 
Q 513 216 384 459 
Q 256 703 256 1013 
Q 256 1447 498 1872 
Q 741 2297 1142 2562 
Q 1544 2828 1984 2828 
Q 2309 2828 2556 2658 
Q 2803 2488 2931 2205 
Q 3059 1922 3059 1600 
L 3066 1172 
Q 3284 1475 3436 1801 
Q 3588 2128 3669 2478 
Q 3681 2516 3719 2516 
L 3794 2516 
Q 3853 2516 3853 2456 
Q 3853 2450 3847 2438 
Q 3772 2144 3659 1873 
Q 3547 1603 3395 1350 
Q 3244 1097 3066 891 
Q 3066 97 3250 97 
Q 3369 97 3445 167 
Q 3522 238 3580 341 
Q 3638 444 3653 447 
L 3731 447 
Q 3781 447 3781 384 
Q 3781 225 3598 76 
Q 3416 -72 3238 -72 
Q 3006 -72 2853 78 
Q 2700 228 2644 469 
Q 2344 213 1994 70 
Q 1644 -72 1288 -72 
z
M 1300 97 
Q 1984 97 2613 659 
Q 2609 697 2603 751 
Q 2597 806 2597 813 
L 2597 1503 
Q 2597 2663 1972 2663 
Q 1597 2663 1315 2342 
Q 1034 2022 892 1576 
Q 750 1131 750 763 
Q 750 484 892 290 
Q 1034 97 1300 97 
z
" transform="scale(0.015625)"/>
      </defs>
      <use xlink:href="#Cmmi10-ae" transform="translate(0 0.8125)"/>
     </g>
    </g>
    <g id="line2d_30">
     <path d="M 71.06 230.660937 
L 85.06 230.660937 
L 99.06 230.660937 
" style="fill: none; stroke: #000080; stroke-width: 1.5; stroke-linecap: square"/>
    </g>
    <g id="text_19">
     <!-- 0.9 -->
     <g transform="translate(110.26 235.560937)scale(0.14 -0.14)">
      <defs>
       <path id="LibertinusSerif-Regular-39" d="M 2093 1638 
C 1920 1056 1510 410 659 90 
C 659 13 685 -45 736 -77 
C 1382 115 1779 384 2138 800 
C 2534 1261 2733 1843 2733 2349 
C 2733 3648 1997 3904 1504 3904 
C 666 3904 320 3091 320 2541 
C 320 1990 614 1498 1485 1498 
C 1651 1498 1901 1549 2093 1638 
z
M 2150 1869 
C 1939 1728 1728 1722 1619 1722 
C 992 1722 851 2336 851 2656 
C 851 3360 1120 3680 1434 3680 
C 1837 3680 2202 3462 2202 2368 
C 2202 2227 2189 2054 2150 1869 
z
" transform="scale(0.015625)"/>
      </defs>
      <use xlink:href="#LibertinusSerif-Regular-30"/>
      <use xlink:href="#LibertinusSerif-Regular-2e" x="46.499985"/>
      <use xlink:href="#LibertinusSerif-Regular-39" x="68.499969"/>
     </g>
    </g>
    <g id="line2d_31">
     <path d="M 71.06 250.737812 
L 85.06 250.737812 
L 99.06 250.737812 
" style="fill: none; stroke: #7dff7a; stroke-width: 1.5; stroke-linecap: square"/>
    </g>
    <g id="text_20">
     <!-- 0.95 -->
     <g transform="translate(110.26 255.637812)scale(0.14 -0.14)">
      <defs>
       <path id="LibertinusSerif-Regular-35" d="M 2042 1210 
C 2042 602 1722 154 1338 154 
C 1094 154 1011 314 915 442 
C 832 550 723 646 589 646 
C 467 646 346 538 346 410 
C 346 147 890 -70 1254 -70 
C 2048 -70 2611 518 2611 1325 
C 2611 1946 2182 2502 1466 2502 
C 1190 2502 954 2445 838 2400 
L 966 3469 
C 1203 3443 1408 3411 1715 3411 
C 1907 3411 2125 3424 2387 3450 
L 2490 3885 
L 2445 3910 
C 2080 3872 1734 3840 1395 3840 
C 1158 3840 928 3853 704 3872 
L 486 2029 
C 826 2157 1069 2182 1299 2182 
C 1715 2182 2042 1907 2042 1210 
z
" transform="scale(0.015625)"/>
      </defs>
      <use xlink:href="#LibertinusSerif-Regular-30"/>
      <use xlink:href="#LibertinusSerif-Regular-2e" x="46.499985"/>
      <use xlink:href="#LibertinusSerif-Regular-39" x="68.499969"/>
      <use xlink:href="#LibertinusSerif-Regular-35" x="114.999954"/>
     </g>
    </g>
    <g id="line2d_32">
     <path d="M 71.06 270.814687 
L 85.06 270.814687 
L 99.06 270.814687 
" style="fill: none; stroke: #800000; stroke-width: 1.5; stroke-linecap: square"/>
    </g>
    <g id="text_21">
     <!-- 1.0 -->
     <g transform="translate(110.26 275.714687)scale(0.14 -0.14)">
      <use xlink:href="#LibertinusSerif-Regular-31"/>
      <use xlink:href="#LibertinusSerif-Regular-2e" x="46.499985"/>
      <use xlink:href="#LibertinusSerif-Regular-30" x="68.499969"/>
     </g>
    </g>
   </g>
  </g>
 </g>
 <defs>
  <clipPath id="pbeeb005d2d">
   <rect x="58.46" y="15.12" width="387.22" height="276.471563"/>
  </clipPath>
 </defs>
</svg>
